<?xml version="1.0" encoding="iso-8859-1"?>
<!-- Generator: Adobe Illustrator 26.1.0, SVG Export Plug-In . SVG Version: 6.00 Build 0)  -->
<svg version="1.1" xmlns="http://www.w3.org/2000/svg" xmlns:xlink="http://www.w3.org/1999/xlink" x="0px" y="0px"
	 viewBox="0 0 600 600" style="enable-background:new 0 0 600 600;" xml:space="preserve">
<g id="amazon">
	<g>
		<linearGradient id="SVGID_1_" gradientUnits="userSpaceOnUse" x1="300" y1="24.6667" x2="300" y2="570.4388">
			<stop  offset="0" style="stop-color:#4400FF"/>
			<stop  offset="1" style="stop-color:#331799"/>
		</linearGradient>
		<path style="fill:url(#SVGID_1_);" d="M463.889,5H136.111C63.672,5,5,63.672,5,136.111v65.556v196.667v65.556
			C5,536.328,63.672,595,136.111,595h327.778C536.328,595,595,536.328,595,463.889v-65.556V201.667v-65.556
			C595,63.672,536.328,5,463.889,5z"/>
		<path style="fill:#FFFFFF;" d="M496.372,381.944c-15.34,0-33.564,3.819-46.987,13.39c-3.835,2.868-3.835,6.687,0.967,6.687
			c15.34-1.918,49.871-6.687,56.574,1.918c5.753,7.654-6.719,40.169-12.472,55.46c-1.918,4.786,1.918,5.736,5.753,2.868
			c25.894-21.994,32.597-66.949,27.812-72.685C525.134,384.812,511.712,381.944,496.372,381.944z"/>
		<path style="fill:#FFFFFF;" d="M73.014,395.056c29.664,18.569,59.656,36.301,91.139,49.691
			c31.368,13.357,64.277,22.912,97.35,23.043c33.679,0.901,67.883-3.72,101.07-11.276c33.302-7.67,65.752-19.224,97.629-32.745
			c4.163-1.786,8.997,0.164,10.768,4.327c1.639,3.851,0.098,8.276-3.442,10.341c-30.926,17.848-64.376,31.68-99.218,41.054
			c-34.941,9.374-71.029,13.472-107.56,12.882c-37.301-1.95-73.012-13.308-104.971-29.844
			c-32.04-16.618-61.131-37.531-87.697-60.917c-1.704-1.508-1.868-4.097-0.377-5.802C69.081,394.285,71.342,394.007,73.014,395.056z
			"/>
		<path style="fill:#FFFFFF;" d="M212.483,271.598c-6.998-14.602-23.829-24.387-39.956-19.601
			c-3.901,1.246-7.703,3.081-11.013,5.884c-2.983,2.704-5.097,5.572-7.014,8.571c-0.013,0.02-0.024,0.042-0.036,0.062
			c-8.11-11.676-22.817-18.722-36.986-14.517c-3.901,1.246-7.703,3.081-11.013,5.884c-1.174,1.064-2.185,2.16-3.13,3.273v-10.32
			H86.944v98.333h16.389v-67.078c3.685-7.672,11.332-15.433,17.323-15.177c8.342-0.246,18.454,3.376,21.879,11.538
			c1.901,3.966,1.803,7.949,1.77,14.848v18.618v37.252h16.389v-37.252v-18.618c0.033-3.608,0.19-8.77-0.789-14
			c4.012-6.65,10.54-12.61,15.801-12.386c8.342-0.246,18.454,3.376,21.879,11.538c1.901,3.966,1.803,7.949,1.77,14.848v18.618
			v37.252h16.389v-37.252v-18.618C215.794,287.889,216.138,278.989,212.483,271.598z"/>
		<path style="fill:#FFFFFF;" d="M300,250.833v40.972v16.389c0,9.883-14.701,24.583-24.583,24.583h-6.621
			c-9.899,0-17.962-8.063-17.962-17.962v-63.982h-16.389v63.982c0,18.946,15.406,34.351,34.351,34.351h6.621
			c8.363,0,17.239-4.167,24.583-10.456v10.456h16.389v-40.972v-16.389v-40.972H300z"/>
		<rect x="414.722" y="250.833" style="fill:#FFFFFF;" width="16.389" height="98.333"/>
		<circle style="fill:#FFFFFF;" cx="422.917" cy="218.056" r="16.389"/>
		<path style="fill:#FFFFFF;" d="M463.889,293.772v12.456c0,14.586,11.964,26.55,26.55,26.55c7.047,0,13.767-2.786,18.847-7.703
			l3.769-3.77v21.306c-6.719,4.261-14.422,6.556-22.617,6.556c-23.6,0-42.939-19.339-42.939-42.939v-12.456
			c0-23.6,19.339-42.939,42.939-42.939c8.194,0,15.897,2.294,22.617,6.556v21.306l-3.769-3.769
			c-5.081-4.917-11.8-7.703-18.847-7.703C475.853,267.222,463.889,279.186,463.889,293.772z"/>
		<path style="fill:#FFFFFF;" d="M353.182,266.485c-1.639,1.147-4.015,4.507-4.015,8.932c0,9.506,5.244,12.292,19.011,16.881
			c12.783,4.097,30.156,9.997,30.156,32.286c0,8.522-3.278,15.569-9.669,20.486c-8.031,6.228-20.158,8.194-31.794,8.194
			c-8.85,0-17.7-1.147-24.092-2.294v-16.717c15.406,3.114,37.367,4.589,45.725-2.131c1.639-1.147,3.442-3.114,3.442-7.539
			c0-9.506-5.244-12.292-19.011-16.881c-12.783-4.097-30.156-9.997-30.156-32.286c0-8.522,3.278-15.569,9.669-20.486
			c14.258-11.144,37.809-8.178,52.33-2.688v16.717C379.601,260.208,361.54,259.765,353.182,266.485z"/>
	</g>
</g>
<g id="Layer_1">
</g>
</svg>
