<?xml version="1.0" encoding="iso-8859-1"?>
<!-- Generator: Adobe Illustrator 26.1.0, SVG Export Plug-In . SVG Version: 6.00 Build 0)  -->
<svg version="1.1" xmlns="http://www.w3.org/2000/svg" xmlns:xlink="http://www.w3.org/1999/xlink" x="0px" y="0px"
	 viewBox="0 0 600 600" style="enable-background:new 0 0 600 600;" xml:space="preserve">
<g id="apple">
	<g id="XMLID_632_">
		
			<linearGradient id="XMLID_00000058560921412273114990000012562368579471777443_" gradientUnits="userSpaceOnUse" x1="300" y1="596" x2="300" y2="8" gradientTransform="matrix(1 0 0 -1 0 602)">
			<stop  offset="0" style="stop-color:#F452FF"/>
			<stop  offset="1" style="stop-color:#832BC1"/>
		</linearGradient>
		
			<path id="XMLID_662_" style="fill-rule:evenodd;clip-rule:evenodd;fill:url(#XMLID_00000058560921412273114990000012562368579471777443_);" d="
			M582.436,515.6c-5.684,14.504-18.816,34.888-37.632,49.392c-10.78,8.232-23.716,16.268-41.356,21.56
			C484.632,592.236,461.308,594,432.3,594H167.7c-29.008,0-52.136-1.96-71.148-7.448c-17.64-5.292-30.576-13.132-41.356-21.56
			c-18.62-14.308-31.948-34.888-37.632-49.392C6.196,486.396,6,453.272,6,432.3l0,0V167.7l0,0c0-20.972,0.196-54.096,11.564-83.3
			c5.684-14.504,18.816-34.888,37.632-49.392c10.78-8.232,23.716-16.268,41.356-21.56C115.564,7.96,138.692,6,167.7,6l0,0h264.6l0,0
			c29.008,0,52.136,1.96,71.148,7.448c17.64,5.292,30.576,13.132,41.356,21.56c18.62,14.308,31.948,34.888,37.632,49.392
			C594,113.604,594,146.924,594,167.7v264.6C594,453.272,593.804,486.396,582.436,515.6z"/>
		<g>
			<path id="XMLID_657_" style="fill:#FFFFFF;" d="M350.372,360.956c-0.784-7.056-3.136-12.152-7.84-16.856
				c-8.82-9.212-24.304-15.288-42.532-15.288s-33.712,5.88-42.532,15.288c-4.508,4.9-7.056,9.8-7.84,16.856
				c-1.568,13.72-0.588,25.48,0.98,44.492c1.568,18.032,4.508,42.14,8.232,66.444c2.744,17.444,4.9,26.852,6.86,33.516
				c3.332,10.976,15.288,20.384,34.3,20.384s31.164-9.604,34.3-20.384c1.96-6.664,4.116-16.072,6.86-33.516
				c3.724-24.5,6.664-48.412,8.232-66.444C351.156,386.436,351.94,374.676,350.372,360.956z"/>
			<path id="XMLID_655_" style="fill:#FFFFFF;" d="M348.216,260.996c0,26.656-21.56,48.216-48.216,48.216
				s-48.216-21.56-48.216-48.216c0-26.656,21.56-48.216,48.216-48.216S348.216,234.536,348.216,260.996z"/>
			<path id="XMLID_653_" style="fill:#FFFFFF;" d="M299.412,71.072C186.908,71.464,94.788,162.8,93.22,275.304
				c-1.176,91.14,57.036,169.148,138.376,197.764c1.96,0.784,3.92-0.98,3.724-2.94c-0.98-7.056-2.156-14.112-2.94-21.168
				c-0.392-2.548-1.96-4.508-4.116-5.684c-64.288-28.028-109.172-92.512-108.388-167.188c0.98-98,80.948-177.772,178.752-178.556
				c100.156-0.784,181.888,80.36,181.888,180.32c0,73.892-44.688,137.396-108.388,165.424c-2.352,0.98-3.92,3.136-4.116,5.684
				c-0.98,7.056-1.96,14.112-2.94,21.168c-0.392,2.156,1.764,3.724,3.724,2.94c80.556-28.224,138.376-105.056,138.376-195.216
				C506.78,163.78,413.68,70.876,299.412,71.072z"/>
			<path id="XMLID_651_" style="fill:#FFFFFF;" d="M294.708,139.672c-73.304,2.744-132.104,63.308-133.084,136.612
				c-0.588,48.216,23.52,90.944,60.564,116.228c1.764,1.176,4.312-0.196,4.312-2.352c-0.588-8.428-0.588-15.876-0.196-23.716
				c0.196-2.548-0.784-4.9-2.744-6.664c-22.54-21.168-36.26-51.352-35.476-84.672c1.568-58.8,48.804-106.624,107.604-108.976
				c63.896-2.548,116.424,48.804,116.424,111.916c0,32.144-13.72,61.152-35.476,81.732c-1.764,1.764-2.744,4.116-2.744,6.664
				c0.392,7.644,0.196,15.092-0.196,23.52c-0.196,2.156,2.352,3.724,4.312,2.352c36.456-24.892,60.564-67.032,60.564-114.464
				C438.768,199.844,373.5,136.536,294.708,139.672z"/>
		</g>
	</g>
</g>
<g id="Layer_1">
</g>
</svg>
