<?xml version="1.0" encoding="iso-8859-1"?>
<!-- Generator: Adobe Illustrator 26.1.0, SVG Export Plug-In . SVG Version: 6.00 Build 0)  -->
<svg version="1.1" xmlns="http://www.w3.org/2000/svg" xmlns:xlink="http://www.w3.org/1999/xlink" x="0px" y="0px"
	 viewBox="0 0 600 600" style="enable-background:new 0 0 600 600;" xml:space="preserve">
<g id="castbox">
	<g>
		<path style="fill:#F25C31;" d="M43.8,299.982V176.168c-0.12-18.924,7.862-32.373,24.095-42.03l206.55-122.37
			c17.259-10.304,33.298-10.387,50.659-0.074l207.438,122.768c15.891,9.37,23.753,23.124,23.771,41.391l0.018,247.821
			c0,18.221-7.585,32.096-23.531,41.493L324.688,588.463c-16.649,9.86-32.41,10.174-49.059,0.185L68.034,465.88
			c-16.594-9.749-24.511-23.549-24.363-42.825L43.8,299.982z"/>
		<path style="fill:#FFFFFF;" d="M352.797,298.335l-0.056-56.838c-0.092-10.683-6.345-17.555-15.909-18.277
			c-11.155-0.925-19.239,6.16-19.535,17.574l-0.148,37.275c-0.148,8.047-5.402,12.237-12.672,10.637
			c-5.994-1.313-7.585-5.596-7.548-11.146l0.055-49.392c0.028-6.974-1.878-12.894-8.093-16.723
			c-12.653-7.788-27.323,0.185-27.73,15.354l-0.129,40.078c-0.092,7.344-3.422,10.859-9.675,11.081
			c-6.475,0.222-10.609-3.654-11.044-11.099l-0.092-13.874c-0.324-7.714-4.236-12.949-11.34-15.354
			c-12.024-4.218-23.632,3.774-23.864,16.705l-0.148,35.425c-0.148,6.438-3.95,9.962-9.786,10.137
			c-5.994,0.185-9.786-3.089-10.637-9.37c-0.25-1.831,0-3.746-0.222-5.577c-1.11-9.203-8.805-16.205-17.574-16.094
			c-8.879,0.092-17.296,7.122-17.518,16.15l0.018,55.913c0.25,9.249,8.639,16.159,17.463,16.15
			c8.972-0.028,16.427-6.789,17.574-16.094c0.277-2.146-0.555-4.837,0.462-6.41c2.035-3.126,4.569-7.002,7.723-8.019
			c2.738-0.888,7.446,0.869,9.712,3.08c2.035,1.97,2.664,6.105,2.71,9.323l0.185,54.979c0.185,13.393,13.985,21.644,25.824,15.669
			c6.734-3.404,9.564-9.027,9.49-16.723l-0.074-72.701c0.019-11.303,3.385-16.372,10.748-16.261
			c7.03,0.092,10.174,4.81,10.174,15.706l0.046,32.614c0.222,11.321,7.27,18.499,17.611,18.702
			c10.655,0.12,17.981-7.4,18.184-19.146l0.074-25.159c0.148-7.622,3.94-11.812,10.193-11.691s9.915,4.273,10.017,11.886
			l0.12,28.886c0.351,10.452,7.992,17.574,18.009,17.417c10.332-0.167,17.315-7.455,17.417-18.841l0.046-55.959L352.797,298.335z"/>
		<path style="fill:#FFFFFF;" d="M409.089,318.092l-0.028-31.652c-0.129-10.757-6.808-17.833-16.899-18.221
			c-10.544-0.416-18.499,5.716-18.628,16.399l0.12,67.012c0.277,10.387,8.824,17.222,18.573,16.668
			c10.174-0.592,16.695-7.696,16.853-18.527l0.018-31.652L409.089,318.092z"/>
		<path style="fill:#FFFFFF;" d="M429.826,326.897l0.018,8.361c0.462,9.564,7.011,16.187,16.409,16.705
			c9.962,0.555,17.851-5.503,18.795-15.243c0.616-6.479,0.61-13.002-0.018-19.479c-0.925-9.619-9.249-16.131-18.684-15.558
			c-9.203,0.555-15.965,7.418-16.52,16.834c-0.167,2.775-0.018,5.577-0.018,8.362L429.826,326.897z"/>
	</g>
</g>
<g id="Layer_1">
</g>
</svg>
