<?xml version="1.0" encoding="iso-8859-1"?>
<!-- Generator: Adobe Illustrator 26.1.0, SVG Export Plug-In . SVG Version: 6.00 Build 0)  -->
<svg version="1.1" xmlns="http://www.w3.org/2000/svg" xmlns:xlink="http://www.w3.org/1999/xlink" x="0px" y="0px"
	 viewBox="0 0 600 600" style="enable-background:new 0 0 600 600;" xml:space="preserve">
<g id="google">
	<g>
		<path style="fill:#0066D9;" d="M80.25,280.022v39.956c0,20.227-16.398,36.625-36.625,36.625S7,340.205,7,319.978v-39.956
			c0-20.227,16.398-36.625,36.625-36.625S80.25,259.795,80.25,280.022L80.25,280.022z"/>
		<path style="fill:#4285F4;" d="M519.765,281.064c-0.01-0.347-0.015-0.694-0.015-1.042c0-20.227,16.398-36.625,36.625-36.625
			S593,259.795,593,280.022c0,0.348-0.005,0.696-0.015,1.042H593v39.954h-0.015c-0.549,19.745-16.731,35.583-36.61,35.583
			s-36.06-15.838-36.61-35.583h-0.015v-39.956h0.015V281.064z"/>
		<path style="fill:#EA4335;" d="M206.772,399.887v39.954c0,20.227-16.397,36.625-36.625,36.625s-36.625-16.398-36.625-36.625
			v-39.956c0-20.226,16.398-36.625,36.625-36.625s36.625,16.399,36.625,36.625V399.887z M206.772,160.159v130.685h-0.009
			c-0.442,19.843-16.667,35.793-36.616,35.793s-36.173-15.95-36.615-35.793h-0.01V160.159c0-20.227,16.398-36.625,36.625-36.625
			S206.772,139.932,206.772,160.159z"/>
		<path style="fill:#34A853;" d="M393.228,200.113c0,20.227,16.397,36.625,36.625,36.625s36.625-16.398,36.625-36.625v-39.954
			c0-20.227-16.398-36.625-36.625-36.625c-20.227,0-36.625,16.398-36.625,36.625V200.113z"/>
		<path style="fill:#FAB908;" d="M263.375,83.581c0,20.226,16.398,36.625,36.625,36.625s36.625-16.399,36.625-36.625V43.625
			C336.625,23.398,320.227,7,300,7s-36.625,16.398-36.625,36.625V83.581z M263.375,516.419c0-20.226,16.398-36.625,36.625-36.625
			s36.625,16.399,36.625,36.625v39.956C336.625,576.602,320.227,593,300,593s-36.625-16.398-36.625-36.625V516.419z"/>
		<path style="fill:#34A853;" d="M393.228,309.988c0-20.227,16.397-36.625,36.625-36.625s36.625,16.398,36.625,36.625v129.853
			c0,20.227-16.398,36.625-36.625,36.625c-20.227,0-36.625-16.398-36.625-36.625V309.988z"/>
		<path style="fill:#FAB908;" d="M336.625,193.456v213.089c0,20.228-16.398,36.625-36.625,36.625s-36.625-16.397-36.625-36.625
			V193.456c0-20.228,16.398-36.625,36.625-36.625S336.625,173.227,336.625,193.456z"/>
	</g>
</g>
<g id="Layer_1">
</g>
</svg>
