<?xml version="1.0" encoding="iso-8859-1"?>
<!-- Generator: Adobe Illustrator 26.1.0, SVG Export Plug-In . SVG Version: 6.00 Build 0)  -->
<svg version="1.1" id="a" xmlns="http://www.w3.org/2000/svg" xmlns:xlink="http://www.w3.org/1999/xlink" x="0px" y="0px"
	 viewBox="0 0 775.42 788.84" style="enable-background:new 0 0 775.42 788.84;" xml:space="preserve">
<path id="b" style="fill:#393939;" d="M720.158,205.759L388.106,397.46l332.169,191.765C754.036,530.95,771.87,464.815,772,397.46
	C771.831,330.118,753.958,264.009,720.158,205.759L720.158,205.759z"/>
<path id="c" style="fill:#3267CE;" d="M720.249,589.251L388.067,397.46v383.92C525.163,781.237,651.766,708.007,720.249,589.251
	L720.249,589.251L720.249,589.251z"/>
<path id="d" style="fill:#81ACEC;" d="M388.067,397.499L55.898,589.264C124.381,708.02,250.997,781.237,388.08,781.38l0,0V397.499
	H388.067z"/>
<path id="e" style="fill:#FD3200;" d="M388.119,397.447L56.015,205.72C22.215,263.983,4.329,330.105,4.16,397.46
	c0.117,67.368,17.964,133.516,51.751,191.804L388.08,397.499v-0.039h0.039V397.447z"/>
<path id="f" style="fill:#171717;" d="M388.132,397.447l332.026-191.688C651.727,87.017,525.176,13.76,388.119,13.54v383.907
	H388.132z"/>
<path id="g" style="fill:#D11500;" d="M56.028,205.708L388.119,397.46h0.013V13.54h-0.052
	C251.036,13.735,124.485,86.978,56.028,205.708C56.028,205.708,56.028,205.708,56.028,205.708z"/>
<path id="h" style="fill:#FFFFFF;" d="M388.08,196.745c-110.857,0-200.715,89.858-200.715,200.715
	c0.091,21.505,3.619,42.854,10.48,63.23l-40.376,69.936h80.753c38.016,42.88,92.543,67.458,149.858,67.549
	c110.857,0,200.715-89.858,200.715-200.715S498.937,196.745,388.08,196.745L388.08,196.745z"/>
</svg>
