<?xml version="1.0" encoding="UTF-8"?><svg id="a" xmlns="http://www.w3.org/2000/svg" viewBox="0 0 775.42 788.84"><defs><style>.i{fill:#fff;}.j{fill:#393939;}.k{fill:#fd3200;}.l{fill:#3267ce;}.m{fill:#d11500;}.n{fill:#81acec;}.o{fill:#171717;}</style></defs><path id="b" class="j" d="M556.19,161.74l-256.01,147.8,256.1,147.85c26.03-44.93,39.78-95.92,39.88-147.85-.13-51.92-13.91-102.89-39.97-147.8Z"/><path id="c" class="l" d="M556.26,457.41l-256.11-147.87v296c105.7-.11,203.31-56.57,256.11-148.13h0Z"/><path id="d" class="n" d="M300.15,309.57L44.05,457.42c52.8,91.56,150.42,148.01,256.11,148.12h0V309.57Z"/><path id="e" class="k" d="M300.19,309.53L44.14,161.71C18.08,206.63,4.29,257.61,4.16,309.54c.09,51.94,13.85,102.94,39.9,147.88l256.1-147.85v-.03h.03Z"/><path id="f" class="o" d="M300.2,309.53l255.99-147.79C503.43,70.19,405.86,13.71,300.19,13.54V309.53Z"/><path id="g" class="m" d="M44.15,161.7l256.04,147.84h.01V13.54h-.04c-105.66,.15-203.23,56.62-256.01,148.16h0Z"/><path id="h" class="i" d="M300.16,154.79c-85.47,0-154.75,69.28-154.75,154.75,.07,16.58,2.79,33.04,8.08,48.75l-31.13,53.92h62.26c29.31,33.06,71.35,52.01,115.54,52.08,85.47,0,154.75-69.28,154.75-154.75,0-85.47-69.28-154.75-154.75-154.75Z"/></svg>