<?xml version="1.0" encoding="iso-8859-1"?>
<!-- Generator: Adobe Illustrator 26.1.0, SVG Export Plug-In . SVG Version: 6.00 Build 0)  -->
<svg version="1.1" xmlns="http://www.w3.org/2000/svg" xmlns:xlink="http://www.w3.org/1999/xlink" x="0px" y="0px"
	 viewBox="0 0 600 600" style="enable-background:new 0 0 600 600;" xml:space="preserve">
<g id="overcast">
	<g id="surface1">
		<circle style="fill:#FFFFFF;" cx="300" cy="299" r="285"/>
		<path style="fill:#F57E20;" d="M151.276,448.724C113.211,410.665,89.669,358.083,89.669,300s23.541-110.665,61.607-148.724
			l18.702,18.702c-33.27,33.276-53.854,79.245-53.854,130.022s20.584,96.746,53.854,130.022L151.276,448.724z M208.805,391.195
			c-23.34-23.34-37.776-55.578-37.776-91.195s14.436-67.855,37.776-91.195l18.709,18.709
			c-18.551,18.551-30.029,44.176-30.029,72.487s11.478,53.936,30.029,72.487L208.805,391.195z M372.487,372.487
			c18.551-18.551,30.029-44.176,30.029-72.487s-11.478-53.936-30.029-72.487l18.709-18.709c23.34,23.34,37.776,55.578,37.776,91.195
			s-14.436,67.855-37.776,91.195L372.487,372.487z M448.724,448.724l-18.702-18.702c33.27-33.276,53.854-79.245,53.854-130.022
			s-20.584-96.746-53.854-130.022l18.702-18.702c38.065,38.059,61.607,90.642,61.607,148.724S486.789,410.665,448.724,448.724z
			 M300,32.807C152.434,32.807,32.807,152.434,32.807,300c0,118.028,76.533,218.178,182.68,253.544l68.617-205.857
			c-19.967-6.651-34.371-25.486-34.371-47.687c0-27.764,22.503-50.267,50.267-50.267s50.267,22.503,50.267,50.267
			c0,22.201-14.404,41.035-34.371,47.687l68.617,205.857C490.66,518.178,567.193,418.028,567.193,300
			C567.193,152.434,447.566,32.807,300,32.807z M332.867,565.179c-11.893-9.238-23.409-19.413-34.415-30.52
			c-10.641,11.006-21.735,21.112-33.176,30.294c11.365,1.473,22.956,2.24,34.724,2.24
			C311.126,567.193,322.094,566.507,332.867,565.179z M314.971,516.391c14.656,16.5,30.388,31.074,46.806,43.615
			c1.095-0.264,2.184-0.529,3.272-0.799l-28.381-70.958C329.759,498.104,322.509,507.493,314.971,516.391z M299.61,497.896
			c9.162-11.818,17.79-24.454,25.775-37.858L300,396.582l-25.694,64.231C282.16,473.927,290.624,486.305,299.61,497.896z
			 M237.626,559.855c15.845-12.12,31.049-26.115,45.258-41.923c-7.262-8.313-14.247-17.079-20.911-26.279l-27.021,67.553
			C235.839,559.427,236.732,559.641,237.626,559.855z M300,593.673C137.809,593.673,6.334,462.191,6.334,300
			S137.809,6.327,300,6.327S593.673,137.809,593.673,300S462.191,593.673,300,593.673"/>
	</g>
</g>
<g id="Layer_1">
</g>
</svg>
