<?xml version="1.0" encoding="iso-8859-1"?>
<!-- Generator: Adobe Illustrator 26.1.0, SVG Export Plug-In . SVG Version: 6.00 Build 0)  -->
<svg version="1.1" xmlns="http://www.w3.org/2000/svg" xmlns:xlink="http://www.w3.org/1999/xlink" x="0px" y="0px"
	 viewBox="0 0 600 600" style="enable-background:new 0 0 600 600;" xml:space="preserve">
<g id="pocketcast">
	<g>
		<g>
			<defs>
				<rect id="SVGID_1_" x="4.626" y="6" width="591.173" height="587.38"/>
			</defs>
			<clipPath id="SVGID_00000085246197833542225490000009359092053174415014_">
				<use xlink:href="#SVGID_1_"  style="overflow:visible;"/>
			</clipPath>
			<g style="clip-path:url(#SVGID_00000085246197833542225490000009359092053174415014_);">
				<path style="fill:#E86357;" d="M591.95,299.69c0,162.199-131.463,293.69-293.662,293.69S4.626,461.889,4.626,299.69
					c0-162.171,131.463-293.662,293.662-293.662S591.95,137.518,591.95,299.69"/>
			</g>
		</g>
		<path style="fill:#FFFFFF;" d="M300.213,438.37c-76.591,0-138.666-62.103-138.666-138.694S223.622,161.01,300.213,161.01
			s138.666,62.075,138.666,138.666H388.46c0-48.742-39.505-88.247-88.247-88.247s-88.247,39.505-88.247,88.247
			s39.505,88.247,88.247,88.247V438.37z M69.093,299.676c0-127.642,103.477-231.12,231.12-231.12s231.119,103.477,231.119,231.12
			h-57.787c0-95.725-77.58-173.333-173.333-173.333c-95.725,0-173.333,77.608-173.333,173.333
			c0,95.752,77.608,173.36,173.333,173.36v57.787C172.57,530.823,69.093,427.318,69.093,299.676"/>
	</g>
</g>
<g id="Layer_1">
</g>
</svg>
