<?xml version="1.0" encoding="iso-8859-1"?>
<!-- Generator: Adobe Illustrator 26.1.0, SVG Export Plug-In . SVG Version: 6.00 Build 0)  -->
<svg version="1.1" xmlns="http://www.w3.org/2000/svg" xmlns:xlink="http://www.w3.org/1999/xlink" x="0px" y="0px"
	 viewBox="0 0 600 600" style="enable-background:new 0 0 600 600;" xml:space="preserve">
<g id="podcastaddict">
	<g>
		<path style="fill:#F4842D;" d="M464.352,596.092H135.648C62.646,596.092,3,536.446,3,463.444V136.556
			C3,63.554,62.646,3.908,135.648,3.908h328.703C537.224,3.908,597,63.554,597,136.556v326.888
			C597,536.446,537.224,596.092,464.352,596.092z"/>
		<g>
			<g>
				<defs>
					<path id="SVGID_1_" d="M464.352,596.092H135.648C62.646,596.092,3,536.446,3,463.444V136.556
						C3,63.554,62.646,3.908,135.648,3.908h328.703C537.224,3.908,597,63.554,597,136.556v326.888
						C597,536.446,537.224,596.092,464.352,596.092z"/>
				</defs>
				<clipPath id="SVGID_00000172428785427051797740000001858702852947126462_">
					<use xlink:href="#SVGID_1_"  style="overflow:visible;"/>
				</clipPath>
				
					<linearGradient id="SVGID_00000125563652123346389010000016071096069697589399_" gradientUnits="userSpaceOnUse" x1="218.8716" y1="380.4435" x2="706.656" y2="-108.7882" gradientTransform="matrix(1 0 0 -1 0 602)">
					<stop  offset="0.1302" style="stop-color:#E85D27"/>
					<stop  offset="0.6867" style="stop-color:#F0772B"/>
				</linearGradient>
				
					<polygon style="clip-path:url(#SVGID_00000172428785427051797740000001858702852947126462_);fill:url(#SVGID_00000125563652123346389010000016071096069697589399_);" points="
					508.827,778.792 168.713,438.807 137.204,301.75 277.633,129.424 435.436,172.084 775.42,512.198 				"/>
			</g>
		</g>
		<path style="fill:#FFFFFF;" d="M489.637,296.694c-2.334-103.473-86.876-186.719-190.998-186.719
			c-105.548,0-190.998,85.58-190.998,190.998c0,73.002,40.974,136.538,101.269,168.695v-57.961V302.269c0-0.778,0-1.426,0-2.204
			c0-44.216,31.768-81.041,73.65-89.081v31.768c-24.766,7.261-42.79,30.212-42.79,57.312c0,0.13,0,0.389,0,0.519l0,0v0.259
			c0.389,32.676,27.1,58.998,59.776,58.998c27.1,0,49.921-18.024,57.312-42.66h31.768c-8.039,41.882-44.864,73.521-89.081,73.521
			c-22.951,0-43.827-8.558-59.776-22.562v114.625c18.542,5.965,38.381,9.336,58.998,9.336c39.678,0,76.503-12.059,107.104-32.805
			V492.1h83.894L489.637,296.694L489.637,296.694z M299.417,334.945c-19.32,0-34.88-15.56-34.88-34.88s15.56-34.88,34.88-34.88
			s34.88,15.56,34.88,34.88S318.737,334.945,299.417,334.945z M390.183,300.324h-30.861c0-0.13,0-0.13,0-0.259
			c0-33.065-26.711-59.776-59.776-59.776h-0.13v-30.861h0.13c50.051,0,90.637,40.585,90.637,90.637
			C390.183,300.194,390.183,300.194,390.183,300.324z M443.346,300.324h-30.601c0-0.13,0-0.13,0-0.259
			c0-62.499-50.699-113.198-113.198-113.198h-0.13v-30.601h0.13c79.485,0,143.8,64.444,143.8,143.8
			C443.346,300.194,443.346,300.194,443.346,300.324z"/>
	</g>
</g>
<g id="Layer_1">
</g>
</svg>
