<?xml version="1.0" encoding="iso-8859-1"?>
<!-- Generator: Adobe Illustrator 26.1.0, SVG Export Plug-In . SVG Version: 6.00 Build 0)  -->
<svg version="1.1" id="a" xmlns="http://www.w3.org/2000/svg" xmlns:xlink="http://www.w3.org/1999/xlink" x="0px" y="0px"
	 viewBox="0 0 775.42 788.84" style="enable-background:new 0 0 775.42 788.84;" xml:space="preserve">
<path style="fill:#FFA500;" d="M147.381,13.04h481.237C708.358,13.04,773,77.682,773,157.421v481.237
	c0,79.74-64.642,144.381-144.381,144.381H147.381C67.642,783.04,3,718.398,3,638.659V157.421C3,77.682,67.642,13.04,147.381,13.04z"
	/>
<circle style="fill:#FFFFFF;" cx="195.5" cy="590.54" r="96.25"/>
<path style="fill:#FFFFFF;" d="M99.25,398.04C258.72,398.04,388,527.32,388,686.79h96.25c0-212.631-172.369-385-385-385V398.04
	L99.25,398.04z"/>
<path style="fill:#FFFFFF;" d="M99.25,205.54c265.793,0,481.25,215.457,481.25,481.25h96.25c0-318.941-258.559-577.5-577.5-577.5
	V205.54L99.25,205.54z"/>
</svg>
