<?xml version="1.0" encoding="iso-8859-1"?>
<!-- Generator: Adobe Illustrator 26.1.0, SVG Export Plug-In . SVG Version: 6.00 Build 0)  -->
<svg version="1.1" xmlns="http://www.w3.org/2000/svg" xmlns:xlink="http://www.w3.org/1999/xlink" x="0px" y="0px"
	 viewBox="0 0 600 600" style="enable-background:new 0 0 600 600;" xml:space="preserve">
<g id="spotify">
	<g>
		<path style="fill:#1ED760;" d="M299.998,4.009C136.525,4.009,4,136.53,4,300.002c0,163.477,132.525,295.993,295.998,295.993
			C463.488,595.996,596,463.483,596,300.002c0-163.463-132.512-295.98-296.007-295.98l0.004-0.018L299.998,4.009z"/>
		<path style="fill:#FFFFFF;" d="M435.742,430.92c-5.301,8.694-16.681,11.455-25.379,6.114
			c-69.495-42.451-156.985-52.064-260.02-28.523c-9.928,2.26-19.825-3.96-22.089-13.893c-2.273-9.932,3.925-19.829,13.879-22.089
			c112.754-25.761,209.471-14.67,287.495,33.011C438.326,410.878,441.084,422.222,435.742,430.92L435.742,430.92z"/>
		<path style="fill:#FFFFFF;" d="M471.973,350.325c-6.682,10.856-20.89,14.284-31.742,7.606
			c-79.565-48.907-200.844-63.07-294.954-34.499c-12.206,3.685-25.095-3.192-28.798-15.376c-3.676-12.206,3.206-25.068,15.389-28.78
			c107.497-32.616,241.137-16.819,332.508,39.33c10.851,6.682,14.279,20.89,7.601,31.728v-0.004L471.973,350.325z"/>
		<path style="fill:#FFFFFF;" d="M475.085,266.4c-95.403-56.663-252.796-61.872-343.879-34.228
			c-14.625,4.436-30.094-3.818-34.526-18.448c-4.431-14.634,3.818-30.09,18.453-34.534c104.558-31.742,278.371-25.61,388.208,39.596
			c13.182,7.81,17.498,24.797,9.684,37.935c-7.779,13.156-24.815,17.494-37.927,9.679L475.085,266.4L475.085,266.4z"/>
	</g>
</g>
<g id="Layer_1">
</g>
</svg>
