<?xml version="1.0" encoding="iso-8859-1"?>
<!-- Generator: Adobe Illustrator 26.1.0, SVG Export Plug-In . SVG Version: 6.00 Build 0)  -->
<svg version="1.1" xmlns="http://www.w3.org/2000/svg" xmlns:xlink="http://www.w3.org/1999/xlink" x="0px" y="0px"
	 viewBox="0 0 320 57" style="enable-background:new 0 0 320 57;" xml:space="preserve">
<g id="logo-horz-on-blue">
	<g>
		<g>
			<path style="fill:#F4F2F0;" d="M108.923,49.559L96.543,29.65h-9.891v19.909h-5.807V4.89h16.081
				c8.487,0,14.039,4.914,14.039,12.38c0,5.488-3.127,9.699-8.296,11.486l12.89,20.803H108.923z M86.653,24.417h9.636
				c5.488,0,8.742-2.617,8.742-7.147s-3.254-7.211-8.742-7.211h-9.636V24.417z"/>
			<path style="fill:#F4F2F0;" d="M144.463,28.948v20.611h-5.36v-5.488c-1.851,3.701-6.062,5.999-10.72,5.999
				c-6.445,0-10.848-3.957-10.848-9.508c0-6.19,5.041-9.572,15.315-10.594l6.253-0.701v-0.639c0-4.402-3.126-7.211-7.849-7.211
				c-4.403,0-7.53,2.616-7.977,6.956l-5.042-0.957c0.958-6.382,6.254-10.529,13.018-10.529
				C139.039,16.887,144.463,21.482,144.463,28.948z M139.103,35.01v-1.532l-6.253,0.702c-6.509,0.702-9.891,2.936-9.891,6.317
				c0,2.999,2.553,5.105,6.254,5.105C135.465,45.603,139.103,41.454,139.103,35.01z"/>
			<path style="fill:#F4F2F0;" d="M150.458,33.478c0-9.444,5.488-16.591,15.443-16.591c4.275,0,8.487,2.105,10.529,5.105V4.38h5.424
				v45.179h-5.424v-4.658c-1.468,2.936-5.743,5.169-10.465,5.169C155.946,50.07,150.458,42.922,150.458,33.478z M176.94,33.478
				c0-7.083-4.148-11.741-10.465-11.741s-10.465,4.658-10.465,11.741c0,7.084,4.148,11.742,10.465,11.742
				S176.94,40.562,176.94,33.478z"/>
			<path style="fill:#F4F2F0;" d="M188.614,7.571c0-2.17,1.595-3.829,3.765-3.829c2.233,0,3.893,1.659,3.893,3.829
				c0,2.105-1.659,3.765-3.893,3.765C190.21,11.335,188.614,9.676,188.614,7.571z M189.699,17.398h5.424v32.161h-5.424V17.398z"/>
			<path style="fill:#F4F2F0;" d="M201.12,33.478c0-9.636,6.764-16.591,16.336-16.591c9.508,0,16.399,6.955,16.399,16.591
				s-6.892,16.592-16.399,16.592C207.883,50.07,201.12,43.114,201.12,33.478z M228.24,33.478c0-6.892-4.339-11.741-10.784-11.741
				c-6.445,0-10.785,4.85-10.785,11.741s4.339,11.742,10.785,11.742C223.901,45.22,228.24,40.369,228.24,33.478z"/>
			<path style="fill:#F4F2F0;" d="M239.849,4.38h5.424v45.179h-5.424V4.38z"/>
			<path style="fill:#F4F2F0;" d="M278.327,28.948v20.611h-5.36v-5.488c-1.851,3.701-6.062,5.999-10.72,5.999
				c-6.445,0-10.848-3.957-10.848-9.508c0-6.19,5.041-9.572,15.315-10.594l6.253-0.701v-0.639c0-4.402-3.126-7.211-7.849-7.211
				c-4.403,0-7.53,2.616-7.977,6.956l-5.041-0.957c0.958-6.382,6.254-10.529,13.018-10.529
				C272.903,16.887,278.327,21.482,278.327,28.948z M272.966,35.01v-1.532l-6.253,0.702c-6.509,0.702-9.891,2.936-9.891,6.317
				c0,2.999,2.553,5.105,6.254,5.105C269.329,45.603,272.966,41.454,272.966,35.01z"/>
			<path style="fill:#F4F2F0;" d="M291.596,44.901v4.658h-5.424V4.38h5.424v17.612c2.042-3,6.253-5.105,10.529-5.105
				c9.955,0,15.443,7.146,15.443,16.591S312.08,50.07,302.062,50.07C297.34,50.07,293.064,47.836,291.596,44.901z M312.016,33.478
				c0-7.083-4.148-11.741-10.465-11.741s-10.401,4.658-10.401,11.741c0,7.084,4.084,11.742,10.401,11.742
				S312.016,40.562,312.016,33.478z"/>
		</g>
		<g>
			<linearGradient id="SVGID_1_" gradientUnits="userSpaceOnUse" x1="0.841" y1="27.4204" x2="12.9758" y2="27.4204">
				<stop  offset="0" style="stop-color:#FFC1E5"/>
				<stop  offset="0.0919" style="stop-color:#FFBEDC"/>
				<stop  offset="0.2418" style="stop-color:#FFB4C4"/>
				<stop  offset="0.4312" style="stop-color:#FFA59C"/>
				<stop  offset="0.6525" style="stop-color:#FF9065"/>
				<stop  offset="0.898" style="stop-color:#FF761F"/>
				<stop  offset="1" style="stop-color:#FF6A00"/>
			</linearGradient>
			<path style="fill:url(#SVGID_1_);" d="M0.841,0.947l0,52.946c7.656-7.54,12.135-16.655,12.135-26.473
				C12.976,17.602,8.497,8.488,0.841,0.947z"/>
			
				<linearGradient id="SVGID_00000093172891979788909880000008943422520721414787_" gradientUnits="userSpaceOnUse" x1="12.9758" y1="27.4204" x2="23.3413" y2="27.4204">
				<stop  offset="0" style="stop-color:#FFC1E5"/>
				<stop  offset="0.0919" style="stop-color:#FFBEDC"/>
				<stop  offset="0.2418" style="stop-color:#FFB4C4"/>
				<stop  offset="0.4312" style="stop-color:#FFA59C"/>
				<stop  offset="0.6525" style="stop-color:#FF9065"/>
				<stop  offset="0.898" style="stop-color:#FF761F"/>
				<stop  offset="1" style="stop-color:#FF6A00"/>
			</linearGradient>
			<path style="fill:url(#SVGID_00000093172891979788909880000008943422520721414787_);" d="M12.976,5.775l0,43.292
				c6.539-6.165,10.366-13.618,10.366-21.646C23.341,19.392,19.515,11.94,12.976,5.775z"/>
			
				<linearGradient id="SVGID_00000091701452780043044940000004441165069616358040_" gradientUnits="userSpaceOnUse" x1="23.3413" y1="27.4204" x2="32.1735" y2="27.4204">
				<stop  offset="0" style="stop-color:#FFC1E5"/>
				<stop  offset="0.0919" style="stop-color:#FFBEDC"/>
				<stop  offset="0.2418" style="stop-color:#FFB4C4"/>
				<stop  offset="0.4312" style="stop-color:#FFA59C"/>
				<stop  offset="0.6525" style="stop-color:#FF9065"/>
				<stop  offset="0.898" style="stop-color:#FF761F"/>
				<stop  offset="1" style="stop-color:#FF6A00"/>
			</linearGradient>
			<path style="fill:url(#SVGID_00000091701452780043044940000004441165069616358040_);" d="M23.341,9.934l0,34.973
				c5.572-4.981,8.832-11.001,8.832-17.487C32.173,20.935,28.913,14.915,23.341,9.934z"/>
			
				<linearGradient id="SVGID_00000021108928174840381800000009083454108261549205_" gradientUnits="userSpaceOnUse" x1="51.2934" y1="27.4204" x2="63.4282" y2="27.4204">
				<stop  offset="0" style="stop-color:#FF6A00"/>
				<stop  offset="0.102" style="stop-color:#FF761F"/>
				<stop  offset="0.3475" style="stop-color:#FF9065"/>
				<stop  offset="0.5688" style="stop-color:#FFA59C"/>
				<stop  offset="0.7582" style="stop-color:#FFB4C4"/>
				<stop  offset="0.9081" style="stop-color:#FFBEDC"/>
				<stop  offset="1" style="stop-color:#FFC1E5"/>
			</linearGradient>
			<path style="fill:url(#SVGID_00000021108928174840381800000009083454108261549205_);" d="M63.428,53.893l0-52.946
				c-7.656,7.54-12.135,16.655-12.135,26.473C51.293,37.239,55.773,46.353,63.428,53.893z"/>
			
				<linearGradient id="SVGID_00000123428427953167028250000011400994876425366186_" gradientUnits="userSpaceOnUse" x1="40.912" y1="27.4204" x2="51.2775" y2="27.4204">
				<stop  offset="0" style="stop-color:#FF6A00"/>
				<stop  offset="0.102" style="stop-color:#FF761F"/>
				<stop  offset="0.3475" style="stop-color:#FF9065"/>
				<stop  offset="0.5688" style="stop-color:#FFA59C"/>
				<stop  offset="0.7582" style="stop-color:#FFB4C4"/>
				<stop  offset="0.9081" style="stop-color:#FFBEDC"/>
				<stop  offset="1" style="stop-color:#FFC1E5"/>
			</linearGradient>
			<path style="fill:url(#SVGID_00000123428427953167028250000011400994876425366186_);" d="M51.278,49.066V5.775
				C44.738,11.94,40.912,19.392,40.912,27.42C40.912,35.449,44.738,42.901,51.278,49.066z"/>
			
				<linearGradient id="SVGID_00000016778545702942297980000008432911389696210104_" gradientUnits="userSpaceOnUse" x1="32.064" y1="27.4204" x2="40.8961" y2="27.4204">
				<stop  offset="0" style="stop-color:#FF6A00"/>
				<stop  offset="0.102" style="stop-color:#FF761F"/>
				<stop  offset="0.3475" style="stop-color:#FF9065"/>
				<stop  offset="0.5688" style="stop-color:#FFA59C"/>
				<stop  offset="0.7582" style="stop-color:#FFB4C4"/>
				<stop  offset="0.9081" style="stop-color:#FFBEDC"/>
				<stop  offset="1" style="stop-color:#FFC1E5"/>
			</linearGradient>
			<path style="fill:url(#SVGID_00000016778545702942297980000008432911389696210104_);" d="M40.896,44.907V9.934
				c-5.572,4.981-8.832,11.001-8.832,17.487C32.064,33.906,35.324,39.926,40.896,44.907z"/>
		</g>
	</g>
</g>
<g id="Layer_1">
</g>
</svg>
