<?xml version="1.0" encoding="iso-8859-1"?>
<!-- Generator: Adobe Illustrator 26.1.0, SVG Export Plug-In . SVG Version: 6.00 Build 0)  -->
<svg version="1.1" xmlns="http://www.w3.org/2000/svg" xmlns:xlink="http://www.w3.org/1999/xlink" x="0px" y="0px"
	 viewBox="0 0 320 57" style="enable-background:new 0 0 320 57;" xml:space="preserve">
<g id="logo-horz-on-black">
	<g>
		<g>
			<path style="fill:#F4F2F0;" d="M108.902,49.553l-12.38-19.909h-9.891v19.909h-5.807V4.885h16.081
				c8.487,0,14.039,4.913,14.039,12.379c0,5.488-3.127,9.7-8.296,11.486l12.89,20.803H108.902z M86.631,24.412h9.636
				c5.488,0,8.742-2.616,8.742-7.147c0-4.53-3.254-7.211-8.742-7.211h-9.636V24.412z"/>
			<path style="fill:#F4F2F0;" d="M144.442,28.942v20.611h-5.36v-5.487c-1.851,3.701-6.062,5.998-10.72,5.998
				c-6.445,0-10.848-3.956-10.848-9.508c0-6.19,5.041-9.572,15.315-10.593l6.253-0.702v-0.639c0-4.402-3.126-7.21-7.849-7.21
				c-4.403,0-7.53,2.616-7.977,6.955l-5.042-0.957c0.958-6.381,6.254-10.529,13.018-10.529
				C139.018,16.881,144.442,21.476,144.442,28.942z M139.081,35.004v-1.531l-6.253,0.701c-6.509,0.702-9.891,2.936-9.891,6.317
				c0,3,2.553,5.105,6.254,5.105C135.444,45.597,139.081,41.45,139.081,35.004z"/>
			<path style="fill:#F4F2F0;" d="M150.436,33.473c0-9.444,5.488-16.592,15.443-16.592c4.275,0,8.487,2.106,10.529,5.105V4.375
				h5.424v45.179h-5.424v-4.658c-1.468,2.936-5.743,5.169-10.465,5.169C155.924,50.064,150.436,42.917,150.436,33.473z
				 M176.919,33.473c0-7.084-4.148-11.742-10.465-11.742s-10.465,4.658-10.465,11.742c0,7.083,4.148,11.741,10.465,11.741
				S176.919,40.556,176.919,33.473z"/>
			<path style="fill:#F4F2F0;" d="M188.593,7.565c0-2.17,1.595-3.829,3.765-3.829c2.233,0,3.893,1.659,3.893,3.829
				c0,2.105-1.659,3.765-3.893,3.765C190.188,11.33,188.593,9.671,188.593,7.565z M189.677,17.392h5.424v32.161h-5.424V17.392z"/>
			<path style="fill:#F4F2F0;" d="M201.098,33.473c0-9.636,6.764-16.592,16.336-16.592c9.508,0,16.399,6.956,16.399,16.592
				s-6.892,16.591-16.399,16.591C207.862,50.064,201.098,43.109,201.098,33.473z M228.218,33.473
				c0-6.893-4.339-11.742-10.784-11.742c-6.445,0-10.785,4.85-10.785,11.742c0,6.892,4.339,11.741,10.785,11.741
				C223.879,45.214,228.218,40.365,228.218,33.473z"/>
			<path style="fill:#F4F2F0;" d="M239.828,4.375h5.424v45.179h-5.424V4.375z"/>
			<path style="fill:#F4F2F0;" d="M278.305,28.942v20.611h-5.36v-5.487c-1.851,3.701-6.062,5.998-10.72,5.998
				c-6.445,0-10.848-3.956-10.848-9.508c0-6.19,5.041-9.572,15.315-10.593l6.253-0.702v-0.639c0-4.402-3.126-7.21-7.849-7.21
				c-4.403,0-7.53,2.616-7.977,6.955l-5.041-0.957c0.958-6.381,6.254-10.529,13.018-10.529
				C272.882,16.881,278.305,21.476,278.305,28.942z M272.945,35.004v-1.531l-6.253,0.701c-6.509,0.702-9.891,2.936-9.891,6.317
				c0,3,2.553,5.105,6.254,5.105C269.308,45.597,272.945,41.45,272.945,35.004z"/>
			<path style="fill:#F4F2F0;" d="M291.575,44.895v4.658h-5.424V4.375h5.424v17.612c2.042-2.999,6.253-5.105,10.529-5.105
				c9.955,0,15.443,7.147,15.443,16.592c0,9.443-5.488,16.591-15.506,16.591C297.318,50.064,293.043,47.831,291.575,44.895z
				 M311.995,33.473c0-7.084-4.148-11.742-10.465-11.742s-10.401,4.658-10.401,11.742c0,7.083,4.084,11.741,10.401,11.741
				S311.995,40.556,311.995,33.473z"/>
		</g>
		<g>
			<linearGradient id="SVGID_1_" gradientUnits="userSpaceOnUse" x1="0.8625" y1="27.4204" x2="12.9087" y2="27.4204">
				<stop  offset="0" style="stop-color:#BCC0CE"/>
				<stop  offset="0.1333" style="stop-color:#B4B7C5"/>
				<stop  offset="0.3508" style="stop-color:#9DA0AD"/>
				<stop  offset="0.6253" style="stop-color:#777A85"/>
				<stop  offset="0.9433" style="stop-color:#44464F"/>
				<stop  offset="1" style="stop-color:#3A3C44"/>
			</linearGradient>
			<path style="fill:url(#SVGID_1_);" d="M0.862,1.141l0,52.56c7.6-7.485,12.046-16.533,12.046-26.28
				C12.909,17.674,8.462,8.626,0.862,1.141z"/>
			
				<linearGradient id="SVGID_00000137101449888078438000000017965067854168439940_" gradientUnits="userSpaceOnUse" x1="12.9087" y1="27.4204" x2="23.1986" y2="27.4204">
				<stop  offset="0" style="stop-color:#BCC0CE"/>
				<stop  offset="0.1333" style="stop-color:#B4B7C5"/>
				<stop  offset="0.3508" style="stop-color:#9DA0AD"/>
				<stop  offset="0.6253" style="stop-color:#777A85"/>
				<stop  offset="0.9433" style="stop-color:#44464F"/>
				<stop  offset="1" style="stop-color:#3A3C44"/>
			</linearGradient>
			<path style="fill:url(#SVGID_00000137101449888078438000000017965067854168439940_);" d="M12.909,5.933l0,42.976
				c6.492-6.12,10.29-13.518,10.29-21.488C23.199,19.451,19.4,12.053,12.909,5.933z"/>
			
				<linearGradient id="SVGID_00000167375345785783784370000014363853148654747795_" gradientUnits="userSpaceOnUse" x1="23.1986" y1="27.4204" x2="31.9662" y2="27.4204">
				<stop  offset="0" style="stop-color:#BCC0CE"/>
				<stop  offset="0.1392" style="stop-color:#B7BAC8"/>
				<stop  offset="0.3214" style="stop-color:#A7ABB8"/>
				<stop  offset="0.5273" style="stop-color:#8E919D"/>
				<stop  offset="0.7509" style="stop-color:#6A6D77"/>
				<stop  offset="0.9862" style="stop-color:#3D3F47"/>
				<stop  offset="1" style="stop-color:#3A3C44"/>
			</linearGradient>
			<path style="fill:url(#SVGID_00000167375345785783784370000014363853148654747795_);" d="M23.199,10.061l0,34.718
				c5.531-4.944,8.768-10.921,8.768-17.359C31.966,20.982,28.73,15.006,23.199,10.061z"/>
			
				<linearGradient id="SVGID_00000093143062229293877320000010044695596454061493_" gradientUnits="userSpaceOnUse" x1="50.9466" y1="27.4204" x2="62.9928" y2="27.4204">
				<stop  offset="0" style="stop-color:#3A3C44"/>
				<stop  offset="0.0567" style="stop-color:#44464F"/>
				<stop  offset="0.3747" style="stop-color:#777A85"/>
				<stop  offset="0.6492" style="stop-color:#9DA0AD"/>
				<stop  offset="0.8667" style="stop-color:#B4B7C5"/>
				<stop  offset="1" style="stop-color:#BCC0CE"/>
			</linearGradient>
			<path style="fill:url(#SVGID_00000093143062229293877320000010044695596454061493_);" d="M62.993,53.7V1.141
				c-7.6,7.485-12.046,16.533-12.046,26.28C50.947,37.167,55.393,46.215,62.993,53.7z"/>
			
				<linearGradient id="SVGID_00000031187548762172393560000010095070071036729526_" gradientUnits="userSpaceOnUse" x1="40.641" y1="27.4204" x2="50.9309" y2="27.4204">
				<stop  offset="0" style="stop-color:#3A3C44"/>
				<stop  offset="0.0567" style="stop-color:#44464F"/>
				<stop  offset="0.3747" style="stop-color:#777A85"/>
				<stop  offset="0.6492" style="stop-color:#9DA0AD"/>
				<stop  offset="0.8667" style="stop-color:#B4B7C5"/>
				<stop  offset="1" style="stop-color:#BCC0CE"/>
			</linearGradient>
			<path style="fill:url(#SVGID_00000031187548762172393560000010095070071036729526_);" d="M50.931,48.908V5.933
				c-6.492,6.12-10.29,13.518-10.29,21.488C40.641,35.39,44.439,42.788,50.931,48.908z"/>
			
				<linearGradient id="SVGID_00000101786630713715426710000000737075177378291879_" gradientUnits="userSpaceOnUse" x1="31.8576" y1="27.4204" x2="40.6252" y2="27.4204">
				<stop  offset="0" style="stop-color:#3A3C44"/>
				<stop  offset="0.0138" style="stop-color:#3D3F47"/>
				<stop  offset="0.2491" style="stop-color:#6A6D77"/>
				<stop  offset="0.4727" style="stop-color:#8E919D"/>
				<stop  offset="0.6786" style="stop-color:#A7ABB8"/>
				<stop  offset="0.8608" style="stop-color:#B7BAC8"/>
				<stop  offset="1" style="stop-color:#BCC0CE"/>
			</linearGradient>
			<path style="fill:url(#SVGID_00000101786630713715426710000000737075177378291879_);" d="M40.625,44.779V10.061
				c-5.531,4.944-8.768,10.921-8.768,17.359C31.858,33.859,35.094,39.835,40.625,44.779z"/>
		</g>
	</g>
</g>
<g id="Layer_1">
</g>
</svg>
