<?xml version="1.0" encoding="iso-8859-1"?>
<!-- Generator: Adobe Illustrator 26.1.0, SVG Export Plug-In . SVG Version: 6.00 Build 0)  -->
<svg version="1.1" xmlns="http://www.w3.org/2000/svg" xmlns:xlink="http://www.w3.org/1999/xlink" x="0px" y="0px"
	 viewBox="0 0 252 170" style="enable-background:new 0 0 252 170;" xml:space="preserve">
<g id="logo-vert-on-orange">
	<g>
		<g>
			<g>
				<g>
					<g>
						<path style="fill:#F4F2F0;" d="M32.501,166.592l-12.818-20.614H9.443v20.614H3.43v-46.249H20.08
							c8.788,0,14.536,5.087,14.536,12.817c0,5.682-3.237,10.043-8.59,11.893l13.347,21.539H32.501z M9.443,140.56h9.977
							c5.682,0,9.052-2.708,9.052-7.399s-3.37-7.466-9.052-7.466H9.443V140.56z"/>
						<path style="fill:#F4F2F0;" d="M69.306,145.251v21.341h-5.55v-5.682c-1.916,3.832-6.276,6.21-11.1,6.21
							c-6.673,0-11.231-4.096-11.231-9.845c0-6.408,5.219-9.91,15.856-10.967l6.475-0.728v-0.66c0-4.56-3.237-7.466-8.126-7.466
							c-4.56,0-7.797,2.709-8.259,7.201l-5.22-0.991c0.991-6.606,6.475-10.901,13.479-10.901
							C63.691,132.764,69.306,137.52,69.306,145.251z M63.756,151.527v-1.585l-6.475,0.727c-6.739,0.727-10.241,3.039-10.241,6.541
							c0,3.105,2.644,5.285,6.476,5.285C59.991,162.495,63.756,158.201,63.756,151.527z"/>
						<path style="fill:#F4F2F0;" d="M75.52,149.942c0-9.778,5.683-17.179,15.989-17.179c4.427,0,8.787,2.181,10.901,5.285v-18.235
							h5.616v46.778h-5.616v-4.823c-1.52,3.039-5.946,5.352-10.835,5.352C81.203,167.12,75.52,159.721,75.52,149.942z
							 M102.94,149.942c0-7.334-4.295-12.157-10.836-12.157s-10.836,4.823-10.836,12.157c0,7.333,4.295,12.156,10.836,12.156
							S102.94,157.275,102.94,149.942z"/>
						<path style="fill:#F4F2F0;" d="M115.034,123.117c0-2.246,1.652-3.964,3.898-3.964c2.312,0,4.03,1.718,4.03,3.964
							c0,2.181-1.718,3.898-4.03,3.898C116.686,127.016,115.034,125.298,115.034,123.117z M116.157,133.292h5.616v33.3h-5.616
							V133.292z"/>
						<path style="fill:#F4F2F0;" d="M127.984,149.942c0-9.977,7.004-17.179,16.914-17.179c9.845,0,16.98,7.202,16.98,17.179
							s-7.136,17.178-16.98,17.178C134.988,167.12,127.984,159.919,127.984,149.942z M156.064,149.942
							c0-7.136-4.492-12.157-11.166-12.157c-6.673,0-11.166,5.021-11.166,12.157s4.493,12.156,11.166,12.156
							C151.572,162.099,156.064,157.078,156.064,149.942z"/>
						<path style="fill:#F4F2F0;" d="M168.092,119.813h5.616v46.778h-5.616V119.813z"/>
						<path style="fill:#F4F2F0;" d="M207.933,145.251v21.341h-5.55v-5.682c-1.916,3.832-6.276,6.21-11.1,6.21
							c-6.673,0-11.231-4.096-11.231-9.845c0-6.408,5.219-9.91,15.856-10.967l6.475-0.728v-0.66c0-4.56-3.237-7.466-8.126-7.466
							c-4.56,0-7.797,2.709-8.259,7.201l-5.22-0.991c0.991-6.606,6.475-10.901,13.479-10.901
							C202.318,132.764,207.933,137.52,207.933,145.251z M202.383,151.527v-1.585l-6.475,0.727
							c-6.739,0.727-10.241,3.039-10.241,6.541c0,3.105,2.644,5.285,6.476,5.285C198.618,162.495,202.383,158.201,202.383,151.527z"
							/>
						<path style="fill:#F4F2F0;" d="M221.679,161.768v4.823h-5.616v-46.778h5.616v18.235c2.114-3.104,6.475-5.285,10.901-5.285
							c10.308,0,15.989,7.4,15.989,17.179s-5.682,17.178-16.055,17.178C227.625,167.12,223.199,164.808,221.679,161.768z
							 M242.822,149.942c0-7.334-4.295-12.157-10.836-12.157s-10.77,4.823-10.77,12.157c0,7.333,4.229,12.156,10.77,12.156
							S242.822,157.275,242.822,149.942z"/>
					</g>
				</g>
			</g>
		</g>
		<g>
			<linearGradient id="SVGID_1_" gradientUnits="userSpaceOnUse" x1="61.7426" y1="54.9311" x2="85.602" y2="54.9311">
				<stop  offset="0" style="stop-color:#90D8FC"/>
				<stop  offset="1" style="stop-color:#FFC1E5"/>
			</linearGradient>
			<path style="fill:url(#SVGID_1_);" d="M61.743,2.88l0,104.102c15.052-14.826,23.859-32.746,23.859-52.051
				C85.602,35.626,76.795,17.706,61.743,2.88z"/>
			
				<linearGradient id="SVGID_00000044137308223841606740000000332540294932496775_" gradientUnits="userSpaceOnUse" x1="85.602" y1="54.9311" x2="105.9828" y2="54.9311">
				<stop  offset="0" style="stop-color:#90D8FC"/>
				<stop  offset="1" style="stop-color:#FFC1E5"/>
			</linearGradient>
			<path style="fill:url(#SVGID_00000044137308223841606740000000332540294932496775_);" d="M85.602,12.371l0,85.12
				c12.858-12.122,20.381-26.775,20.381-42.56C105.983,39.146,98.46,24.494,85.602,12.371z"/>
			
				<linearGradient id="SVGID_00000162338383154769126130000016823630248172565640_" gradientUnits="userSpaceOnUse" x1="105.9828" y1="54.9311" x2="123.3485" y2="54.9311">
				<stop  offset="0" style="stop-color:#90D8FC"/>
				<stop  offset="1" style="stop-color:#FFC1E5"/>
			</linearGradient>
			<path style="fill:url(#SVGID_00000162338383154769126130000016823630248172565640_);" d="M105.983,20.549l0,68.765
				c10.956-9.793,17.366-21.63,17.366-34.382C123.348,42.179,116.938,30.342,105.983,20.549z"/>
			
				<linearGradient id="SVGID_00000051346645748793256940000003978661462986375101_" gradientUnits="userSpaceOnUse" x1="160.942" y1="54.9311" x2="184.8014" y2="54.9311">
				<stop  offset="0" style="stop-color:#FFC1E5"/>
				<stop  offset="1" style="stop-color:#90D8FC"/>
			</linearGradient>
			<path style="fill:url(#SVGID_00000051346645748793256940000003978661462986375101_);" d="M184.801,106.982l0-104.102
				c-15.052,14.826-23.859,32.746-23.859,52.051C160.942,74.236,169.749,92.156,184.801,106.982z"/>
			
				<linearGradient id="SVGID_00000139270700621772417120000012076669162548255389_" gradientUnits="userSpaceOnUse" x1="140.5301" y1="54.9311" x2="160.9108" y2="54.9311">
				<stop  offset="0" style="stop-color:#FFC1E5"/>
				<stop  offset="1" style="stop-color:#90D8FC"/>
			</linearGradient>
			<path style="fill:url(#SVGID_00000139270700621772417120000012076669162548255389_);" d="M160.911,97.491l0-85.12
				c-12.858,12.122-20.381,26.775-20.381,42.56C140.53,70.716,148.053,85.369,160.911,97.491z"/>
			
				<linearGradient id="SVGID_00000111184625352636571080000000520037347840259231_" gradientUnits="userSpaceOnUse" x1="123.1332" y1="54.9311" x2="140.4989" y2="54.9311">
				<stop  offset="0" style="stop-color:#FFC1E5"/>
				<stop  offset="1" style="stop-color:#90D8FC"/>
			</linearGradient>
			<path style="fill:url(#SVGID_00000111184625352636571080000000520037347840259231_);" d="M140.499,89.313V20.549
				c-10.956,9.793-17.366,21.63-17.366,34.382C123.133,67.683,129.543,79.52,140.499,89.313z"/>
		</g>
	</g>
</g>
<g id="Layer_1">
</g>
</svg>
