<?xml version="1.0" encoding="iso-8859-1"?>
<!-- Generator: Adobe Illustrator 26.1.0, SVG Export Plug-In . SVG Version: 6.00 Build 0)  -->
<svg version="1.1" xmlns="http://www.w3.org/2000/svg" xmlns:xlink="http://www.w3.org/1999/xlink" x="0px" y="0px"
	 viewBox="0 0 320 57" style="enable-background:new 0 0 320 57;" xml:space="preserve">
<g id="logo-horz-on-pink">
	<g>
		<g>
			<path style="fill:#FF3500;" d="M108.903,49.559L96.524,29.65h-9.892v19.909h-5.807V4.89h16.081
				c8.486,0,14.038,4.914,14.038,12.38c0,5.488-3.127,9.699-8.295,11.486l12.89,20.803H108.903z M86.632,24.417h9.636
				c5.488,0,8.742-2.617,8.742-7.147s-3.254-7.211-8.742-7.211h-9.636V24.417z"/>
			<path style="fill:#FF3500;" d="M144.443,28.948v20.611h-5.359v-5.488c-1.851,3.701-6.062,5.999-10.721,5.999
				c-6.445,0-10.849-3.957-10.849-9.508c0-6.19,5.042-9.572,15.315-10.594l6.254-0.701v-0.639c0-4.402-3.127-7.211-7.85-7.211
				c-4.402,0-7.529,2.616-7.977,6.956l-5.041-0.957c0.957-6.382,6.254-10.529,13.018-10.529
				C139.019,16.887,144.443,21.482,144.443,28.948z M139.084,35.01v-1.532l-6.254,0.702c-6.509,0.702-9.891,2.936-9.891,6.317
				c0,2.999,2.552,5.105,6.253,5.105C135.446,45.603,139.084,41.454,139.084,35.01z"/>
			<path style="fill:#FF3500;" d="M150.439,33.478c0-9.444,5.487-16.591,15.442-16.591c4.275,0,8.487,2.105,10.529,5.105V4.38h5.424
				v45.179h-5.424v-4.658c-1.468,2.936-5.743,5.169-10.466,5.169C155.926,50.07,150.439,42.922,150.439,33.478z M176.92,33.478
				c0-7.083-4.147-11.741-10.465-11.741s-10.465,4.658-10.465,11.741c0,7.084,4.147,11.742,10.465,11.742
				S176.92,40.562,176.92,33.478z"/>
			<path style="fill:#FF3500;" d="M188.595,7.571c0-2.17,1.595-3.829,3.765-3.829c2.233,0,3.893,1.659,3.893,3.829
				c0,2.105-1.659,3.765-3.893,3.765C190.19,11.335,188.595,9.676,188.595,7.571z M189.68,17.398h5.424v32.161h-5.424V17.398z"/>
			<path style="fill:#FF3500;" d="M201.101,33.478c0-9.636,6.764-16.591,16.336-16.591c9.508,0,16.399,6.955,16.399,16.591
				s-6.892,16.592-16.399,16.592C207.865,50.07,201.101,43.114,201.101,33.478z M228.221,33.478c0-6.892-4.34-11.741-10.784-11.741
				c-6.445,0-10.784,4.85-10.784,11.741s4.339,11.742,10.784,11.742C223.881,45.22,228.221,40.369,228.221,33.478z"/>
			<path style="fill:#FF3500;" d="M239.832,4.38h5.424v45.179h-5.424V4.38z"/>
			<path style="fill:#FF3500;" d="M278.308,28.948v20.611h-5.359v-5.488c-1.851,3.701-6.062,5.999-10.721,5.999
				c-6.445,0-10.849-3.957-10.849-9.508c0-6.19,5.042-9.572,15.315-10.594l6.254-0.701v-0.639c0-4.402-3.127-7.211-7.85-7.211
				c-4.402,0-7.529,2.616-7.977,6.956l-5.041-0.957c0.957-6.382,6.254-10.529,13.018-10.529
				C272.884,16.887,278.308,21.482,278.308,28.948z M272.949,35.01v-1.532l-6.254,0.702c-6.509,0.702-9.891,2.936-9.891,6.317
				c0,2.999,2.552,5.105,6.253,5.105C269.311,45.603,272.949,41.454,272.949,35.01z"/>
			<path style="fill:#FF3500;" d="M291.579,44.901v4.658h-5.424V4.38h5.424v17.612c2.042-3,6.254-5.105,10.529-5.105
				c9.954,0,15.442,7.146,15.442,16.591s-5.488,16.592-15.507,16.592C297.322,50.07,293.046,47.836,291.579,44.901z M311.999,33.478
				c0-7.083-4.147-11.741-10.465-11.741s-10.401,4.658-10.401,11.741c0,7.084,4.084,11.742,10.401,11.742
				S311.999,40.562,311.999,33.478z"/>
		</g>
		<g>
			<linearGradient id="SVGID_1_" gradientUnits="userSpaceOnUse" x1="0.8587" y1="27.4204" x2="12.9049" y2="27.4204">
				<stop  offset="0" style="stop-color:#FF3500"/>
				<stop  offset="0.1379" style="stop-color:#FF441C"/>
				<stop  offset="0.4284" style="stop-color:#FF6053"/>
				<stop  offset="0.6794" style="stop-color:#FF747B"/>
				<stop  offset="0.8781" style="stop-color:#FF8093"/>
				<stop  offset="1" style="stop-color:#FF859C"/>
			</linearGradient>
			<path style="fill:url(#SVGID_1_);" d="M0.859,1.141l0,52.56c7.6-7.485,12.046-16.533,12.046-26.28
				C12.905,17.674,8.458,8.626,0.859,1.141z"/>
			
				<linearGradient id="SVGID_00000007413238520817250670000008991065489781070472_" gradientUnits="userSpaceOnUse" x1="12.9049" y1="27.4204" x2="23.1948" y2="27.4204">
				<stop  offset="0" style="stop-color:#FF3500"/>
				<stop  offset="0.1379" style="stop-color:#FF441C"/>
				<stop  offset="0.4284" style="stop-color:#FF6053"/>
				<stop  offset="0.6794" style="stop-color:#FF747B"/>
				<stop  offset="0.8781" style="stop-color:#FF8093"/>
				<stop  offset="1" style="stop-color:#FF859C"/>
			</linearGradient>
			<path style="fill:url(#SVGID_00000007413238520817250670000008991065489781070472_);" d="M12.905,5.933l0,42.976
				c6.492-6.12,10.29-13.518,10.29-21.488C23.195,19.451,19.397,12.053,12.905,5.933z"/>
			
				<linearGradient id="SVGID_00000098189702259083021680000006773379381286005148_" gradientUnits="userSpaceOnUse" x1="23.1948" y1="27.4204" x2="31.9625" y2="27.4204">
				<stop  offset="0" style="stop-color:#FF3500"/>
				<stop  offset="0.1379" style="stop-color:#FF441C"/>
				<stop  offset="0.4284" style="stop-color:#FF6053"/>
				<stop  offset="0.6794" style="stop-color:#FF747B"/>
				<stop  offset="0.8781" style="stop-color:#FF8093"/>
				<stop  offset="1" style="stop-color:#FF859C"/>
			</linearGradient>
			<path style="fill:url(#SVGID_00000098189702259083021680000006773379381286005148_);" d="M23.195,10.061l0,34.718
				c5.531-4.944,8.768-10.921,8.768-17.359C31.962,20.982,28.726,15.006,23.195,10.061z"/>
			
				<linearGradient id="SVGID_00000176745309950014763510000009908502330715947964_" gradientUnits="userSpaceOnUse" x1="50.9429" y1="27.4204" x2="62.9891" y2="27.4204">
				<stop  offset="0" style="stop-color:#FF859C"/>
				<stop  offset="0.1219" style="stop-color:#FF8093"/>
				<stop  offset="0.3206" style="stop-color:#FF747B"/>
				<stop  offset="0.5716" style="stop-color:#FF6053"/>
				<stop  offset="0.8621" style="stop-color:#FF441C"/>
				<stop  offset="1" style="stop-color:#FF3500"/>
			</linearGradient>
			<path style="fill:url(#SVGID_00000176745309950014763510000009908502330715947964_);" d="M62.989,53.7l0-52.56
				c-7.6,7.485-12.046,16.533-12.046,26.28C50.943,37.167,55.389,46.215,62.989,53.7z"/>
			
				<linearGradient id="SVGID_00000173141847350652032200000013810655056990685826_" gradientUnits="userSpaceOnUse" x1="40.6372" y1="27.4204" x2="50.9271" y2="27.4204">
				<stop  offset="0" style="stop-color:#FF859C"/>
				<stop  offset="0.1219" style="stop-color:#FF8093"/>
				<stop  offset="0.3206" style="stop-color:#FF747B"/>
				<stop  offset="0.5716" style="stop-color:#FF6053"/>
				<stop  offset="0.8621" style="stop-color:#FF441C"/>
				<stop  offset="1" style="stop-color:#FF3500"/>
			</linearGradient>
			<path style="fill:url(#SVGID_00000173141847350652032200000013810655056990685826_);" d="M50.927,48.908V5.933
				c-6.492,6.12-10.29,13.518-10.29,21.488C40.637,35.39,44.435,42.788,50.927,48.908z"/>
			
				<linearGradient id="SVGID_00000091699687142769451400000003703556007888243105_" gradientUnits="userSpaceOnUse" x1="31.8538" y1="27.4204" x2="40.6214" y2="27.4204">
				<stop  offset="0" style="stop-color:#FF859C"/>
				<stop  offset="0.1219" style="stop-color:#FF8093"/>
				<stop  offset="0.3206" style="stop-color:#FF747B"/>
				<stop  offset="0.5716" style="stop-color:#FF6053"/>
				<stop  offset="0.8621" style="stop-color:#FF441C"/>
				<stop  offset="1" style="stop-color:#FF3500"/>
			</linearGradient>
			<path style="fill:url(#SVGID_00000091699687142769451400000003703556007888243105_);" d="M40.621,44.779V10.061
				c-5.531,4.944-8.768,10.921-8.768,17.359C31.854,33.859,35.09,39.835,40.621,44.779z"/>
		</g>
	</g>
</g>
<g id="Layer_1">
</g>
</svg>
