<?xml version="1.0" encoding="iso-8859-1"?>
<!-- Generator: Adobe Illustrator 26.1.0, SVG Export Plug-In . SVG Version: 6.00 Build 0)  -->
<svg version="1.1" xmlns="http://www.w3.org/2000/svg" xmlns:xlink="http://www.w3.org/1999/xlink" x="0px" y="0px"
	 viewBox="0 0 320 57" style="enable-background:new 0 0 320 57;" xml:space="preserve">
<g id="logo-horz-on-orange">
	<g>
		<g>
			<path style="fill:#F4F2F0;" d="M108.904,49.559L96.526,29.65h-9.892v19.909h-5.807V4.89h16.081
				c8.486,0,14.038,4.914,14.038,12.38c0,5.488-3.127,9.699-8.295,11.486l12.89,20.803H108.904z M86.634,24.417h9.636
				c5.488,0,8.742-2.617,8.742-7.147s-3.254-7.211-8.742-7.211h-9.636V24.417z"/>
			<path style="fill:#F4F2F0;" d="M144.444,28.948v20.611h-5.359v-5.488c-1.851,3.701-6.062,5.999-10.721,5.999
				c-6.445,0-10.849-3.957-10.849-9.508c0-6.19,5.042-9.572,15.315-10.594l6.254-0.701v-0.639c0-4.402-3.127-7.211-7.85-7.211
				c-4.402,0-7.529,2.616-7.977,6.956l-5.041-0.957c0.957-6.382,6.254-10.529,13.018-10.529
				C139.021,16.887,144.444,21.482,144.444,28.948z M139.085,35.01v-1.532l-6.254,0.702c-6.509,0.702-9.891,2.936-9.891,6.317
				c0,2.999,2.552,5.105,6.253,5.105C135.447,45.603,139.085,41.454,139.085,35.01z"/>
			<path style="fill:#F4F2F0;" d="M150.441,33.478c0-9.444,5.487-16.591,15.442-16.591c4.275,0,8.487,2.105,10.529,5.105V4.38h5.424
				v45.179h-5.424v-4.658c-1.468,2.936-5.743,5.169-10.466,5.169C155.928,50.07,150.441,42.922,150.441,33.478z M176.922,33.478
				c0-7.083-4.147-11.741-10.465-11.741s-10.465,4.658-10.465,11.741c0,7.084,4.147,11.742,10.465,11.742
				S176.922,40.562,176.922,33.478z"/>
			<path style="fill:#F4F2F0;" d="M188.597,7.571c0-2.17,1.595-3.829,3.765-3.829c2.233,0,3.893,1.659,3.893,3.829
				c0,2.105-1.659,3.765-3.893,3.765C190.192,11.335,188.597,9.676,188.597,7.571z M189.682,17.398h5.424v32.161h-5.424V17.398z"/>
			<path style="fill:#F4F2F0;" d="M201.103,33.478c0-9.636,6.764-16.591,16.336-16.591c9.508,0,16.399,6.955,16.399,16.591
				s-6.892,16.592-16.399,16.592C207.866,50.07,201.103,43.114,201.103,33.478z M228.223,33.478c0-6.892-4.34-11.741-10.784-11.741
				c-6.445,0-10.784,4.85-10.784,11.741s4.339,11.742,10.784,11.742C223.883,45.22,228.223,40.369,228.223,33.478z"/>
			<path style="fill:#F4F2F0;" d="M239.833,4.38h5.424v45.179h-5.424V4.38z"/>
			<path style="fill:#F4F2F0;" d="M278.31,28.948v20.611h-5.359v-5.488c-1.851,3.701-6.062,5.999-10.721,5.999
				c-6.445,0-10.849-3.957-10.849-9.508c0-6.19,5.042-9.572,15.315-10.594l6.254-0.701v-0.639c0-4.402-3.127-7.211-7.85-7.211
				c-4.402,0-7.529,2.616-7.977,6.956l-5.041-0.957c0.957-6.382,6.254-10.529,13.018-10.529
				C272.886,16.887,278.31,21.482,278.31,28.948z M272.95,35.01v-1.532l-6.254,0.702c-6.509,0.702-9.891,2.936-9.891,6.317
				c0,2.999,2.552,5.105,6.253,5.105C269.313,45.603,272.95,41.454,272.95,35.01z"/>
			<path style="fill:#F4F2F0;" d="M291.58,44.901v4.658h-5.424V4.38h5.424v17.612c2.042-3,6.254-5.105,10.529-5.105
				c9.954,0,15.442,7.146,15.442,16.591s-5.488,16.592-15.507,16.592C297.323,50.07,293.048,47.836,291.58,44.901z M312,33.478
				c0-7.083-4.147-11.741-10.465-11.741s-10.401,4.658-10.401,11.741c0,7.084,4.084,11.742,10.401,11.742S312,40.562,312,33.478z"/>
		</g>
		<g>
			<linearGradient id="SVGID_1_" gradientUnits="userSpaceOnUse" x1="0.8571" y1="27.4204" x2="12.9033" y2="27.4204">
				<stop  offset="0" style="stop-color:#90D8FC"/>
				<stop  offset="0.0888" style="stop-color:#94D7F3"/>
				<stop  offset="0.2336" style="stop-color:#9ED4DB"/>
				<stop  offset="0.4165" style="stop-color:#AFCEB3"/>
				<stop  offset="0.6305" style="stop-color:#C6C77C"/>
				<stop  offset="0.8675" style="stop-color:#E3BE36"/>
				<stop  offset="1" style="stop-color:#F5B80C"/>
			</linearGradient>
			<path style="fill:url(#SVGID_1_);" d="M0.857,1.141l0,52.56c7.6-7.485,12.046-16.533,12.046-26.28
				C12.903,17.674,8.457,8.626,0.857,1.141z"/>
			
				<linearGradient id="SVGID_00000070105847802663367460000000081190362905997704_" gradientUnits="userSpaceOnUse" x1="12.9033" y1="27.4204" x2="23.1933" y2="27.4204">
				<stop  offset="0" style="stop-color:#90D8FC"/>
				<stop  offset="0.0888" style="stop-color:#94D7F3"/>
				<stop  offset="0.2336" style="stop-color:#9ED4DB"/>
				<stop  offset="0.4165" style="stop-color:#AFCEB3"/>
				<stop  offset="0.6305" style="stop-color:#C6C77C"/>
				<stop  offset="0.8675" style="stop-color:#E3BE36"/>
				<stop  offset="1" style="stop-color:#F5B80C"/>
			</linearGradient>
			<path style="fill:url(#SVGID_00000070105847802663367460000000081190362905997704_);" d="M12.903,5.933l0,42.976
				c6.492-6.12,10.29-13.518,10.29-21.488C23.193,19.451,19.395,12.053,12.903,5.933z"/>
			
				<linearGradient id="SVGID_00000049913041621626407230000013482979855277093297_" gradientUnits="userSpaceOnUse" x1="23.1933" y1="27.4204" x2="31.9609" y2="27.4204">
				<stop  offset="0" style="stop-color:#90D8FC"/>
				<stop  offset="0.0888" style="stop-color:#94D7F3"/>
				<stop  offset="0.2336" style="stop-color:#9ED4DB"/>
				<stop  offset="0.4165" style="stop-color:#AFCEB3"/>
				<stop  offset="0.6305" style="stop-color:#C6C77C"/>
				<stop  offset="0.8675" style="stop-color:#E3BE36"/>
				<stop  offset="1" style="stop-color:#F5B80C"/>
			</linearGradient>
			<path style="fill:url(#SVGID_00000049913041621626407230000013482979855277093297_);" d="M23.193,10.061l0,34.718
				c5.531-4.944,8.768-10.921,8.768-17.359C31.961,20.982,28.725,15.006,23.193,10.061z"/>
			
				<linearGradient id="SVGID_00000038415129395143533720000010576641029790454177_" gradientUnits="userSpaceOnUse" x1="50.9413" y1="27.4204" x2="62.9875" y2="27.4204">
				<stop  offset="0" style="stop-color:#F5B80C"/>
				<stop  offset="0.1325" style="stop-color:#E3BE36"/>
				<stop  offset="0.3695" style="stop-color:#C6C77C"/>
				<stop  offset="0.5835" style="stop-color:#AFCEB3"/>
				<stop  offset="0.7664" style="stop-color:#9ED4DB"/>
				<stop  offset="0.9112" style="stop-color:#94D7F3"/>
				<stop  offset="1" style="stop-color:#90D8FC"/>
			</linearGradient>
			<path style="fill:url(#SVGID_00000038415129395143533720000010576641029790454177_);" d="M62.987,53.7l0-52.56
				c-7.6,7.485-12.046,16.533-12.046,26.28C50.941,37.167,55.388,46.215,62.987,53.7z"/>
			
				<linearGradient id="SVGID_00000179603723395785329540000003441869566437983932_" gradientUnits="userSpaceOnUse" x1="40.6356" y1="27.4204" x2="50.9255" y2="27.4204">
				<stop  offset="0" style="stop-color:#F5B80C"/>
				<stop  offset="0.1325" style="stop-color:#E3BE36"/>
				<stop  offset="0.3695" style="stop-color:#C6C77C"/>
				<stop  offset="0.5835" style="stop-color:#AFCEB3"/>
				<stop  offset="0.7664" style="stop-color:#9ED4DB"/>
				<stop  offset="0.9112" style="stop-color:#94D7F3"/>
				<stop  offset="1" style="stop-color:#90D8FC"/>
			</linearGradient>
			<path style="fill:url(#SVGID_00000179603723395785329540000003441869566437983932_);" d="M50.926,48.908V5.933
				c-6.492,6.12-10.29,13.518-10.29,21.488C40.636,35.39,44.434,42.788,50.926,48.908z"/>
			
				<linearGradient id="SVGID_00000028326457152852148280000016476189716973037215_" gradientUnits="userSpaceOnUse" x1="31.8522" y1="27.4204" x2="40.6199" y2="27.4204">
				<stop  offset="0" style="stop-color:#F5B80C"/>
				<stop  offset="0.1325" style="stop-color:#E3BE36"/>
				<stop  offset="0.3695" style="stop-color:#C6C77C"/>
				<stop  offset="0.5835" style="stop-color:#AFCEB3"/>
				<stop  offset="0.7664" style="stop-color:#9ED4DB"/>
				<stop  offset="0.9112" style="stop-color:#94D7F3"/>
				<stop  offset="1" style="stop-color:#90D8FC"/>
			</linearGradient>
			<path style="fill:url(#SVGID_00000028326457152852148280000016476189716973037215_);" d="M40.62,44.779V10.061
				c-5.531,4.944-8.768,10.921-8.768,17.359C31.852,33.859,35.089,39.835,40.62,44.779z"/>
		</g>
	</g>
</g>
<g id="Layer_1">
</g>
</svg>
