<?xml version="1.0" encoding="iso-8859-1"?>
<!-- Generator: Adobe Illustrator 26.1.0, SVG Export Plug-In . SVG Version: 6.00 Build 0)  -->
<svg version="1.1" xmlns="http://www.w3.org/2000/svg" xmlns:xlink="http://www.w3.org/1999/xlink" x="0px" y="0px"
	 viewBox="0 0 252 170" style="enable-background:new 0 0 252 170;" xml:space="preserve">
<g id="logo-vert-on-blue">
	<g>
		<g>
			<g>
				<g>
					<path style="fill:#F4F2F0;" d="M32.501,166.792l-12.817-20.614H9.443v20.614H3.43v-46.249h16.65
						c8.787,0,14.535,5.087,14.535,12.817c0,5.682-3.237,10.043-8.589,11.893l13.346,21.539H32.501z M9.443,140.759h9.977
						c5.682,0,9.052-2.708,9.052-7.399s-3.37-7.466-9.052-7.466H9.443V140.759z"/>
					<path style="fill:#F4F2F0;" d="M69.307,145.451v21.341h-5.55v-5.682c-1.916,3.832-6.277,6.21-11.101,6.21
						c-6.673,0-11.231-4.096-11.231-9.845c0-6.408,5.22-9.91,15.856-10.967l6.476-0.728v-0.66c0-4.56-3.238-7.466-8.127-7.466
						c-4.559,0-7.797,2.709-8.259,7.201l-5.22-0.991c0.991-6.606,6.475-10.901,13.479-10.901
						C63.691,132.963,69.307,137.72,69.307,145.451z M63.757,151.727v-1.585l-6.476,0.727c-6.739,0.727-10.24,3.039-10.24,6.541
						c0,3.105,2.643,5.285,6.475,5.285C59.991,162.695,63.757,158.401,63.757,151.727z"/>
					<path style="fill:#F4F2F0;" d="M75.52,150.142c0-9.778,5.682-17.179,15.989-17.179c4.427,0,8.787,2.181,10.901,5.285v-18.235
						h5.616v46.778h-5.616v-4.823c-1.52,3.039-5.946,5.352-10.836,5.352C81.202,167.32,75.52,159.92,75.52,150.142z
						 M102.939,150.142c0-7.334-4.294-12.157-10.835-12.157s-10.836,4.823-10.836,12.157c0,7.333,4.295,12.156,10.836,12.156
						S102.939,157.475,102.939,150.142z"/>
					<path style="fill:#F4F2F0;" d="M115.034,123.317c0-2.246,1.652-3.964,3.898-3.964c2.312,0,4.03,1.718,4.03,3.964
						c0,2.181-1.718,3.898-4.03,3.898C116.686,127.215,115.034,125.498,115.034,123.317z M116.158,133.492h5.615v33.3h-5.615
						V133.492z"/>
					<path style="fill:#F4F2F0;" d="M127.985,150.142c0-9.977,7.004-17.179,16.914-17.179c9.845,0,16.98,7.202,16.98,17.179
						s-7.136,17.178-16.98,17.178C134.989,167.32,127.985,160.119,127.985,150.142z M156.065,150.142
						c0-7.136-4.493-12.157-11.166-12.157s-11.166,5.021-11.166,12.157s4.493,12.156,11.166,12.156S156.065,157.278,156.065,150.142
						z"/>
					<path style="fill:#F4F2F0;" d="M168.092,120.013h5.616v46.778h-5.616V120.013z"/>
					<path style="fill:#F4F2F0;" d="M207.934,145.451v21.341h-5.55v-5.682c-1.916,3.832-6.277,6.21-11.101,6.21
						c-6.673,0-11.231-4.096-11.231-9.845c0-6.408,5.22-9.91,15.856-10.967l6.476-0.728v-0.66c0-4.56-3.238-7.466-8.127-7.466
						c-4.559,0-7.797,2.709-8.259,7.201l-5.22-0.991c0.991-6.606,6.475-10.901,13.479-10.901
						C202.318,132.963,207.934,137.72,207.934,145.451z M202.384,151.727v-1.585l-6.476,0.727c-6.739,0.727-10.24,3.039-10.24,6.541
						c0,3.105,2.643,5.285,6.475,5.285C198.618,162.695,202.384,158.401,202.384,151.727z"/>
					<path style="fill:#F4F2F0;" d="M221.679,161.968v4.823h-5.616v-46.778h5.616v18.235c2.114-3.104,6.475-5.285,10.901-5.285
						c10.307,0,15.989,7.4,15.989,17.179s-5.683,17.178-16.056,17.178C227.625,167.32,223.199,165.007,221.679,161.968z
						 M242.822,150.142c0-7.334-4.295-12.157-10.836-12.157s-10.77,4.823-10.77,12.157c0,7.333,4.229,12.156,10.77,12.156
						S242.822,157.475,242.822,150.142z"/>
				</g>
			</g>
		</g>
		<g>
			<linearGradient id="SVGID_1_" gradientUnits="userSpaceOnUse" x1="61.5717" y1="55.1312" x2="85.6144" y2="55.1312">
				<stop  offset="0" style="stop-color:#FFC1E5"/>
				<stop  offset="0.0859" style="stop-color:#F6BDE4"/>
				<stop  offset="0.2261" style="stop-color:#DEB3E3"/>
				<stop  offset="0.4031" style="stop-color:#B6A1E1"/>
				<stop  offset="0.6102" style="stop-color:#7F89DD"/>
				<stop  offset="0.8395" style="stop-color:#396BD9"/>
				<stop  offset="1" style="stop-color:#0454D6"/>
			</linearGradient>
			<path style="fill:url(#SVGID_1_);" d="M61.572,2.68l0,104.902c15.168-14.94,24.043-32.998,24.043-52.451
				C85.614,35.678,76.74,17.62,61.572,2.68z"/>
			
				<linearGradient id="SVGID_00000142139732190281331880000015659146381232340904_" gradientUnits="userSpaceOnUse" x1="85.6144" y1="55.1312" x2="106.1517" y2="55.1312">
				<stop  offset="0" style="stop-color:#FFC1E5"/>
				<stop  offset="0.0859" style="stop-color:#F6BDE4"/>
				<stop  offset="0.2261" style="stop-color:#DEB3E3"/>
				<stop  offset="0.4031" style="stop-color:#B6A1E1"/>
				<stop  offset="0.6102" style="stop-color:#7F89DD"/>
				<stop  offset="0.8395" style="stop-color:#396BD9"/>
				<stop  offset="1" style="stop-color:#0454D6"/>
			</linearGradient>
			<path style="fill:url(#SVGID_00000142139732190281331880000015659146381232340904_);" d="M85.614,12.244l0,85.774
				c12.957-12.216,20.537-26.981,20.537-42.887C106.152,39.225,98.571,24.46,85.614,12.244z"/>
			
				<linearGradient id="SVGID_00000113332566169124677040000010641785271872346766_" gradientUnits="userSpaceOnUse" x1="106.1517" y1="55.1312" x2="123.6508" y2="55.1312">
				<stop  offset="0" style="stop-color:#FFC1E5"/>
				<stop  offset="0.096" style="stop-color:#F9BEE5"/>
				<stop  offset="0.2217" style="stop-color:#E9B7E4"/>
				<stop  offset="0.364" style="stop-color:#CEACE2"/>
				<stop  offset="0.5184" style="stop-color:#A89BE0"/>
				<stop  offset="0.6827" style="stop-color:#7786DD"/>
				<stop  offset="0.8525" style="stop-color:#3D6DD9"/>
				<stop  offset="1" style="stop-color:#0454D6"/>
			</linearGradient>
			<path style="fill:url(#SVGID_00000113332566169124677040000010641785271872346766_);" d="M106.152,20.485l0,69.293
				c11.04-9.868,17.499-21.797,17.499-34.646C123.651,42.281,117.191,30.353,106.152,20.485z"/>
			
				<linearGradient id="SVGID_00000081610381549347055780000015359827314511733902_" gradientUnits="userSpaceOnUse" x1="161.5332" y1="55.1312" x2="185.5758" y2="55.1312">
				<stop  offset="0" style="stop-color:#0454D6"/>
				<stop  offset="0.1605" style="stop-color:#396BD9"/>
				<stop  offset="0.3898" style="stop-color:#7F89DD"/>
				<stop  offset="0.5969" style="stop-color:#B6A1E1"/>
				<stop  offset="0.7739" style="stop-color:#DEB3E3"/>
				<stop  offset="0.9141" style="stop-color:#F6BDE4"/>
				<stop  offset="1" style="stop-color:#FFC1E5"/>
			</linearGradient>
			<path style="fill:url(#SVGID_00000081610381549347055780000015359827314511733902_);" d="M185.576,107.582V2.68
				c-15.168,14.94-24.043,32.998-24.043,52.451C161.533,74.584,170.408,92.642,185.576,107.582z"/>
			
				<linearGradient id="SVGID_00000047018445035178542480000008831306457805842357_" gradientUnits="userSpaceOnUse" x1="140.9644" y1="55.1312" x2="161.5017" y2="55.1312">
				<stop  offset="0" style="stop-color:#0454D6"/>
				<stop  offset="0.1605" style="stop-color:#396BD9"/>
				<stop  offset="0.3898" style="stop-color:#7F89DD"/>
				<stop  offset="0.5969" style="stop-color:#B6A1E1"/>
				<stop  offset="0.7739" style="stop-color:#DEB3E3"/>
				<stop  offset="0.9141" style="stop-color:#F6BDE4"/>
				<stop  offset="1" style="stop-color:#FFC1E5"/>
			</linearGradient>
			<path style="fill:url(#SVGID_00000047018445035178542480000008831306457805842357_);" d="M161.502,98.018V12.244
				c-12.957,12.216-20.537,26.981-20.537,42.887C140.964,71.037,148.545,85.802,161.502,98.018z"/>
			
				<linearGradient id="SVGID_00000057150627368912509370000011687721190619238790_" gradientUnits="userSpaceOnUse" x1="123.4339" y1="55.1312" x2="140.933" y2="55.1312">
				<stop  offset="0" style="stop-color:#0454D6"/>
				<stop  offset="0.1475" style="stop-color:#3D6DD9"/>
				<stop  offset="0.3173" style="stop-color:#7786DD"/>
				<stop  offset="0.4816" style="stop-color:#A89BE0"/>
				<stop  offset="0.636" style="stop-color:#CEACE2"/>
				<stop  offset="0.7783" style="stop-color:#E9B7E4"/>
				<stop  offset="0.904" style="stop-color:#F9BEE5"/>
				<stop  offset="1" style="stop-color:#FFC1E5"/>
			</linearGradient>
			<path style="fill:url(#SVGID_00000057150627368912509370000011687721190619238790_);" d="M140.933,89.778V20.485
				c-11.04,9.868-17.499,21.797-17.499,34.646C123.434,67.981,129.893,79.909,140.933,89.778z"/>
		</g>
	</g>
</g>
<g id="Layer_1">
</g>
</svg>
