<?xml version="1.0" encoding="iso-8859-1"?>
<!-- Generator: Adobe Illustrator 26.1.0, SVG Export Plug-In . SVG Version: 6.00 Build 0)  -->
<svg version="1.1" xmlns="http://www.w3.org/2000/svg" xmlns:xlink="http://www.w3.org/1999/xlink" x="0px" y="0px"
	 viewBox="0 0 320 57" style="enable-background:new 0 0 320 57;" xml:space="preserve">
<g id="logo-horz-on-pink2">
	<g>
		<g>
			<path style="fill:#0454D6;" d="M108.903,49.553L96.524,29.644h-9.892v19.909h-5.807V4.885h16.081
				c8.486,0,14.038,4.913,14.038,12.379c0,5.488-3.127,9.7-8.295,11.486l12.89,20.803H108.903z M86.632,24.412h9.636
				c5.488,0,8.742-2.616,8.742-7.147c0-4.53-3.254-7.211-8.742-7.211h-9.636V24.412z"/>
			<path style="fill:#0454D6;" d="M144.443,28.942v20.611h-5.359v-5.487c-1.851,3.701-6.062,5.998-10.721,5.998
				c-6.445,0-10.849-3.956-10.849-9.508c0-6.19,5.042-9.572,15.315-10.593l6.254-0.702v-0.639c0-4.402-3.127-7.21-7.85-7.21
				c-4.402,0-7.529,2.616-7.977,6.955l-5.041-0.957c0.957-6.381,6.254-10.529,13.018-10.529
				C139.019,16.881,144.443,21.476,144.443,28.942z M139.084,35.004v-1.531l-6.254,0.701c-6.509,0.702-9.891,2.936-9.891,6.317
				c0,3,2.552,5.105,6.253,5.105C135.446,45.597,139.084,41.45,139.084,35.004z"/>
			<path style="fill:#0454D6;" d="M150.439,33.473c0-9.444,5.487-16.592,15.442-16.592c4.275,0,8.487,2.106,10.529,5.105V4.375
				h5.424v45.179h-5.424v-4.658c-1.468,2.936-5.743,5.169-10.466,5.169C155.926,50.064,150.439,42.917,150.439,33.473z
				 M176.92,33.473c0-7.084-4.147-11.742-10.465-11.742s-10.465,4.658-10.465,11.742c0,7.083,4.147,11.741,10.465,11.741
				S176.92,40.556,176.92,33.473z"/>
			<path style="fill:#0454D6;" d="M188.595,7.565c0-2.17,1.595-3.829,3.765-3.829c2.233,0,3.893,1.659,3.893,3.829
				c0,2.105-1.659,3.765-3.893,3.765C190.19,11.33,188.595,9.671,188.595,7.565z M189.68,17.392h5.424v32.161h-5.424V17.392z"/>
			<path style="fill:#0454D6;" d="M201.101,33.473c0-9.636,6.764-16.592,16.336-16.592c9.508,0,16.399,6.956,16.399,16.592
				s-6.892,16.591-16.399,16.591C207.865,50.064,201.101,43.109,201.101,33.473z M228.221,33.473c0-6.893-4.34-11.742-10.784-11.742
				c-6.445,0-10.784,4.85-10.784,11.742c0,6.892,4.339,11.741,10.784,11.741C223.881,45.214,228.221,40.365,228.221,33.473z"/>
			<path style="fill:#0454D6;" d="M239.832,4.375h5.424v45.179h-5.424V4.375z"/>
			<path style="fill:#0454D6;" d="M278.308,28.942v20.611h-5.359v-5.487c-1.851,3.701-6.062,5.998-10.721,5.998
				c-6.445,0-10.849-3.956-10.849-9.508c0-6.19,5.042-9.572,15.315-10.593l6.254-0.702v-0.639c0-4.402-3.127-7.21-7.85-7.21
				c-4.402,0-7.529,2.616-7.977,6.955l-5.041-0.957c0.957-6.381,6.254-10.529,13.018-10.529
				C272.884,16.881,278.308,21.476,278.308,28.942z M272.949,35.004v-1.531l-6.254,0.701c-6.509,0.702-9.891,2.936-9.891,6.317
				c0,3,2.552,5.105,6.253,5.105C269.311,45.597,272.949,41.45,272.949,35.004z"/>
			<path style="fill:#0454D6;" d="M291.579,44.895v4.658h-5.424V4.375h5.424v17.612c2.042-2.999,6.254-5.105,10.529-5.105
				c9.954,0,15.442,7.147,15.442,16.592c0,9.443-5.488,16.591-15.507,16.591C297.322,50.064,293.046,47.831,291.579,44.895z
				 M311.999,33.473c0-7.084-4.147-11.742-10.465-11.742s-10.401,4.658-10.401,11.742c0,7.083,4.084,11.741,10.401,11.741
				S311.999,40.556,311.999,33.473z"/>
		</g>
		<g>
			<linearGradient id="SVGID_1_" gradientUnits="userSpaceOnUse" x1="0.8587" y1="27.4204" x2="12.996" y2="27.4204">
				<stop  offset="0" style="stop-color:#0454D6"/>
				<stop  offset="0.0253" style="stop-color:#0957D7"/>
				<stop  offset="0.354" style="stop-color:#3F77E8"/>
				<stop  offset="0.6376" style="stop-color:#678EF5"/>
				<stop  offset="0.8622" style="stop-color:#7F9DFC"/>
				<stop  offset="1" style="stop-color:#88A2FF"/>
			</linearGradient>
			<path style="fill:url(#SVGID_1_);" d="M0.859,0.942l0,52.957c7.657-7.542,12.137-16.658,12.137-26.478
				C12.996,17.6,8.516,8.484,0.859,0.942z"/>
			
				<linearGradient id="SVGID_00000106850161066288611700000014969861529254440845_" gradientUnits="userSpaceOnUse" x1="12.8865" y1="27.4204" x2="23.2542" y2="27.4204">
				<stop  offset="0" style="stop-color:#0454D6"/>
				<stop  offset="0.0253" style="stop-color:#0957D7"/>
				<stop  offset="0.354" style="stop-color:#3F77E8"/>
				<stop  offset="0.6376" style="stop-color:#678EF5"/>
				<stop  offset="0.8622" style="stop-color:#7F9DFC"/>
				<stop  offset="1" style="stop-color:#88A2FF"/>
			</linearGradient>
			<path style="fill:url(#SVGID_00000106850161066288611700000014969861529254440845_);" d="M12.886,5.77l0,43.301
				c6.541-6.167,10.368-13.621,10.368-21.65C23.254,19.391,19.427,11.937,12.886,5.77z"/>
			
				<linearGradient id="SVGID_00000029005427100947603590000002240960925255708839_" gradientUnits="userSpaceOnUse" x1="23.1447" y1="27.4204" x2="31.9786" y2="27.4204">
				<stop  offset="0" style="stop-color:#0454D6"/>
				<stop  offset="0.0253" style="stop-color:#0957D7"/>
				<stop  offset="0.354" style="stop-color:#3F77E8"/>
				<stop  offset="0.6376" style="stop-color:#678EF5"/>
				<stop  offset="0.8622" style="stop-color:#7F9DFC"/>
				<stop  offset="1" style="stop-color:#88A2FF"/>
			</linearGradient>
			<path style="fill:url(#SVGID_00000029005427100947603590000002240960925255708839_);" d="M23.145,9.93l0,34.981
				c5.573-4.982,8.834-11.003,8.834-17.49C31.979,20.934,28.718,14.912,23.145,9.93z"/>
			
				<linearGradient id="SVGID_00000093862863889015482010000011507067771164872879_" gradientUnits="userSpaceOnUse" x1="50.8518" y1="27.4204" x2="62.9891" y2="27.4204">
				<stop  offset="0" style="stop-color:#88A2FF"/>
				<stop  offset="0.1378" style="stop-color:#7F9DFC"/>
				<stop  offset="0.3624" style="stop-color:#678EF5"/>
				<stop  offset="0.646" style="stop-color:#3F77E8"/>
				<stop  offset="0.9747" style="stop-color:#0957D7"/>
				<stop  offset="1" style="stop-color:#0454D6"/>
			</linearGradient>
			<path style="fill:url(#SVGID_00000093862863889015482010000011507067771164872879_);" d="M62.989,53.899l0-52.957
				C55.332,8.484,50.852,17.6,50.852,27.42C50.852,37.241,55.332,46.357,62.989,53.899z"/>
			
				<linearGradient id="SVGID_00000111186507656489584040000014211466426304620730_" gradientUnits="userSpaceOnUse" x1="40.5936" y1="27.4204" x2="50.9613" y2="27.4204">
				<stop  offset="0" style="stop-color:#88A2FF"/>
				<stop  offset="0.1378" style="stop-color:#7F9DFC"/>
				<stop  offset="0.3624" style="stop-color:#678EF5"/>
				<stop  offset="0.646" style="stop-color:#3F77E8"/>
				<stop  offset="0.9747" style="stop-color:#0957D7"/>
				<stop  offset="1" style="stop-color:#0454D6"/>
			</linearGradient>
			<path style="fill:url(#SVGID_00000111186507656489584040000014211466426304620730_);" d="M50.961,49.071l0-43.301
				c-6.541,6.167-10.368,13.621-10.368,21.65C40.594,35.45,44.421,42.904,50.961,49.071z"/>
			
				<linearGradient id="SVGID_00000111172911430530345120000008063777616028865462_" gradientUnits="userSpaceOnUse" x1="31.8691" y1="27.4204" x2="40.7031" y2="27.4204">
				<stop  offset="0" style="stop-color:#88A2FF"/>
				<stop  offset="0.1378" style="stop-color:#7F9DFC"/>
				<stop  offset="0.3624" style="stop-color:#678EF5"/>
				<stop  offset="0.646" style="stop-color:#3F77E8"/>
				<stop  offset="0.9747" style="stop-color:#0957D7"/>
				<stop  offset="1" style="stop-color:#0454D6"/>
			</linearGradient>
			<path style="fill:url(#SVGID_00000111172911430530345120000008063777616028865462_);" d="M40.703,44.911V9.93
				c-5.573,4.982-8.834,11.003-8.834,17.49C31.869,33.907,35.13,39.929,40.703,44.911z"/>
		</g>
	</g>
</g>
<g id="Layer_1">
</g>
</svg>
