<?xml version="1.0" encoding="iso-8859-1"?>
<!-- Generator: Adobe Illustrator 26.1.0, SVG Export Plug-In . SVG Version: 6.00 Build 0)  -->
<svg version="1.1" xmlns="http://www.w3.org/2000/svg" xmlns:xlink="http://www.w3.org/1999/xlink" x="0px" y="0px"
	 viewBox="0 0 320 57" style="enable-background:new 0 0 320 57;" xml:space="preserve">
<g id="logo-horz-on-gray">
	<g>
		<g>
			<path style="fill:#0A0B0C;" d="M108.902,49.558l-12.38-19.909h-9.891v19.909h-5.807V4.889h16.081
				c8.487,0,14.039,4.914,14.039,12.38c0,5.488-3.127,9.699-8.296,11.486l12.89,20.803H108.902z M86.631,24.417h9.636
				c5.488,0,8.742-2.617,8.742-7.147s-3.254-7.211-8.742-7.211h-9.636V24.417z"/>
			<path style="fill:#0A0B0C;" d="M144.442,28.947v20.611h-5.36V44.07c-1.851,3.701-6.062,5.999-10.72,5.999
				c-6.445,0-10.848-3.957-10.848-9.508c0-6.19,5.041-9.572,15.315-10.594l6.253-0.701v-0.639c0-4.402-3.126-7.211-7.849-7.211
				c-4.403,0-7.53,2.616-7.977,6.956l-5.042-0.957c0.958-6.382,6.254-10.529,13.018-10.529
				C139.018,16.886,144.442,21.481,144.442,28.947z M139.081,35.01v-1.532l-6.253,0.702c-6.509,0.702-9.891,2.936-9.891,6.317
				c0,2.999,2.553,5.105,6.254,5.105C135.444,45.602,139.081,41.454,139.081,35.01z"/>
			<path style="fill:#0A0B0C;" d="M150.436,33.477c0-9.444,5.488-16.591,15.443-16.591c4.275,0,8.487,2.105,10.529,5.105V4.38h5.424
				v45.179h-5.424V44.9c-1.468,2.936-5.743,5.169-10.465,5.169C155.924,50.069,150.436,42.922,150.436,33.477z M176.919,33.477
				c0-7.083-4.148-11.741-10.465-11.741s-10.465,4.658-10.465,11.741c0,7.084,4.148,11.742,10.465,11.742
				S176.919,40.561,176.919,33.477z"/>
			<path style="fill:#0A0B0C;" d="M188.593,7.57c0-2.17,1.595-3.829,3.765-3.829c2.233,0,3.893,1.659,3.893,3.829
				c0,2.105-1.659,3.765-3.893,3.765C190.188,11.335,188.593,9.676,188.593,7.57z M189.677,17.397h5.424v32.161h-5.424V17.397z"/>
			<path style="fill:#0A0B0C;" d="M201.098,33.477c0-9.636,6.764-16.591,16.336-16.591c9.508,0,16.399,6.955,16.399,16.591
				s-6.892,16.592-16.399,16.592C207.862,50.069,201.098,43.113,201.098,33.477z M228.218,33.477
				c0-6.892-4.339-11.741-10.784-11.741c-6.445,0-10.785,4.85-10.785,11.741s4.339,11.742,10.785,11.742
				C223.879,45.22,228.218,40.369,228.218,33.477z"/>
			<path style="fill:#0A0B0C;" d="M239.828,4.38h5.424v45.179h-5.424V4.38z"/>
			<path style="fill:#0A0B0C;" d="M278.305,28.947v20.611h-5.36V44.07c-1.851,3.701-6.062,5.999-10.72,5.999
				c-6.445,0-10.848-3.957-10.848-9.508c0-6.19,5.041-9.572,15.315-10.594l6.253-0.701v-0.639c0-4.402-3.126-7.211-7.849-7.211
				c-4.403,0-7.53,2.616-7.977,6.956l-5.042-0.957c0.958-6.382,6.254-10.529,13.018-10.529
				C272.882,16.886,278.305,21.481,278.305,28.947z M272.945,35.01v-1.532l-6.253,0.702c-6.509,0.702-9.891,2.936-9.891,6.317
				c0,2.999,2.553,5.105,6.254,5.105C269.308,45.602,272.945,41.454,272.945,35.01z"/>
			<path style="fill:#0A0B0C;" d="M291.575,44.9v4.658h-5.424V4.38h5.424v17.612c2.042-3,6.253-5.105,10.529-5.105
				c9.955,0,15.443,7.146,15.443,16.591s-5.488,16.592-15.506,16.592C297.318,50.069,293.043,47.836,291.575,44.9z M311.995,33.477
				c0-7.083-4.148-11.741-10.465-11.741s-10.401,4.658-10.401,11.741c0,7.084,4.084,11.742,10.401,11.742
				S311.995,40.561,311.995,33.477z"/>
		</g>
		<g>
			<linearGradient id="SVGID_1_" gradientUnits="userSpaceOnUse" x1="0.8625" y1="27.4204" x2="12.9087" y2="27.4204">
				<stop  offset="0" style="stop-color:#BCC0CE"/>
				<stop  offset="0.1333" style="stop-color:#B4B7C5"/>
				<stop  offset="0.3508" style="stop-color:#9DA0AD"/>
				<stop  offset="0.6253" style="stop-color:#777A85"/>
				<stop  offset="0.9433" style="stop-color:#44464F"/>
				<stop  offset="1" style="stop-color:#3A3C44"/>
			</linearGradient>
			<path style="fill:url(#SVGID_1_);" d="M0.862,1.141l0,52.56c7.6-7.485,12.046-16.533,12.046-26.28
				C12.909,17.674,8.462,8.626,0.862,1.141z"/>
			
				<linearGradient id="SVGID_00000176018922403504539500000012985168390211154823_" gradientUnits="userSpaceOnUse" x1="12.9087" y1="27.4204" x2="23.1986" y2="27.4204">
				<stop  offset="0" style="stop-color:#BCC0CE"/>
				<stop  offset="0.1333" style="stop-color:#B4B7C5"/>
				<stop  offset="0.3508" style="stop-color:#9DA0AD"/>
				<stop  offset="0.6253" style="stop-color:#777A85"/>
				<stop  offset="0.9433" style="stop-color:#44464F"/>
				<stop  offset="1" style="stop-color:#3A3C44"/>
			</linearGradient>
			<path style="fill:url(#SVGID_00000176018922403504539500000012985168390211154823_);" d="M12.909,5.933l0,42.976
				c6.492-6.12,10.29-13.518,10.29-21.488C23.199,19.451,19.4,12.053,12.909,5.933z"/>
			
				<linearGradient id="SVGID_00000181085832059125805900000014443293753411246268_" gradientUnits="userSpaceOnUse" x1="23.1986" y1="27.4204" x2="31.9663" y2="27.4204">
				<stop  offset="0" style="stop-color:#BCC0CE"/>
				<stop  offset="0.1392" style="stop-color:#B7BAC8"/>
				<stop  offset="0.3214" style="stop-color:#A7ABB8"/>
				<stop  offset="0.5273" style="stop-color:#8E919D"/>
				<stop  offset="0.7509" style="stop-color:#6A6D77"/>
				<stop  offset="0.9862" style="stop-color:#3D3F47"/>
				<stop  offset="1" style="stop-color:#3A3C44"/>
			</linearGradient>
			<path style="fill:url(#SVGID_00000181085832059125805900000014443293753411246268_);" d="M23.199,10.061l0,34.718
				c5.531-4.944,8.768-10.921,8.768-17.359C31.966,20.982,28.73,15.006,23.199,10.061z"/>
			
				<linearGradient id="SVGID_00000144312733283970539450000003600264332842367145_" gradientUnits="userSpaceOnUse" x1="50.9466" y1="27.4204" x2="62.9929" y2="27.4204">
				<stop  offset="0" style="stop-color:#3A3C44"/>
				<stop  offset="0.0567" style="stop-color:#44464F"/>
				<stop  offset="0.3747" style="stop-color:#777A85"/>
				<stop  offset="0.6492" style="stop-color:#9DA0AD"/>
				<stop  offset="0.8667" style="stop-color:#B4B7C5"/>
				<stop  offset="1" style="stop-color:#BCC0CE"/>
			</linearGradient>
			<path style="fill:url(#SVGID_00000144312733283970539450000003600264332842367145_);" d="M62.993,53.7l0-52.56
				c-7.6,7.485-12.046,16.533-12.046,26.28C50.947,37.167,55.393,46.215,62.993,53.7z"/>
			
				<linearGradient id="SVGID_00000134957303956719177680000013399497478202304907_" gradientUnits="userSpaceOnUse" x1="40.641" y1="27.4204" x2="50.9309" y2="27.4204">
				<stop  offset="0" style="stop-color:#3A3C44"/>
				<stop  offset="0.0567" style="stop-color:#44464F"/>
				<stop  offset="0.3747" style="stop-color:#777A85"/>
				<stop  offset="0.6492" style="stop-color:#9DA0AD"/>
				<stop  offset="0.8667" style="stop-color:#B4B7C5"/>
				<stop  offset="1" style="stop-color:#BCC0CE"/>
			</linearGradient>
			<path style="fill:url(#SVGID_00000134957303956719177680000013399497478202304907_);" d="M50.931,48.908V5.933
				c-6.492,6.12-10.29,13.518-10.29,21.488C40.641,35.39,44.439,42.788,50.931,48.908z"/>
			
				<linearGradient id="SVGID_00000134222037901327912790000002553253081066683802_" gradientUnits="userSpaceOnUse" x1="31.8576" y1="27.4204" x2="40.6252" y2="27.4204">
				<stop  offset="0" style="stop-color:#3A3C44"/>
				<stop  offset="0.0138" style="stop-color:#3D3F47"/>
				<stop  offset="0.2491" style="stop-color:#6A6D77"/>
				<stop  offset="0.4727" style="stop-color:#8E919D"/>
				<stop  offset="0.6786" style="stop-color:#A7ABB8"/>
				<stop  offset="0.8608" style="stop-color:#B7BAC8"/>
				<stop  offset="1" style="stop-color:#BCC0CE"/>
			</linearGradient>
			<path style="fill:url(#SVGID_00000134222037901327912790000002553253081066683802_);" d="M40.625,44.779V10.061
				c-5.531,4.944-8.768,10.921-8.768,17.359C31.858,33.859,35.094,39.835,40.625,44.779z"/>
		</g>
	</g>
</g>
<g id="Layer_1">
</g>
</svg>
