<?xml version="1.0" encoding="iso-8859-1"?>
<!-- Generator: Adobe Illustrator 26.1.0, SVG Export Plug-In . SVG Version: 6.00 Build 0)  -->
<svg version="1.1" xmlns="http://www.w3.org/2000/svg" xmlns:xlink="http://www.w3.org/1999/xlink" x="0px" y="0px"
	 viewBox="0 0 320 57" style="enable-background:new 0 0 320 57;" xml:space="preserve">
<g id="logo-horz-on-redorange">
	<g>
		<g>
			<path style="fill:#F4F2F0;" d="M108.903,49.553l-12.38-19.909h-9.891v19.909h-5.807V4.885h16.081
				c8.487,0,14.039,4.913,14.039,12.379c0,5.488-3.127,9.7-8.296,11.486l12.89,20.803H108.903z M86.632,24.412h9.636
				c5.488,0,8.742-2.616,8.742-7.147c0-4.53-3.254-7.211-8.742-7.211h-9.636V24.412z"/>
			<path style="fill:#F4F2F0;" d="M144.443,28.942v20.611h-5.36v-5.487c-1.851,3.701-6.062,5.998-10.72,5.998
				c-6.445,0-10.848-3.956-10.848-9.508c0-6.19,5.041-9.572,15.315-10.593l6.253-0.702v-0.639c0-4.402-3.126-7.21-7.849-7.21
				c-4.403,0-7.53,2.616-7.977,6.955l-5.042-0.957c0.958-6.381,6.254-10.529,13.018-10.529
				C139.019,16.881,144.443,21.476,144.443,28.942z M139.083,35.004v-1.531l-6.253,0.701c-6.509,0.702-9.891,2.936-9.891,6.317
				c0,3,2.553,5.105,6.254,5.105C135.445,45.597,139.083,41.45,139.083,35.004z"/>
			<path style="fill:#F4F2F0;" d="M150.438,33.473c0-9.444,5.488-16.592,15.443-16.592c4.275,0,8.487,2.106,10.529,5.105V4.375
				h5.424v45.179h-5.424v-4.658c-1.468,2.936-5.743,5.169-10.465,5.169C155.926,50.064,150.438,42.917,150.438,33.473z
				 M176.92,33.473c0-7.084-4.148-11.742-10.465-11.742s-10.465,4.658-10.465,11.742c0,7.083,4.148,11.741,10.465,11.741
				S176.92,40.556,176.92,33.473z"/>
			<path style="fill:#F4F2F0;" d="M188.594,7.565c0-2.17,1.595-3.829,3.765-3.829c2.233,0,3.893,1.659,3.893,3.829
				c0,2.105-1.659,3.765-3.893,3.765C190.19,11.33,188.594,9.671,188.594,7.565z M189.679,17.392h5.424v32.161h-5.424V17.392z"/>
			<path style="fill:#F4F2F0;" d="M201.1,33.473c0-9.636,6.764-16.592,16.336-16.592c9.508,0,16.399,6.956,16.399,16.592
				s-6.892,16.591-16.399,16.591C207.863,50.064,201.1,43.109,201.1,33.473z M228.22,33.473c0-6.893-4.339-11.742-10.784-11.742
				c-6.445,0-10.785,4.85-10.785,11.742c0,6.892,4.339,11.741,10.785,11.741C223.881,45.214,228.22,40.365,228.22,33.473z"/>
			<path style="fill:#F4F2F0;" d="M239.829,4.375h5.424v45.179h-5.424V4.375z"/>
			<path style="fill:#F4F2F0;" d="M278.307,28.942v20.611h-5.36v-5.487c-1.851,3.701-6.062,5.998-10.72,5.998
				c-6.445,0-10.848-3.956-10.848-9.508c0-6.19,5.041-9.572,15.315-10.593l6.253-0.702v-0.639c0-4.402-3.126-7.21-7.849-7.21
				c-4.403,0-7.53,2.616-7.977,6.955l-5.042-0.957c0.958-6.381,6.254-10.529,13.018-10.529
				C272.883,16.881,278.307,21.476,278.307,28.942z M272.946,35.004v-1.531l-6.253,0.701c-6.509,0.702-9.891,2.936-9.891,6.317
				c0,3,2.553,5.105,6.254,5.105C269.309,45.597,272.946,41.45,272.946,35.004z"/>
			<path style="fill:#F4F2F0;" d="M291.576,44.895v4.658h-5.424V4.375h5.424v17.612c2.042-2.999,6.253-5.105,10.529-5.105
				c9.955,0,15.443,7.147,15.443,16.592c0,9.443-5.488,16.591-15.506,16.591C297.319,50.064,293.044,47.831,291.576,44.895z
				 M311.996,33.473c0-7.084-4.148-11.742-10.465-11.742s-10.401,4.658-10.401,11.742c0,7.083,4.084,11.741,10.401,11.741
				S311.996,40.556,311.996,33.473z"/>
		</g>
		<g>
			<linearGradient id="SVGID_1_" gradientUnits="userSpaceOnUse" x1="0.861" y1="27.4204" x2="12.9072" y2="27.4204">
				<stop  offset="0" style="stop-color:#FFC1E5"/>
				<stop  offset="0.0919" style="stop-color:#FFBEDC"/>
				<stop  offset="0.2418" style="stop-color:#FFB4C4"/>
				<stop  offset="0.4312" style="stop-color:#FFA59C"/>
				<stop  offset="0.6525" style="stop-color:#FF9065"/>
				<stop  offset="0.898" style="stop-color:#FF761F"/>
				<stop  offset="1" style="stop-color:#FF6A00"/>
			</linearGradient>
			<path style="fill:url(#SVGID_1_);" d="M0.861,1.141l0,52.56c7.6-7.485,12.046-16.533,12.046-26.28
				C12.907,17.674,8.461,8.626,0.861,1.141z"/>
			
				<linearGradient id="SVGID_00000049906978148613140170000001688594978037245832_" gradientUnits="userSpaceOnUse" x1="12.9072" y1="27.4204" x2="23.1971" y2="27.4204">
				<stop  offset="0" style="stop-color:#FFC1E5"/>
				<stop  offset="0.0919" style="stop-color:#FFBEDC"/>
				<stop  offset="0.2418" style="stop-color:#FFB4C4"/>
				<stop  offset="0.4312" style="stop-color:#FFA59C"/>
				<stop  offset="0.6525" style="stop-color:#FF9065"/>
				<stop  offset="0.898" style="stop-color:#FF761F"/>
				<stop  offset="1" style="stop-color:#FF6A00"/>
			</linearGradient>
			<path style="fill:url(#SVGID_00000049906978148613140170000001688594978037245832_);" d="M12.907,5.933l0,42.976
				c6.492-6.12,10.29-13.518,10.29-21.488C23.197,19.451,19.399,12.053,12.907,5.933z"/>
			
				<linearGradient id="SVGID_00000163051628700296716230000000555558884617186439_" gradientUnits="userSpaceOnUse" x1="23.1971" y1="27.4204" x2="31.9648" y2="27.4204">
				<stop  offset="0" style="stop-color:#FFC1E5"/>
				<stop  offset="0.0919" style="stop-color:#FFBEDC"/>
				<stop  offset="0.2418" style="stop-color:#FFB4C4"/>
				<stop  offset="0.4312" style="stop-color:#FFA59C"/>
				<stop  offset="0.6525" style="stop-color:#FF9065"/>
				<stop  offset="0.898" style="stop-color:#FF761F"/>
				<stop  offset="1" style="stop-color:#FF6A00"/>
			</linearGradient>
			<path style="fill:url(#SVGID_00000163051628700296716230000000555558884617186439_);" d="M23.197,10.061l0,34.718
				c5.531-4.944,8.768-10.921,8.768-17.359C31.965,20.982,28.728,15.006,23.197,10.061z"/>
			
				<linearGradient id="SVGID_00000065788828720622393530000016751088641856427695_" gradientUnits="userSpaceOnUse" x1="50.9452" y1="27.4204" x2="62.9914" y2="27.4204">
				<stop  offset="0" style="stop-color:#FF6A00"/>
				<stop  offset="0.102" style="stop-color:#FF761F"/>
				<stop  offset="0.3475" style="stop-color:#FF9065"/>
				<stop  offset="0.5688" style="stop-color:#FFA59C"/>
				<stop  offset="0.7582" style="stop-color:#FFB4C4"/>
				<stop  offset="0.9081" style="stop-color:#FFBEDC"/>
				<stop  offset="1" style="stop-color:#FFC1E5"/>
			</linearGradient>
			<path style="fill:url(#SVGID_00000065788828720622393530000016751088641856427695_);" d="M62.991,53.7V1.141
				c-7.6,7.485-12.046,16.533-12.046,26.28C50.945,37.167,55.392,46.215,62.991,53.7z"/>
			
				<linearGradient id="SVGID_00000039848164108318889330000014536525728845869236_" gradientUnits="userSpaceOnUse" x1="40.6395" y1="27.4204" x2="50.9294" y2="27.4204">
				<stop  offset="0" style="stop-color:#FF6A00"/>
				<stop  offset="0.102" style="stop-color:#FF761F"/>
				<stop  offset="0.3475" style="stop-color:#FF9065"/>
				<stop  offset="0.5688" style="stop-color:#FFA59C"/>
				<stop  offset="0.7582" style="stop-color:#FFB4C4"/>
				<stop  offset="0.9081" style="stop-color:#FFBEDC"/>
				<stop  offset="1" style="stop-color:#FFC1E5"/>
			</linearGradient>
			<path style="fill:url(#SVGID_00000039848164108318889330000014536525728845869236_);" d="M50.929,48.908l0-42.976
				c-6.492,6.12-10.29,13.518-10.29,21.488C40.639,35.39,44.438,42.788,50.929,48.908z"/>
			
				<linearGradient id="SVGID_00000115492375517933557660000001356569492368926132_" gradientUnits="userSpaceOnUse" x1="31.8561" y1="27.4204" x2="40.6237" y2="27.4204">
				<stop  offset="0" style="stop-color:#FF6A00"/>
				<stop  offset="0.102" style="stop-color:#FF761F"/>
				<stop  offset="0.3475" style="stop-color:#FF9065"/>
				<stop  offset="0.5688" style="stop-color:#FFA59C"/>
				<stop  offset="0.7582" style="stop-color:#FFB4C4"/>
				<stop  offset="0.9081" style="stop-color:#FFBEDC"/>
				<stop  offset="1" style="stop-color:#FFC1E5"/>
			</linearGradient>
			<path style="fill:url(#SVGID_00000115492375517933557660000001356569492368926132_);" d="M40.624,44.779V10.061
				c-5.531,4.944-8.768,10.921-8.768,17.359C31.856,33.859,35.092,39.835,40.624,44.779z"/>
		</g>
	</g>
</g>
<g id="Layer_1">
</g>
</svg>
