<?xml version="1.0" encoding="iso-8859-1"?>
<!-- Generator: Adobe Illustrator 26.1.0, SVG Export Plug-In . SVG Version: 6.00 Build 0)  -->
<svg version="1.1" xmlns="http://www.w3.org/2000/svg" xmlns:xlink="http://www.w3.org/1999/xlink" x="0px" y="0px"
	 viewBox="0 0 252 170" style="enable-background:new 0 0 252 170;" xml:space="preserve">
<g id="logo-vert-on-redorange2">
	<g>
		<g>
			<g>
				<g>
					<path style="fill:#F4F2F0;" d="M32.501,166.653l-12.818-20.614H9.443v20.614H3.43v-46.249H20.08
						c8.788,0,14.536,5.087,14.536,12.817c0,5.683-3.237,10.043-8.59,11.893l13.347,21.539H32.501z M9.443,140.622h9.977
						c5.682,0,9.052-2.709,9.052-7.4c0-4.69-3.37-7.466-9.052-7.466H9.443V140.622z"/>
					<path style="fill:#F4F2F0;" d="M69.306,145.312v21.341h-5.55v-5.682c-1.916,3.832-6.276,6.21-11.1,6.21
						c-6.673,0-11.231-4.096-11.231-9.844c0-6.409,5.219-9.911,15.856-10.968l6.475-0.727v-0.661c0-4.559-3.237-7.466-8.126-7.466
						c-4.56,0-7.797,2.709-8.259,7.201l-5.22-0.99c0.991-6.607,6.475-10.902,13.479-10.902
						C63.691,132.825,69.306,137.582,69.306,145.312z M63.756,151.59v-1.586l-6.475,0.727c-6.739,0.727-10.241,3.039-10.241,6.541
						c0,3.105,2.644,5.286,6.476,5.286C59.991,162.557,63.756,158.262,63.756,151.59z"/>
					<path style="fill:#F4F2F0;" d="M75.52,150.004c0-9.778,5.683-17.179,15.989-17.179c4.427,0,8.787,2.181,10.901,5.286v-18.235
						h5.616v46.777h-5.616v-4.823c-1.52,3.04-5.946,5.352-10.835,5.352C81.203,167.181,75.52,159.782,75.52,150.004z
						 M102.94,150.004c0-7.334-4.295-12.157-10.836-12.157s-10.836,4.823-10.836,12.157s4.295,12.157,10.836,12.157
						S102.94,157.338,102.94,150.004z"/>
					<path style="fill:#F4F2F0;" d="M115.034,123.178c0-2.246,1.652-3.964,3.898-3.964c2.312,0,4.03,1.718,4.03,3.964
						c0,2.181-1.718,3.898-4.03,3.898C116.686,127.077,115.034,125.359,115.034,123.178z M116.157,133.353h5.616v33.3h-5.616
						V133.353z"/>
					<path style="fill:#F4F2F0;" d="M127.984,150.004c0-9.977,7.004-17.179,16.914-17.179c9.845,0,16.98,7.202,16.98,17.179
						s-7.136,17.178-16.98,17.178C134.988,167.181,127.984,159.98,127.984,150.004z M156.064,150.004
						c0-7.136-4.492-12.157-11.166-12.157c-6.673,0-11.166,5.021-11.166,12.157s4.493,12.157,11.166,12.157
						C151.572,162.161,156.064,157.139,156.064,150.004z"/>
					<path style="fill:#F4F2F0;" d="M168.092,119.876h5.616v46.777h-5.616V119.876z"/>
					<path style="fill:#F4F2F0;" d="M207.933,145.312v21.341h-5.55v-5.682c-1.916,3.832-6.276,6.21-11.1,6.21
						c-6.673,0-11.231-4.096-11.231-9.844c0-6.409,5.219-9.911,15.856-10.968l6.475-0.727v-0.661c0-4.559-3.237-7.466-8.126-7.466
						c-4.56,0-7.797,2.709-8.259,7.201l-5.22-0.99c0.991-6.607,6.475-10.902,13.479-10.902
						C202.318,132.825,207.933,137.582,207.933,145.312z M202.383,151.59v-1.586l-6.475,0.727
						c-6.739,0.727-10.241,3.039-10.241,6.541c0,3.105,2.644,5.286,6.476,5.286C198.618,162.557,202.383,158.262,202.383,151.59z"/>
					<path style="fill:#F4F2F0;" d="M221.679,161.83v4.823h-5.616v-46.777h5.616v18.235c2.114-3.105,6.475-5.286,10.901-5.286
						c10.308,0,15.989,7.4,15.989,17.179s-5.682,17.178-16.055,17.178C227.625,167.181,223.199,164.87,221.679,161.83z
						 M242.822,150.004c0-7.334-4.295-12.157-10.836-12.157s-10.77,4.823-10.77,12.157s4.229,12.157,10.77,12.157
						S242.822,157.338,242.822,150.004z"/>
				</g>
			</g>
		</g>
		<g>
			<linearGradient id="SVGID_1_" gradientUnits="userSpaceOnUse" x1="61.89" y1="55.0784" x2="85.845" y2="55.0784">
				<stop  offset="0" style="stop-color:#90D8FC"/>
				<stop  offset="0.1325" style="stop-color:#A2D2D2"/>
				<stop  offset="0.3695" style="stop-color:#BFC98C"/>
				<stop  offset="0.5835" style="stop-color:#D6C255"/>
				<stop  offset="0.7664" style="stop-color:#E7BC2D"/>
				<stop  offset="0.9112" style="stop-color:#F1B915"/>
				<stop  offset="1" style="stop-color:#F5B80C"/>
			</linearGradient>
			<path style="fill:url(#SVGID_1_);" d="M61.89,2.819l0,104.52c15.113-14.885,23.955-32.877,23.955-52.26
				C85.845,35.696,77.003,17.704,61.89,2.819z"/>
			
				<linearGradient id="SVGID_00000018915751998694972760000015165191226228849829_" gradientUnits="userSpaceOnUse" x1="85.845" y1="55.0784" x2="106.3074" y2="55.0784">
				<stop  offset="0" style="stop-color:#90D8FC"/>
				<stop  offset="0.1325" style="stop-color:#A2D2D2"/>
				<stop  offset="0.3695" style="stop-color:#BFC98C"/>
				<stop  offset="0.5835" style="stop-color:#D6C255"/>
				<stop  offset="0.7664" style="stop-color:#E7BC2D"/>
				<stop  offset="0.9112" style="stop-color:#F1B915"/>
				<stop  offset="1" style="stop-color:#F5B80C"/>
			</linearGradient>
			<path style="fill:url(#SVGID_00000018915751998694972760000015165191226228849829_);" d="M85.845,12.348l0,85.461
				c12.909-12.171,20.462-26.882,20.462-42.73C106.307,39.23,98.754,24.519,85.845,12.348z"/>
			
				<linearGradient id="SVGID_00000091696061277194524600000010682702414390619546_" gradientUnits="userSpaceOnUse" x1="106.2946" y1="55.0784" x2="123.7298" y2="55.0784">
				<stop  offset="0" style="stop-color:#90D8FC"/>
				<stop  offset="0.1325" style="stop-color:#A2D2D2"/>
				<stop  offset="0.3695" style="stop-color:#BFC98C"/>
				<stop  offset="0.5835" style="stop-color:#D6C255"/>
				<stop  offset="0.7664" style="stop-color:#E7BC2D"/>
				<stop  offset="0.9112" style="stop-color:#F1B915"/>
				<stop  offset="1" style="stop-color:#F5B80C"/>
			</linearGradient>
			<path style="fill:url(#SVGID_00000091696061277194524600000010682702414390619546_);" d="M106.295,20.558l0,69.04
				c10.999-9.832,17.435-21.717,17.435-34.52C123.73,42.275,117.294,30.391,106.295,20.558z"/>
			
				<linearGradient id="SVGID_00000182516925952547652640000015460003742574344849_" gradientUnits="userSpaceOnUse" x1="160.9938" y1="55.0784" x2="184.9487" y2="55.0784">
				<stop  offset="0" style="stop-color:#F5B80C"/>
				<stop  offset="0.0888" style="stop-color:#F1B915"/>
				<stop  offset="0.2336" style="stop-color:#E7BC2D"/>
				<stop  offset="0.4165" style="stop-color:#D6C255"/>
				<stop  offset="0.6305" style="stop-color:#BFC98C"/>
				<stop  offset="0.8675" style="stop-color:#A2D2D2"/>
				<stop  offset="1" style="stop-color:#90D8FC"/>
			</linearGradient>
			<path style="fill:url(#SVGID_00000182516925952547652640000015460003742574344849_);" d="M184.949,107.338V2.819
				c-15.113,14.885-23.955,32.877-23.955,52.26C160.994,74.461,169.836,92.453,184.949,107.338z"/>
			
				<linearGradient id="SVGID_00000132778012182933360490000017789073226774152359_" gradientUnits="userSpaceOnUse" x1="140.5442" y1="55.0784" x2="161.0067" y2="55.0784">
				<stop  offset="0" style="stop-color:#F5B80C"/>
				<stop  offset="0.0888" style="stop-color:#F1B915"/>
				<stop  offset="0.2336" style="stop-color:#E7BC2D"/>
				<stop  offset="0.4165" style="stop-color:#D6C255"/>
				<stop  offset="0.6305" style="stop-color:#BFC98C"/>
				<stop  offset="0.8675" style="stop-color:#A2D2D2"/>
				<stop  offset="1" style="stop-color:#90D8FC"/>
			</linearGradient>
			<path style="fill:url(#SVGID_00000132778012182933360490000017789073226774152359_);" d="M161.007,97.809l0-85.461
				c-12.909,12.171-20.462,26.882-20.462,42.73C140.544,70.926,148.097,85.638,161.007,97.809z"/>
			
				<linearGradient id="SVGID_00000084510983344017895240000016231928955619044761_" gradientUnits="userSpaceOnUse" x1="123.1219" y1="55.0784" x2="140.5571" y2="55.0784">
				<stop  offset="0" style="stop-color:#F5B80C"/>
				<stop  offset="0.0888" style="stop-color:#F1B915"/>
				<stop  offset="0.2336" style="stop-color:#E7BC2D"/>
				<stop  offset="0.4165" style="stop-color:#D6C255"/>
				<stop  offset="0.6305" style="stop-color:#BFC98C"/>
				<stop  offset="0.8675" style="stop-color:#A2D2D2"/>
				<stop  offset="1" style="stop-color:#90D8FC"/>
			</linearGradient>
			<path style="fill:url(#SVGID_00000084510983344017895240000016231928955619044761_);" d="M140.557,89.598l0-69.04
				c-10.999,9.832-17.435,21.717-17.435,34.52C123.122,67.881,129.558,79.766,140.557,89.598z"/>
		</g>
	</g>
</g>
<g id="Layer_1">
</g>
</svg>
