<?xml version="1.0" encoding="iso-8859-1"?>
<!-- Generator: Adobe Illustrator 26.1.0, SVG Export Plug-In . SVG Version: 6.00 Build 0)  -->
<svg version="1.1" xmlns="http://www.w3.org/2000/svg" xmlns:xlink="http://www.w3.org/1999/xlink" x="0px" y="0px"
	 viewBox="0 0 252 170" style="enable-background:new 0 0 252 170;" xml:space="preserve">
<g id="logo-vert-on-gray2">
	<g>
		<g>
			<g>
				<g>
					<path style="fill:#0454D6;" d="M32.501,166.699l-12.818-20.614H9.443v20.614H3.43V120.45H20.08
						c8.788,0,14.536,5.087,14.536,12.817c0,5.683-3.237,10.043-8.59,11.893l13.347,21.539H32.501z M9.443,140.668h9.977
						c5.682,0,9.052-2.709,9.052-7.4c0-4.69-3.37-7.466-9.052-7.466H9.443V140.668z"/>
					<path style="fill:#0454D6;" d="M69.306,145.358v21.341h-5.55v-5.682c-1.916,3.832-6.276,6.21-11.1,6.21
						c-6.673,0-11.231-4.096-11.231-9.844c0-6.409,5.219-9.911,15.856-10.968l6.475-0.727v-0.661c0-4.559-3.237-7.466-8.126-7.466
						c-4.56,0-7.797,2.709-8.259,7.201l-5.22-0.99c0.991-6.607,6.475-10.902,13.479-10.902
						C63.691,132.871,69.306,137.628,69.306,145.358z M63.756,151.636v-1.586l-6.475,0.727c-6.739,0.727-10.241,3.039-10.241,6.541
						c0,3.105,2.644,5.286,6.476,5.286C59.991,162.603,63.756,158.308,63.756,151.636z"/>
					<path style="fill:#0454D6;" d="M75.52,150.05c0-9.778,5.683-17.179,15.989-17.179c4.427,0,8.787,2.181,10.901,5.286v-18.235
						h5.616v46.777h-5.616v-4.823c-1.52,3.04-5.946,5.352-10.835,5.352C81.203,167.227,75.52,159.828,75.52,150.05z M102.94,150.05
						c0-7.334-4.295-12.157-10.836-12.157s-10.836,4.823-10.836,12.157s4.295,12.157,10.836,12.157S102.94,157.384,102.94,150.05z"
						/>
					<path style="fill:#0454D6;" d="M115.034,123.224c0-2.246,1.652-3.964,3.898-3.964c2.312,0,4.03,1.718,4.03,3.964
						c0,2.181-1.718,3.898-4.03,3.898C116.686,127.123,115.034,125.405,115.034,123.224z M116.157,133.399h5.616v33.3h-5.616
						V133.399z"/>
					<path style="fill:#0454D6;" d="M127.984,150.05c0-9.977,7.004-17.179,16.914-17.179c9.845,0,16.98,7.202,16.98,17.179
						s-7.136,17.178-16.98,17.178C134.988,167.227,127.984,160.026,127.984,150.05z M156.064,150.05
						c0-7.136-4.492-12.157-11.166-12.157c-6.673,0-11.166,5.021-11.166,12.157s4.493,12.157,11.166,12.157
						C151.572,162.207,156.064,157.185,156.064,150.05z"/>
					<path style="fill:#0454D6;" d="M168.092,119.922h5.616v46.777h-5.616V119.922z"/>
					<path style="fill:#0454D6;" d="M207.933,145.358v21.341h-5.55v-5.682c-1.916,3.832-6.276,6.21-11.1,6.21
						c-6.673,0-11.231-4.096-11.231-9.844c0-6.409,5.219-9.911,15.856-10.968l6.475-0.727v-0.661c0-4.559-3.237-7.466-8.126-7.466
						c-4.56,0-7.797,2.709-8.259,7.201l-5.22-0.99c0.991-6.607,6.475-10.902,13.479-10.902
						C202.318,132.871,207.933,137.628,207.933,145.358z M202.383,151.636v-1.586l-6.475,0.727
						c-6.739,0.727-10.241,3.039-10.241,6.541c0,3.105,2.644,5.286,6.476,5.286C198.618,162.603,202.383,158.308,202.383,151.636z"
						/>
					<path style="fill:#0454D6;" d="M221.679,161.876v4.823h-5.616v-46.777h5.616v18.235c2.114-3.105,6.475-5.286,10.901-5.286
						c10.308,0,15.989,7.4,15.989,17.179s-5.682,17.178-16.055,17.178C227.625,167.227,223.199,164.916,221.679,161.876z
						 M242.822,150.05c0-7.334-4.295-12.157-10.836-12.157s-10.77,4.823-10.77,12.157s4.229,12.157,10.77,12.157
						S242.822,157.384,242.822,150.05z"/>
				</g>
			</g>
		</g>
		<g>
			<linearGradient id="SVGID_1_" gradientUnits="userSpaceOnUse" x1="62.0999" y1="55.1244" x2="86.097" y2="55.1244">
				<stop  offset="0" style="stop-color:#0454D6"/>
				<stop  offset="0.0253" style="stop-color:#0957D7"/>
				<stop  offset="0.354" style="stop-color:#3F77E8"/>
				<stop  offset="0.6376" style="stop-color:#678EF5"/>
				<stop  offset="0.8622" style="stop-color:#7F9DFC"/>
				<stop  offset="1" style="stop-color:#88A2FF"/>
			</linearGradient>
			<path style="fill:url(#SVGID_1_);" d="M62.1,2.773l0,104.703c15.139-14.911,23.997-32.935,23.997-52.352
				C86.097,35.708,77.239,17.684,62.1,2.773z"/>
			
				<linearGradient id="SVGID_00000170254221884524424720000014768382036462486676_" gradientUnits="userSpaceOnUse" x1="85.8805" y1="55.1244" x2="106.379" y2="55.1244">
				<stop  offset="0" style="stop-color:#0454D6"/>
				<stop  offset="0.0253" style="stop-color:#0957D7"/>
				<stop  offset="0.354" style="stop-color:#3F77E8"/>
				<stop  offset="0.6376" style="stop-color:#678EF5"/>
				<stop  offset="0.8622" style="stop-color:#7F9DFC"/>
				<stop  offset="1" style="stop-color:#88A2FF"/>
			</linearGradient>
			<path style="fill:url(#SVGID_00000170254221884524424720000014768382036462486676_);" d="M85.881,12.319l0,85.611
				C98.813,85.738,106.379,71,106.379,55.124C106.379,39.248,98.813,24.511,85.881,12.319z"/>
			
				<linearGradient id="SVGID_00000020362553992792285220000008984002590023237303_" gradientUnits="userSpaceOnUse" x1="106.1625" y1="55.1244" x2="123.6284" y2="55.1244">
				<stop  offset="0" style="stop-color:#0454D6"/>
				<stop  offset="0.0253" style="stop-color:#0957D7"/>
				<stop  offset="0.354" style="stop-color:#3F77E8"/>
				<stop  offset="0.6376" style="stop-color:#678EF5"/>
				<stop  offset="0.8622" style="stop-color:#7F9DFC"/>
				<stop  offset="1" style="stop-color:#88A2FF"/>
			</linearGradient>
			<path style="fill:url(#SVGID_00000020362553992792285220000008984002590023237303_);" d="M106.162,20.544l0,69.162
				c11.019-9.85,17.466-21.755,17.466-34.581C123.628,42.299,117.181,30.393,106.162,20.544z"/>
			
				<linearGradient id="SVGID_00000047759564241648751290000015014375676442550967_" gradientUnits="userSpaceOnUse" x1="160.9433" y1="55.1244" x2="184.9404" y2="55.1244">
				<stop  offset="0" style="stop-color:#88A2FF"/>
				<stop  offset="0.1378" style="stop-color:#7F9DFC"/>
				<stop  offset="0.3624" style="stop-color:#678EF5"/>
				<stop  offset="0.646" style="stop-color:#3F77E8"/>
				<stop  offset="0.9747" style="stop-color:#0957D7"/>
				<stop  offset="1" style="stop-color:#0454D6"/>
			</linearGradient>
			<path style="fill:url(#SVGID_00000047759564241648751290000015014375676442550967_);" d="M184.94,107.476V2.773
				c-15.139,14.911-23.997,32.935-23.997,52.352C160.943,74.541,169.801,92.565,184.94,107.476z"/>
			
				<linearGradient id="SVGID_00000099661749951925293970000007079767768491389577_" gradientUnits="userSpaceOnUse" x1="140.6613" y1="55.1244" x2="161.1597" y2="55.1244">
				<stop  offset="0" style="stop-color:#88A2FF"/>
				<stop  offset="0.1378" style="stop-color:#7F9DFC"/>
				<stop  offset="0.3624" style="stop-color:#678EF5"/>
				<stop  offset="0.646" style="stop-color:#3F77E8"/>
				<stop  offset="0.9747" style="stop-color:#0957D7"/>
				<stop  offset="1" style="stop-color:#0454D6"/>
			</linearGradient>
			<path style="fill:url(#SVGID_00000099661749951925293970000007079767768491389577_);" d="M161.16,97.93V12.319
				c-12.932,12.192-20.498,26.93-20.498,42.806C140.661,71,148.228,85.738,161.16,97.93z"/>
			
				<linearGradient id="SVGID_00000180362271467723918140000016904017425829329062_" gradientUnits="userSpaceOnUse" x1="123.4119" y1="55.1244" x2="140.8778" y2="55.1244">
				<stop  offset="0" style="stop-color:#88A2FF"/>
				<stop  offset="0.1378" style="stop-color:#7F9DFC"/>
				<stop  offset="0.3624" style="stop-color:#678EF5"/>
				<stop  offset="0.646" style="stop-color:#3F77E8"/>
				<stop  offset="0.9747" style="stop-color:#0957D7"/>
				<stop  offset="1" style="stop-color:#0454D6"/>
			</linearGradient>
			<path style="fill:url(#SVGID_00000180362271467723918140000016904017425829329062_);" d="M140.878,89.705l0-69.162
				c-11.019,9.85-17.466,21.755-17.466,34.581C123.412,67.95,129.859,79.855,140.878,89.705z"/>
		</g>
	</g>
</g>
<g id="Layer_1">
</g>
</svg>
