<?xml version="1.0" encoding="iso-8859-1"?>
<!-- Generator: Adobe Illustrator 26.1.0, SVG Export Plug-In . SVG Version: 6.00 Build 0)  -->
<svg version="1.1" xmlns="http://www.w3.org/2000/svg" xmlns:xlink="http://www.w3.org/1999/xlink" x="0px" y="0px"
	 viewBox="0 0 252 170" style="enable-background:new 0 0 252 170;" xml:space="preserve">
<g id="logo-vert-on-yellow">
	<g>
		<g>
			<g>
				<g>
					<path style="fill:#FF3500;" d="M32.501,166.592l-12.818-20.614H9.443v20.614H3.43v-46.249H20.08
						c8.788,0,14.536,5.087,14.536,12.817c0,5.682-3.237,10.043-8.59,11.893l13.347,21.539H32.501z M9.443,140.56h9.977
						c5.682,0,9.052-2.708,9.052-7.399s-3.37-7.466-9.052-7.466H9.443V140.56z"/>
					<path style="fill:#FF3500;" d="M69.306,145.251v21.341h-5.55v-5.682c-1.916,3.832-6.276,6.21-11.1,6.21
						c-6.673,0-11.231-4.096-11.231-9.845c0-6.408,5.219-9.91,15.856-10.967l6.475-0.728v-0.66c0-4.56-3.237-7.466-8.126-7.466
						c-4.56,0-7.797,2.709-8.259,7.201l-5.22-0.991c0.991-6.606,6.475-10.901,13.479-10.901
						C63.691,132.764,69.306,137.52,69.306,145.251z M63.756,151.527v-1.585l-6.475,0.727c-6.739,0.727-10.241,3.039-10.241,6.541
						c0,3.105,2.644,5.285,6.476,5.285C59.991,162.495,63.756,158.201,63.756,151.527z"/>
					<path style="fill:#FF3500;" d="M75.52,149.942c0-9.778,5.683-17.179,15.989-17.179c4.427,0,8.787,2.181,10.901,5.285v-18.235
						h5.616v46.778h-5.616v-4.823c-1.52,3.039-5.946,5.352-10.835,5.352C81.203,167.12,75.52,159.721,75.52,149.942z
						 M102.94,149.942c0-7.334-4.295-12.157-10.836-12.157s-10.836,4.823-10.836,12.157c0,7.333,4.295,12.156,10.836,12.156
						S102.94,157.275,102.94,149.942z"/>
					<path style="fill:#FF3500;" d="M115.034,123.117c0-2.246,1.652-3.964,3.898-3.964c2.312,0,4.03,1.718,4.03,3.964
						c0,2.181-1.718,3.898-4.03,3.898C116.686,127.016,115.034,125.298,115.034,123.117z M116.157,133.292h5.616v33.3h-5.616
						V133.292z"/>
					<path style="fill:#FF3500;" d="M127.984,149.942c0-9.977,7.004-17.179,16.914-17.179c9.845,0,16.98,7.202,16.98,17.179
						s-7.136,17.178-16.98,17.178C134.988,167.12,127.984,159.919,127.984,149.942z M156.064,149.942
						c0-7.136-4.492-12.157-11.166-12.157c-6.673,0-11.166,5.021-11.166,12.157s4.493,12.156,11.166,12.156
						C151.572,162.099,156.064,157.078,156.064,149.942z"/>
					<path style="fill:#FF3500;" d="M168.092,119.813h5.616v46.778h-5.616V119.813z"/>
					<path style="fill:#FF3500;" d="M207.933,145.251v21.341h-5.55v-5.682c-1.916,3.832-6.276,6.21-11.1,6.21
						c-6.673,0-11.231-4.096-11.231-9.845c0-6.408,5.219-9.91,15.856-10.967l6.475-0.728v-0.66c0-4.56-3.237-7.466-8.126-7.466
						c-4.56,0-7.797,2.709-8.259,7.201l-5.22-0.991c0.991-6.606,6.475-10.901,13.479-10.901
						C202.318,132.764,207.933,137.52,207.933,145.251z M202.383,151.527v-1.585l-6.475,0.727
						c-6.739,0.727-10.241,3.039-10.241,6.541c0,3.105,2.644,5.285,6.476,5.285C198.618,162.495,202.383,158.201,202.383,151.527z"
						/>
					<path style="fill:#FF3500;" d="M221.679,161.768v4.823h-5.616v-46.778h5.616v18.235c2.114-3.104,6.475-5.285,10.901-5.285
						c10.308,0,15.989,7.4,15.989,17.179s-5.682,17.178-16.055,17.178C227.625,167.12,223.199,164.808,221.679,161.768z
						 M242.822,149.942c0-7.334-4.295-12.157-10.836-12.157s-10.77,4.823-10.77,12.157c0,7.333,4.229,12.156,10.77,12.156
						S242.822,157.275,242.822,149.942z"/>
				</g>
			</g>
		</g>
		<g>
			<linearGradient id="SVGID_1_" gradientUnits="userSpaceOnUse" x1="61.8816" y1="54.9311" x2="85.741" y2="54.9311">
				<stop  offset="0" style="stop-color:#F47A00"/>
				<stop  offset="0.222" style="stop-color:#F57100"/>
				<stop  offset="0.584" style="stop-color:#F95900"/>
				<stop  offset="1" style="stop-color:#FF3500"/>
			</linearGradient>
			<path style="fill:url(#SVGID_1_);" d="M61.882,2.88l0,104.102c15.052-14.826,23.859-32.746,23.859-52.051
				C85.741,35.626,76.934,17.706,61.882,2.88z"/>
			
				<linearGradient id="SVGID_00000019679331911541141500000008763512298366050443_" gradientUnits="userSpaceOnUse" x1="85.741" y1="54.9311" x2="106.1218" y2="54.9311">
				<stop  offset="0" style="stop-color:#F47A00"/>
				<stop  offset="0.222" style="stop-color:#F57100"/>
				<stop  offset="0.584" style="stop-color:#F95900"/>
				<stop  offset="1" style="stop-color:#FF3500"/>
			</linearGradient>
			<path style="fill:url(#SVGID_00000019679331911541141500000008763512298366050443_);" d="M85.741,12.371l0,85.12
				c12.858-12.122,20.381-26.775,20.381-42.56C106.122,39.146,98.599,24.494,85.741,12.371z"/>
			
				<linearGradient id="SVGID_00000079480768751274494010000015223290228944409264_" gradientUnits="userSpaceOnUse" x1="106.1218" y1="54.9311" x2="123.4874" y2="54.9311">
				<stop  offset="0" style="stop-color:#F47A00"/>
				<stop  offset="0.222" style="stop-color:#F57100"/>
				<stop  offset="0.584" style="stop-color:#F95900"/>
				<stop  offset="1" style="stop-color:#FF3500"/>
			</linearGradient>
			<path style="fill:url(#SVGID_00000079480768751274494010000015223290228944409264_);" d="M106.122,20.549l0,68.765
				c10.956-9.793,17.366-21.63,17.366-34.382C123.487,42.179,117.077,30.342,106.122,20.549z"/>
			
				<linearGradient id="SVGID_00000067230543619078424960000009618144932957631922_" gradientUnits="userSpaceOnUse" x1="161.081" y1="54.9311" x2="184.9404" y2="54.9311">
				<stop  offset="0" style="stop-color:#FF3500"/>
				<stop  offset="0.416" style="stop-color:#F95900"/>
				<stop  offset="0.778" style="stop-color:#F57100"/>
				<stop  offset="1" style="stop-color:#F47A00"/>
			</linearGradient>
			<path style="fill:url(#SVGID_00000067230543619078424960000009618144932957631922_);" d="M184.94,106.982V2.88
				c-15.052,14.826-23.859,32.746-23.859,52.051C161.081,74.236,169.888,92.156,184.94,106.982z"/>
			
				<linearGradient id="SVGID_00000047032776536544525350000015694798753921994141_" gradientUnits="userSpaceOnUse" x1="140.669" y1="54.9311" x2="161.0498" y2="54.9311">
				<stop  offset="0" style="stop-color:#FF3500"/>
				<stop  offset="0.416" style="stop-color:#F95900"/>
				<stop  offset="0.778" style="stop-color:#F57100"/>
				<stop  offset="1" style="stop-color:#F47A00"/>
			</linearGradient>
			<path style="fill:url(#SVGID_00000047032776536544525350000015694798753921994141_);" d="M161.05,97.491v-85.12
				c-12.858,12.122-20.381,26.775-20.381,42.56C140.669,70.716,148.192,85.369,161.05,97.491z"/>
			
				<linearGradient id="SVGID_00000168102482355817411010000012170979953827922603_" gradientUnits="userSpaceOnUse" x1="123.2722" y1="54.9311" x2="140.6378" y2="54.9311">
				<stop  offset="0" style="stop-color:#FF3500"/>
				<stop  offset="0.416" style="stop-color:#F95900"/>
				<stop  offset="0.778" style="stop-color:#F57100"/>
				<stop  offset="1" style="stop-color:#F47A00"/>
			</linearGradient>
			<path style="fill:url(#SVGID_00000168102482355817411010000012170979953827922603_);" d="M140.638,89.313V20.549
				c-10.956,9.793-17.366,21.63-17.366,34.382C123.272,67.683,129.682,79.52,140.638,89.313z"/>
		</g>
	</g>
</g>
<g id="Layer_1">
</g>
</svg>
