<?xml version="1.0" encoding="iso-8859-1"?>
<!-- Generator: Adobe Illustrator 26.1.0, SVG Export Plug-In . SVG Version: 6.00 Build 0)  -->
<svg version="1.1" xmlns="http://www.w3.org/2000/svg" xmlns:xlink="http://www.w3.org/1999/xlink" x="0px" y="0px"
	 viewBox="0 0 252 170" style="enable-background:new 0 0 252 170;" xml:space="preserve">
<g id="logo-vert-on-gray">
	<g>
		<g>
			<g>
				<g>
					<path style="fill:#0A0B0C;" d="M32.501,166.592l-12.817-20.614H9.442v20.614H3.431v-46.249H20.08
						c8.787,0,14.535,5.087,14.535,12.817c0,5.682-3.237,10.043-8.589,11.893l13.347,21.539H32.501z M9.442,140.56h9.977
						c5.683,0,9.052-2.708,9.052-7.399s-3.369-7.466-9.052-7.466H9.442V140.56z"/>
					<path style="fill:#0A0B0C;" d="M69.307,145.251v21.341h-5.55v-5.682c-1.916,3.832-6.276,6.21-11.1,6.21
						c-6.673,0-11.232-4.096-11.232-9.845c0-6.408,5.22-9.91,15.857-10.967l6.475-0.728v-0.66c0-4.56-3.237-7.466-8.127-7.466
						c-4.559,0-7.796,2.709-8.259,7.201l-5.219-0.991c0.99-6.606,6.475-10.901,13.478-10.901
						C63.69,132.764,69.307,137.52,69.307,145.251z M63.757,151.527v-1.585l-6.475,0.727c-6.739,0.727-10.241,3.039-10.241,6.541
						c0,3.105,2.643,5.285,6.475,5.285C59.991,162.495,63.757,158.201,63.757,151.527z"/>
					<path style="fill:#0A0B0C;" d="M75.521,149.942c0-9.778,5.682-17.179,15.988-17.179c4.427,0,8.788,2.181,10.902,5.285v-18.235
						h5.615v46.778h-5.615v-4.823c-1.52,3.039-5.946,5.352-10.836,5.352C81.202,167.12,75.521,159.721,75.521,149.942z
						 M102.939,149.942c0-7.334-4.295-12.157-10.836-12.157s-10.835,4.823-10.835,12.157c0,7.333,4.294,12.156,10.835,12.156
						S102.939,157.275,102.939,149.942z"/>
					<path style="fill:#0A0B0C;" d="M115.034,123.117c0-2.246,1.651-3.964,3.898-3.964c2.312,0,4.03,1.718,4.03,3.964
						c0,2.181-1.718,3.898-4.03,3.898C116.686,127.016,115.034,125.298,115.034,123.117z M116.157,133.292h5.616v33.3h-5.616
						V133.292z"/>
					<path style="fill:#0A0B0C;" d="M127.985,149.942c0-9.977,7.003-17.179,16.914-17.179c9.844,0,16.979,7.202,16.979,17.179
						s-7.136,17.178-16.979,17.178C134.988,167.12,127.985,159.919,127.985,149.942z M156.064,149.942
						c0-7.136-4.492-12.157-11.165-12.157c-6.674,0-11.166,5.021-11.166,12.157s4.492,12.156,11.166,12.156
						C151.572,162.099,156.064,157.078,156.064,149.942z"/>
					<path style="fill:#0A0B0C;" d="M168.093,119.813h5.615v46.778h-5.615V119.813z"/>
					<path style="fill:#0A0B0C;" d="M207.934,145.251v21.341h-5.55v-5.682c-1.916,3.832-6.276,6.21-11.1,6.21
						c-6.673,0-11.232-4.096-11.232-9.845c0-6.408,5.22-9.91,15.857-10.967l6.475-0.728v-0.66c0-4.56-3.237-7.466-8.127-7.466
						c-4.559,0-7.796,2.709-8.259,7.201l-5.219-0.991c0.99-6.606,6.475-10.901,13.478-10.901
						C202.317,132.764,207.934,137.52,207.934,145.251z M202.384,151.527v-1.585l-6.475,0.727
						c-6.739,0.727-10.241,3.039-10.241,6.541c0,3.105,2.643,5.285,6.475,5.285C198.618,162.495,202.384,158.201,202.384,151.527z"
						/>
					<path style="fill:#0A0B0C;" d="M221.679,161.768v4.823h-5.615v-46.778h5.615v18.235c2.114-3.104,6.476-5.285,10.902-5.285
						c10.307,0,15.988,7.4,15.988,17.179s-5.682,17.178-16.055,17.178C227.625,167.12,223.198,164.808,221.679,161.768z
						 M242.821,149.942c0-7.334-4.294-12.157-10.835-12.157s-10.77,4.823-10.77,12.157c0,7.333,4.229,12.156,10.77,12.156
						S242.821,157.275,242.821,149.942z"/>
				</g>
			</g>
		</g>
		<g>
			<linearGradient id="SVGID_1_" gradientUnits="userSpaceOnUse" x1="61.8826" y1="54.9311" x2="85.742" y2="54.9311">
				<stop  offset="0" style="stop-color:#BCC0CE"/>
				<stop  offset="0.1333" style="stop-color:#B4B7C5"/>
				<stop  offset="0.3508" style="stop-color:#9DA0AD"/>
				<stop  offset="0.6253" style="stop-color:#777A85"/>
				<stop  offset="0.9433" style="stop-color:#44464F"/>
				<stop  offset="1" style="stop-color:#3A3C44"/>
			</linearGradient>
			<path style="fill:url(#SVGID_1_);" d="M61.883,2.88l0,104.102c15.052-14.826,23.859-32.746,23.859-52.051
				C85.742,35.626,76.935,17.706,61.883,2.88z"/>
			
				<linearGradient id="SVGID_00000089572767862739435450000004283891670614880424_" gradientUnits="userSpaceOnUse" x1="85.742" y1="54.9311" x2="106.1227" y2="54.9311">
				<stop  offset="0" style="stop-color:#BCC0CE"/>
				<stop  offset="0.1333" style="stop-color:#B4B7C5"/>
				<stop  offset="0.3508" style="stop-color:#9DA0AD"/>
				<stop  offset="0.6253" style="stop-color:#777A85"/>
				<stop  offset="0.9433" style="stop-color:#44464F"/>
				<stop  offset="1" style="stop-color:#3A3C44"/>
			</linearGradient>
			<path style="fill:url(#SVGID_00000089572767862739435450000004283891670614880424_);" d="M85.742,12.371l0,85.12
				c12.858-12.122,20.381-26.775,20.381-42.56C106.123,39.146,98.6,24.494,85.742,12.371z"/>
			
				<linearGradient id="SVGID_00000025424999290003757550000016181616863894420352_" gradientUnits="userSpaceOnUse" x1="106.1227" y1="54.9311" x2="123.4884" y2="54.9311">
				<stop  offset="0" style="stop-color:#BCC0CE"/>
				<stop  offset="0.1392" style="stop-color:#B7BAC8"/>
				<stop  offset="0.3214" style="stop-color:#A7ABB8"/>
				<stop  offset="0.5273" style="stop-color:#8E919D"/>
				<stop  offset="0.7509" style="stop-color:#6A6D77"/>
				<stop  offset="0.9862" style="stop-color:#3D3F47"/>
				<stop  offset="1" style="stop-color:#3A3C44"/>
			</linearGradient>
			<path style="fill:url(#SVGID_00000025424999290003757550000016181616863894420352_);" d="M106.123,20.549l0,68.765
				c10.956-9.793,17.366-21.63,17.366-34.382C123.488,42.179,117.078,30.342,106.123,20.549z"/>
			
				<linearGradient id="SVGID_00000138562335751539907830000002629772142448352656_" gradientUnits="userSpaceOnUse" x1="161.082" y1="54.9311" x2="184.9413" y2="54.9311">
				<stop  offset="0" style="stop-color:#3A3C44"/>
				<stop  offset="0.0567" style="stop-color:#44464F"/>
				<stop  offset="0.3747" style="stop-color:#777A85"/>
				<stop  offset="0.6492" style="stop-color:#9DA0AD"/>
				<stop  offset="0.8667" style="stop-color:#B4B7C5"/>
				<stop  offset="1" style="stop-color:#BCC0CE"/>
			</linearGradient>
			<path style="fill:url(#SVGID_00000138562335751539907830000002629772142448352656_);" d="M184.941,106.982V2.88
				c-15.052,14.826-23.859,32.746-23.859,52.051C161.082,74.236,169.889,92.156,184.941,106.982z"/>
			
				<linearGradient id="SVGID_00000065058711547393273720000014021250370779590280_" gradientUnits="userSpaceOnUse" x1="140.67" y1="54.9311" x2="161.0508" y2="54.9311">
				<stop  offset="0" style="stop-color:#3A3C44"/>
				<stop  offset="0.0567" style="stop-color:#44464F"/>
				<stop  offset="0.3747" style="stop-color:#777A85"/>
				<stop  offset="0.6492" style="stop-color:#9DA0AD"/>
				<stop  offset="0.8667" style="stop-color:#B4B7C5"/>
				<stop  offset="1" style="stop-color:#BCC0CE"/>
			</linearGradient>
			<path style="fill:url(#SVGID_00000065058711547393273720000014021250370779590280_);" d="M161.051,97.491v-85.12
				c-12.858,12.122-20.381,26.775-20.381,42.56C140.67,70.716,148.193,85.369,161.051,97.491z"/>
			
				<linearGradient id="SVGID_00000127742362143750824200000006091058444523460015_" gradientUnits="userSpaceOnUse" x1="123.2732" y1="54.9311" x2="140.6388" y2="54.9311">
				<stop  offset="0" style="stop-color:#3A3C44"/>
				<stop  offset="0.0138" style="stop-color:#3D3F47"/>
				<stop  offset="0.2491" style="stop-color:#6A6D77"/>
				<stop  offset="0.4727" style="stop-color:#8E919D"/>
				<stop  offset="0.6786" style="stop-color:#A7ABB8"/>
				<stop  offset="0.8608" style="stop-color:#B7BAC8"/>
				<stop  offset="1" style="stop-color:#BCC0CE"/>
			</linearGradient>
			<path style="fill:url(#SVGID_00000127742362143750824200000006091058444523460015_);" d="M140.639,89.313V20.549
				c-10.956,9.793-17.366,21.63-17.366,34.382C123.273,67.683,129.683,79.52,140.639,89.313z"/>
		</g>
	</g>
</g>
<g id="Layer_1">
</g>
</svg>
