<?xml version="1.0" encoding="iso-8859-1"?>
<!-- Generator: Adobe Illustrator 26.1.0, SVG Export Plug-In . SVG Version: 6.00 Build 0)  -->
<svg version="1.1" xmlns="http://www.w3.org/2000/svg" xmlns:xlink="http://www.w3.org/1999/xlink" x="0px" y="0px"
	 viewBox="0 0 252 170" style="enable-background:new 0 0 252 170;" xml:space="preserve">
<g id="logo-vert-on-redorange">
	<g>
		<g>
			<g>
				<g>
					<path style="fill:#F4F2F0;" d="M32.501,166.595l-12.817-20.614H9.442v20.614H3.431v-46.249H20.08
						c8.787,0,14.535,5.087,14.535,12.817c0,5.683-3.237,10.043-8.589,11.893l13.347,21.539H32.501z M9.442,140.564h9.977
						c5.683,0,9.052-2.709,9.052-7.4c0-4.69-3.369-7.466-9.052-7.466H9.442V140.564z"/>
					<path style="fill:#F4F2F0;" d="M69.307,145.255v21.341h-5.55v-5.682c-1.916,3.832-6.276,6.21-11.1,6.21
						c-6.673,0-11.232-4.096-11.232-9.844c0-6.409,5.22-9.911,15.857-10.968l6.475-0.727v-0.661c0-4.559-3.237-7.466-8.127-7.466
						c-4.559,0-7.796,2.709-8.259,7.201l-5.219-0.99c0.99-6.607,6.475-10.902,13.478-10.902
						C63.69,132.767,69.307,137.524,69.307,145.255z M63.757,151.532v-1.586l-6.475,0.727c-6.739,0.727-10.241,3.039-10.241,6.541
						c0,3.105,2.643,5.286,6.475,5.286C59.991,162.5,63.757,158.205,63.757,151.532z"/>
					<path style="fill:#F4F2F0;" d="M75.521,149.946c0-9.778,5.682-17.179,15.988-17.179c4.427,0,8.788,2.181,10.902,5.286v-18.235
						h5.615v46.777h-5.615v-4.823c-1.52,3.04-5.946,5.352-10.836,5.352C81.202,167.124,75.521,159.724,75.521,149.946z
						 M102.939,149.946c0-7.334-4.295-12.157-10.836-12.157s-10.835,4.823-10.835,12.157s4.294,12.157,10.835,12.157
						S102.939,157.28,102.939,149.946z"/>
					<path style="fill:#F4F2F0;" d="M115.034,123.121c0-2.246,1.651-3.964,3.898-3.964c2.312,0,4.03,1.718,4.03,3.964
						c0,2.181-1.718,3.898-4.03,3.898C116.686,127.019,115.034,125.302,115.034,123.121z M116.157,133.296h5.616v33.3h-5.616
						V133.296z"/>
					<path style="fill:#F4F2F0;" d="M127.985,149.946c0-9.977,7.003-17.179,16.914-17.179c9.844,0,16.979,7.202,16.979,17.179
						s-7.136,17.178-16.979,17.178C134.988,167.124,127.985,159.923,127.985,149.946z M156.064,149.946
						c0-7.136-4.492-12.157-11.165-12.157c-6.674,0-11.166,5.021-11.166,12.157s4.492,12.157,11.166,12.157
						C151.572,162.103,156.064,157.082,156.064,149.946z"/>
					<path style="fill:#F4F2F0;" d="M168.093,119.818h5.615v46.777h-5.615V119.818z"/>
					<path style="fill:#F4F2F0;" d="M207.934,145.255v21.341h-5.55v-5.682c-1.916,3.832-6.276,6.21-11.1,6.21
						c-6.673,0-11.232-4.096-11.232-9.844c0-6.409,5.22-9.911,15.857-10.968l6.475-0.727v-0.661c0-4.559-3.237-7.466-8.127-7.466
						c-4.559,0-7.796,2.709-8.259,7.201l-5.219-0.99c0.99-6.607,6.475-10.902,13.478-10.902
						C202.317,132.767,207.934,137.524,207.934,145.255z M202.384,151.532v-1.586l-6.475,0.727
						c-6.739,0.727-10.241,3.039-10.241,6.541c0,3.105,2.643,5.286,6.475,5.286C198.618,162.5,202.384,158.205,202.384,151.532z"/>
					<path style="fill:#F4F2F0;" d="M221.679,161.772v4.823h-5.615v-46.777h5.615v18.235c2.114-3.105,6.476-5.286,10.902-5.286
						c10.307,0,15.988,7.4,15.988,17.179s-5.682,17.178-16.055,17.178C227.625,167.124,223.198,164.812,221.679,161.772z
						 M242.821,149.946c0-7.334-4.294-12.157-10.835-12.157s-10.77,4.823-10.77,12.157s4.229,12.157,10.77,12.157
						S242.821,157.28,242.821,149.946z"/>
				</g>
			</g>
		</g>
		<g>
			<linearGradient id="SVGID_1_" gradientUnits="userSpaceOnUse" x1="61.8733" y1="54.9349" x2="85.7361" y2="54.9349">
				<stop  offset="0" style="stop-color:#FFC1E5"/>
				<stop  offset="0.0919" style="stop-color:#FFBEDC"/>
				<stop  offset="0.2418" style="stop-color:#FFB4C4"/>
				<stop  offset="0.4312" style="stop-color:#FFA59C"/>
				<stop  offset="0.6525" style="stop-color:#FF9065"/>
				<stop  offset="0.898" style="stop-color:#FF761F"/>
				<stop  offset="1" style="stop-color:#FF6A00"/>
			</linearGradient>
			<path style="fill:url(#SVGID_1_);" d="M61.873,2.876l0,104.117c15.054-14.828,23.863-32.751,23.863-52.059
				C85.736,35.627,76.928,17.704,61.873,2.876z"/>
			
				<linearGradient id="SVGID_00000174570098368988988760000001044510769478199738_" gradientUnits="userSpaceOnUse" x1="85.7361" y1="54.9349" x2="106.1198" y2="54.9349">
				<stop  offset="0" style="stop-color:#FFC1E5"/>
				<stop  offset="0.0919" style="stop-color:#FFBEDC"/>
				<stop  offset="0.2418" style="stop-color:#FFB4C4"/>
				<stop  offset="0.4312" style="stop-color:#FFA59C"/>
				<stop  offset="0.6525" style="stop-color:#FF9065"/>
				<stop  offset="0.898" style="stop-color:#FF761F"/>
				<stop  offset="1" style="stop-color:#FF6A00"/>
			</linearGradient>
			<path style="fill:url(#SVGID_00000174570098368988988760000001044510769478199738_);" d="M85.736,12.369l0,85.132
				c12.86-12.124,20.384-26.779,20.384-42.566C106.12,39.148,98.596,24.493,85.736,12.369z"/>
			
				<linearGradient id="SVGID_00000070836804377149162950000007629309660666085026_" gradientUnits="userSpaceOnUse" x1="106.1198" y1="54.9349" x2="123.488" y2="54.9349">
				<stop  offset="0" style="stop-color:#FFC1E5"/>
				<stop  offset="0.0919" style="stop-color:#FFBEDC"/>
				<stop  offset="0.2418" style="stop-color:#FFB4C4"/>
				<stop  offset="0.4312" style="stop-color:#FFA59C"/>
				<stop  offset="0.6525" style="stop-color:#FF9065"/>
				<stop  offset="0.898" style="stop-color:#FF761F"/>
				<stop  offset="1" style="stop-color:#FF6A00"/>
			</linearGradient>
			<path style="fill:url(#SVGID_00000070836804377149162950000007629309660666085026_);" d="M106.12,20.548l0,68.774
				c10.957-9.795,17.368-21.634,17.368-34.387C123.488,42.181,117.077,30.342,106.12,20.548z"/>
			
				<linearGradient id="SVGID_00000171707862847237089630000002450842642068838314_" gradientUnits="userSpaceOnUse" x1="161.0869" y1="54.9349" x2="184.9497" y2="54.9349">
				<stop  offset="0" style="stop-color:#FF6A00"/>
				<stop  offset="0.102" style="stop-color:#FF761F"/>
				<stop  offset="0.3475" style="stop-color:#FF9065"/>
				<stop  offset="0.5688" style="stop-color:#FFA59C"/>
				<stop  offset="0.7582" style="stop-color:#FFB4C4"/>
				<stop  offset="0.9081" style="stop-color:#FFBEDC"/>
				<stop  offset="1" style="stop-color:#FFC1E5"/>
			</linearGradient>
			<path style="fill:url(#SVGID_00000171707862847237089630000002450842642068838314_);" d="M184.95,106.994V2.876
				c-15.054,14.828-23.863,32.751-23.863,52.059C161.087,74.243,169.895,92.166,184.95,106.994z"/>
			
				<linearGradient id="SVGID_00000059288083166402085140000017116981889328208531_" gradientUnits="userSpaceOnUse" x1="140.672" y1="54.9349" x2="161.0557" y2="54.9349">
				<stop  offset="0" style="stop-color:#FF6A00"/>
				<stop  offset="0.102" style="stop-color:#FF761F"/>
				<stop  offset="0.3475" style="stop-color:#FF9065"/>
				<stop  offset="0.5688" style="stop-color:#FFA59C"/>
				<stop  offset="0.7582" style="stop-color:#FFB4C4"/>
				<stop  offset="0.9081" style="stop-color:#FFBEDC"/>
				<stop  offset="1" style="stop-color:#FFC1E5"/>
			</linearGradient>
			<path style="fill:url(#SVGID_00000059288083166402085140000017116981889328208531_);" d="M161.056,97.501V12.369
				c-12.86,12.124-20.384,26.779-20.384,42.566C140.672,70.722,148.196,85.377,161.056,97.501z"/>
			
				<linearGradient id="SVGID_00000176004445982523271570000012866171073169050780_" gradientUnits="userSpaceOnUse" x1="123.2727" y1="54.9349" x2="140.6408" y2="54.9349">
				<stop  offset="0" style="stop-color:#FF6A00"/>
				<stop  offset="0.102" style="stop-color:#FF761F"/>
				<stop  offset="0.3475" style="stop-color:#FF9065"/>
				<stop  offset="0.5688" style="stop-color:#FFA59C"/>
				<stop  offset="0.7582" style="stop-color:#FFB4C4"/>
				<stop  offset="0.9081" style="stop-color:#FFBEDC"/>
				<stop  offset="1" style="stop-color:#FFC1E5"/>
			</linearGradient>
			<path style="fill:url(#SVGID_00000176004445982523271570000012866171073169050780_);" d="M140.641,89.322V20.548
				c-10.957,9.795-17.368,21.634-17.368,34.387C123.273,67.689,129.684,79.528,140.641,89.322z"/>
		</g>
	</g>
</g>
<g id="Layer_1">
</g>
</svg>
