<?xml version="1.0" encoding="iso-8859-1"?>
<!-- Generator: Adobe Illustrator 26.1.0, SVG Export Plug-In . SVG Version: 6.00 Build 0)  -->
<svg version="1.1" xmlns="http://www.w3.org/2000/svg" xmlns:xlink="http://www.w3.org/1999/xlink" x="0px" y="0px"
	 viewBox="0 0 320 57" style="enable-background:new 0 0 320 57;" xml:space="preserve">
<g id="logo-horz-on-blue2">
	<g>
		<g>
			<path style="fill:#F4F2F0;" d="M108.904,49.553L96.526,29.644h-9.892v19.909h-5.807V4.885h16.081
				c8.486,0,14.038,4.913,14.038,12.379c0,5.488-3.127,9.7-8.295,11.486l12.89,20.803H108.904z M86.634,24.412h9.636
				c5.488,0,8.742-2.616,8.742-7.147c0-4.53-3.254-7.211-8.742-7.211h-9.636V24.412z"/>
			<path style="fill:#F4F2F0;" d="M144.444,28.942v20.611h-5.359v-5.487c-1.851,3.701-6.062,5.998-10.721,5.998
				c-6.445,0-10.849-3.956-10.849-9.508c0-6.19,5.042-9.572,15.315-10.593l6.254-0.702v-0.639c0-4.402-3.127-7.21-7.85-7.21
				c-4.402,0-7.529,2.616-7.977,6.955l-5.041-0.957c0.957-6.381,6.254-10.529,13.018-10.529
				C139.021,16.881,144.444,21.476,144.444,28.942z M139.085,35.004v-1.531l-6.254,0.701c-6.509,0.702-9.891,2.936-9.891,6.317
				c0,3,2.552,5.105,6.253,5.105C135.447,45.597,139.085,41.45,139.085,35.004z"/>
			<path style="fill:#F4F2F0;" d="M150.441,33.473c0-9.444,5.487-16.592,15.442-16.592c4.275,0,8.487,2.106,10.529,5.105V4.375
				h5.424v45.179h-5.424v-4.658c-1.468,2.936-5.743,5.169-10.466,5.169C155.928,50.064,150.441,42.917,150.441,33.473z
				 M176.922,33.473c0-7.084-4.147-11.742-10.465-11.742s-10.465,4.658-10.465,11.742c0,7.083,4.147,11.741,10.465,11.741
				S176.922,40.556,176.922,33.473z"/>
			<path style="fill:#F4F2F0;" d="M188.597,7.565c0-2.17,1.595-3.829,3.765-3.829c2.233,0,3.893,1.659,3.893,3.829
				c0,2.105-1.659,3.765-3.893,3.765C190.192,11.33,188.597,9.671,188.597,7.565z M189.682,17.392h5.424v32.161h-5.424V17.392z"/>
			<path style="fill:#F4F2F0;" d="M201.103,33.473c0-9.636,6.764-16.592,16.336-16.592c9.508,0,16.399,6.956,16.399,16.592
				s-6.892,16.591-16.399,16.591C207.866,50.064,201.103,43.109,201.103,33.473z M228.223,33.473c0-6.893-4.34-11.742-10.784-11.742
				c-6.445,0-10.784,4.85-10.784,11.742c0,6.892,4.339,11.741,10.784,11.741C223.883,45.214,228.223,40.365,228.223,33.473z"/>
			<path style="fill:#F4F2F0;" d="M239.833,4.375h5.424v45.179h-5.424V4.375z"/>
			<path style="fill:#F4F2F0;" d="M278.31,28.942v20.611h-5.359v-5.487c-1.851,3.701-6.062,5.998-10.721,5.998
				c-6.445,0-10.849-3.956-10.849-9.508c0-6.19,5.042-9.572,15.315-10.593l6.254-0.702v-0.639c0-4.402-3.127-7.21-7.85-7.21
				c-4.402,0-7.529,2.616-7.977,6.955l-5.041-0.957c0.957-6.381,6.254-10.529,13.018-10.529
				C272.886,16.881,278.31,21.476,278.31,28.942z M272.95,35.004v-1.531l-6.254,0.701c-6.509,0.702-9.891,2.936-9.891,6.317
				c0,3,2.552,5.105,6.253,5.105C269.313,45.597,272.95,41.45,272.95,35.004z"/>
			<path style="fill:#F4F2F0;" d="M291.58,44.895v4.658h-5.424V4.375h5.424v17.612c2.042-2.999,6.254-5.105,10.529-5.105
				c9.954,0,15.442,7.147,15.442,16.592c0,9.443-5.488,16.591-15.507,16.591C297.323,50.064,293.048,47.831,291.58,44.895z
				 M312,33.473c0-7.084-4.147-11.742-10.465-11.742s-10.401,4.658-10.401,11.742c0,7.083,4.084,11.741,10.401,11.741
				S312,40.556,312,33.473z"/>
		</g>
		<g>
			<linearGradient id="SVGID_1_" gradientUnits="userSpaceOnUse" x1="0.8571" y1="27.4204" x2="12.9033" y2="27.4204">
				<stop  offset="0" style="stop-color:#90D8FC"/>
				<stop  offset="1" style="stop-color:#FFC1E5"/>
			</linearGradient>
			<path style="fill:url(#SVGID_1_);" d="M0.857,1.141l0,52.56c7.6-7.485,12.046-16.533,12.046-26.28
				C12.903,17.674,8.457,8.626,0.857,1.141z"/>
			
				<linearGradient id="SVGID_00000109723232851925436690000003737269054415796927_" gradientUnits="userSpaceOnUse" x1="12.9033" y1="27.4204" x2="23.1933" y2="27.4204">
				<stop  offset="0" style="stop-color:#90D8FC"/>
				<stop  offset="1" style="stop-color:#FFC1E5"/>
			</linearGradient>
			<path style="fill:url(#SVGID_00000109723232851925436690000003737269054415796927_);" d="M12.903,5.933l0,42.976
				c6.492-6.12,10.29-13.518,10.29-21.488C23.193,19.451,19.395,12.053,12.903,5.933z"/>
			
				<linearGradient id="SVGID_00000104681234681456986320000017304861176227730109_" gradientUnits="userSpaceOnUse" x1="23.1933" y1="27.4204" x2="31.9609" y2="27.4204">
				<stop  offset="0" style="stop-color:#90D8FC"/>
				<stop  offset="1" style="stop-color:#FFC1E5"/>
			</linearGradient>
			<path style="fill:url(#SVGID_00000104681234681456986320000017304861176227730109_);" d="M23.193,10.061l0,34.718
				c5.531-4.944,8.768-10.921,8.768-17.359C31.961,20.982,28.725,15.006,23.193,10.061z"/>
			
				<linearGradient id="SVGID_00000029733572350203952970000008759859301753334962_" gradientUnits="userSpaceOnUse" x1="50.9413" y1="27.4204" x2="62.9875" y2="27.4204">
				<stop  offset="0" style="stop-color:#FFC1E5"/>
				<stop  offset="1" style="stop-color:#90D8FC"/>
			</linearGradient>
			<path style="fill:url(#SVGID_00000029733572350203952970000008759859301753334962_);" d="M62.987,53.7V1.141
				c-7.6,7.485-12.046,16.533-12.046,26.28C50.941,37.167,55.388,46.215,62.987,53.7z"/>
			
				<linearGradient id="SVGID_00000047748086959488564380000001803490950240807607_" gradientUnits="userSpaceOnUse" x1="40.6356" y1="27.4204" x2="50.9255" y2="27.4204">
				<stop  offset="0" style="stop-color:#FFC1E5"/>
				<stop  offset="1" style="stop-color:#90D8FC"/>
			</linearGradient>
			<path style="fill:url(#SVGID_00000047748086959488564380000001803490950240807607_);" d="M50.926,48.908l0-42.976
				c-6.492,6.12-10.29,13.518-10.29,21.488C40.636,35.39,44.434,42.788,50.926,48.908z"/>
			
				<linearGradient id="SVGID_00000011027105375090605090000015626943009048865942_" gradientUnits="userSpaceOnUse" x1="31.8522" y1="27.4204" x2="40.6199" y2="27.4204">
				<stop  offset="0" style="stop-color:#FFC1E5"/>
				<stop  offset="1" style="stop-color:#90D8FC"/>
			</linearGradient>
			<path style="fill:url(#SVGID_00000011027105375090605090000015626943009048865942_);" d="M40.62,44.779V10.061
				c-5.531,4.944-8.768,10.921-8.768,17.359C31.852,33.859,35.089,39.835,40.62,44.779z"/>
		</g>
	</g>
</g>
<g id="Layer_1">
</g>
</svg>
