<?xml version="1.0" encoding="utf-8"?>
<!-- Generator: Adobe Illustrator 26.2.1, SVG Export Plug-In . SVG Version: 6.00 Build 0)  -->
<svg version="1.1" id="Layer_1" xmlns="http://www.w3.org/2000/svg" xmlns:xlink="http://www.w3.org/1999/xlink" x="0px" y="0px"
	 viewBox="0 0 18 18" style="enable-background:new 0 0 18 18;" xml:space="preserve">
<style type="text/css">
	.st0{fill:#0A0B0C;}
	.st1{fill:#FFFFFF;}
</style>
<circle class="st0" cx="9" cy="9" r="9"/>
<path class="st1" d="M6.8,13.5L6.8,13.5c-0.5,0-0.8-0.4-0.8-0.8V5.3c0-0.5,0.4-0.8,0.8-0.8h0c0.5,0,0.8,0.4,0.8,0.8v7.3
	C7.6,13.1,7.2,13.5,6.8,13.5z"/>
<path class="st1" d="M11.2,13.5L11.2,13.5c-0.5,0-0.8-0.4-0.8-0.8V5.3c0-0.5,0.4-0.8,0.8-0.8h0c0.5,0,0.8,0.4,0.8,0.8v7.3
	C12,13.1,11.7,13.5,11.2,13.5z"/>
</svg>
