<?xml version="1.0" encoding="iso-8859-1"?>
<!-- Generator: Adobe Illustrator 26.1.0, SVG Export Plug-In . SVG Version: 6.00 Build 0)  -->
<svg version="1.1" xmlns="http://www.w3.org/2000/svg" xmlns:xlink="http://www.w3.org/1999/xlink" x="0px" y="0px"
	 viewBox="0 0 194 166" style="enable-background:new 0 0 194 166;" xml:space="preserve">
<g id="rl-icon-on-redorange">
	<g>
		<linearGradient id="SVGID_1_" gradientUnits="userSpaceOnUse" x1="2.2133" y1="83" x2="38.9689" y2="83">
			<stop  offset="0" style="stop-color:#BCC0CE"/>
			<stop  offset="0.1333" style="stop-color:#B4B7C5"/>
			<stop  offset="0.3508" style="stop-color:#9DA0AD"/>
			<stop  offset="0.6253" style="stop-color:#777A85"/>
			<stop  offset="0.9433" style="stop-color:#44464F"/>
			<stop  offset="1" style="stop-color:#3A3C44"/>
		</linearGradient>
		<path style="fill:url(#SVGID_1_);" d="M2.213,2.815l0,160.371C25.402,140.346,38.969,112.74,38.969,83
			C38.969,53.26,25.402,25.654,2.213,2.815z"/>
		
			<linearGradient id="SVGID_00000084517008912079401710000003901571114529565568_" gradientUnits="userSpaceOnUse" x1="38.9689" y1="83" x2="70.3658" y2="83">
			<stop  offset="0" style="stop-color:#BCC0CE"/>
			<stop  offset="0.1333" style="stop-color:#B4B7C5"/>
			<stop  offset="0.3508" style="stop-color:#9DA0AD"/>
			<stop  offset="0.6253" style="stop-color:#777A85"/>
			<stop  offset="0.9433" style="stop-color:#44464F"/>
			<stop  offset="1" style="stop-color:#3A3C44"/>
		</linearGradient>
		<path style="fill:url(#SVGID_00000084517008912079401710000003901571114529565568_);" d="M38.969,17.436l0,131.128
			C58.776,129.889,70.366,107.317,70.366,83C70.366,58.683,58.776,36.111,38.969,17.436z"/>
		
			<linearGradient id="SVGID_00000049927867697820934140000008034435993583816105_" gradientUnits="userSpaceOnUse" x1="70.3658" y1="83" x2="97.1178" y2="83">
			<stop  offset="0" style="stop-color:#BCC0CE"/>
			<stop  offset="0.1333" style="stop-color:#B4B7C5"/>
			<stop  offset="0.3508" style="stop-color:#9DA0AD"/>
			<stop  offset="0.6253" style="stop-color:#777A85"/>
			<stop  offset="0.9433" style="stop-color:#44464F"/>
			<stop  offset="1" style="stop-color:#3A3C44"/>
		</linearGradient>
		<path style="fill:url(#SVGID_00000049927867697820934140000008034435993583816105_);" d="M70.366,30.034l0,105.933
			C87.243,120.88,97.118,102.644,97.118,83C97.118,63.356,87.243,45.12,70.366,30.034z"/>
		
			<linearGradient id="SVGID_00000101099422036928204030000008671695425169522826_" gradientUnits="userSpaceOnUse" x1="155.0311" y1="83" x2="191.7867" y2="83">
			<stop  offset="0" style="stop-color:#3A3C44"/>
			<stop  offset="0.0567" style="stop-color:#44464F"/>
			<stop  offset="0.3747" style="stop-color:#777A85"/>
			<stop  offset="0.6492" style="stop-color:#9DA0AD"/>
			<stop  offset="0.8667" style="stop-color:#B4B7C5"/>
			<stop  offset="1" style="stop-color:#BCC0CE"/>
		</linearGradient>
		<path style="fill:url(#SVGID_00000101099422036928204030000008671695425169522826_);" d="M191.787,163.186V2.815
			C168.598,25.654,155.031,53.26,155.031,83C155.031,112.74,168.598,140.346,191.787,163.186z"/>
		
			<linearGradient id="SVGID_00000150819143585273253250000001048583295349598875_" gradientUnits="userSpaceOnUse" x1="123.5862" y1="83" x2="154.983" y2="83">
			<stop  offset="0" style="stop-color:#3A3C44"/>
			<stop  offset="0.0567" style="stop-color:#44464F"/>
			<stop  offset="0.3747" style="stop-color:#777A85"/>
			<stop  offset="0.6492" style="stop-color:#9DA0AD"/>
			<stop  offset="0.8667" style="stop-color:#B4B7C5"/>
			<stop  offset="1" style="stop-color:#BCC0CE"/>
		</linearGradient>
		<path style="fill:url(#SVGID_00000150819143585273253250000001048583295349598875_);" d="M154.983,148.564l0-131.128
			C135.176,36.111,123.586,58.683,123.586,83C123.586,107.317,135.176,129.889,154.983,148.564z"/>
		
			<linearGradient id="SVGID_00000153704374881543245370000000829605961779771287_" gradientUnits="userSpaceOnUse" x1="96.7862" y1="83" x2="123.5382" y2="83">
			<stop  offset="0" style="stop-color:#3A3C44"/>
			<stop  offset="0.0567" style="stop-color:#44464F"/>
			<stop  offset="0.3747" style="stop-color:#777A85"/>
			<stop  offset="0.6492" style="stop-color:#9DA0AD"/>
			<stop  offset="0.8667" style="stop-color:#B4B7C5"/>
			<stop  offset="1" style="stop-color:#BCC0CE"/>
		</linearGradient>
		<path style="fill:url(#SVGID_00000153704374881543245370000000829605961779771287_);" d="M123.538,135.966l0-105.933
			C106.661,45.12,96.786,63.356,96.786,83C96.786,102.644,106.661,120.88,123.538,135.966z"/>
	</g>
	<g>
		
			<linearGradient id="SVGID_00000116952306490977964160000009399281617506765753_" gradientUnits="userSpaceOnUse" x1="2.2133" y1="83" x2="38.9689" y2="83">
			<stop  offset="0" style="stop-color:#FFC1E5"/>
			<stop  offset="0.0919" style="stop-color:#FFBEDC"/>
			<stop  offset="0.2418" style="stop-color:#FFB4C4"/>
			<stop  offset="0.4312" style="stop-color:#FFA59C"/>
			<stop  offset="0.6525" style="stop-color:#FF9065"/>
			<stop  offset="0.898" style="stop-color:#FF761F"/>
			<stop  offset="1" style="stop-color:#FF6A00"/>
		</linearGradient>
		<path style="fill:url(#SVGID_00000116952306490977964160000009399281617506765753_);" d="M2.213,2.815l0,160.371
			C25.402,140.346,38.969,112.74,38.969,83C38.969,53.26,25.402,25.654,2.213,2.815z"/>
		
			<linearGradient id="SVGID_00000047040287388134019100000009225513992087495815_" gradientUnits="userSpaceOnUse" x1="38.9689" y1="83" x2="70.3658" y2="83">
			<stop  offset="0" style="stop-color:#FFC1E5"/>
			<stop  offset="0.0919" style="stop-color:#FFBEDC"/>
			<stop  offset="0.2418" style="stop-color:#FFB4C4"/>
			<stop  offset="0.4312" style="stop-color:#FFA59C"/>
			<stop  offset="0.6525" style="stop-color:#FF9065"/>
			<stop  offset="0.898" style="stop-color:#FF761F"/>
			<stop  offset="1" style="stop-color:#FF6A00"/>
		</linearGradient>
		<path style="fill:url(#SVGID_00000047040287388134019100000009225513992087495815_);" d="M38.969,17.436l0,131.128
			C58.776,129.889,70.366,107.317,70.366,83C70.366,58.683,58.776,36.111,38.969,17.436z"/>
		
			<linearGradient id="SVGID_00000089572309291457674380000008583879398014395568_" gradientUnits="userSpaceOnUse" x1="70.3658" y1="83" x2="97.1178" y2="83">
			<stop  offset="0" style="stop-color:#FFC1E5"/>
			<stop  offset="0.0919" style="stop-color:#FFBEDC"/>
			<stop  offset="0.2418" style="stop-color:#FFB4C4"/>
			<stop  offset="0.4312" style="stop-color:#FFA59C"/>
			<stop  offset="0.6525" style="stop-color:#FF9065"/>
			<stop  offset="0.898" style="stop-color:#FF761F"/>
			<stop  offset="1" style="stop-color:#FF6A00"/>
		</linearGradient>
		<path style="fill:url(#SVGID_00000089572309291457674380000008583879398014395568_);" d="M70.366,30.034l0,105.933
			C87.243,120.88,97.118,102.644,97.118,83C97.118,63.356,87.243,45.12,70.366,30.034z"/>
		
			<linearGradient id="SVGID_00000118395314593543216430000015226038220387614911_" gradientUnits="userSpaceOnUse" x1="155.0311" y1="83" x2="191.7867" y2="83">
			<stop  offset="0" style="stop-color:#FF6A00"/>
			<stop  offset="0.102" style="stop-color:#FF761F"/>
			<stop  offset="0.3475" style="stop-color:#FF9065"/>
			<stop  offset="0.5688" style="stop-color:#FFA59C"/>
			<stop  offset="0.7582" style="stop-color:#FFB4C4"/>
			<stop  offset="0.9081" style="stop-color:#FFBEDC"/>
			<stop  offset="1" style="stop-color:#FFC1E5"/>
		</linearGradient>
		<path style="fill:url(#SVGID_00000118395314593543216430000015226038220387614911_);" d="M191.787,163.186V2.815
			C168.598,25.654,155.031,53.26,155.031,83C155.031,112.74,168.598,140.346,191.787,163.186z"/>
		
			<linearGradient id="SVGID_00000033337460495183914910000002070858179609945476_" gradientUnits="userSpaceOnUse" x1="123.5862" y1="83" x2="154.983" y2="83">
			<stop  offset="0" style="stop-color:#FF6A00"/>
			<stop  offset="0.102" style="stop-color:#FF761F"/>
			<stop  offset="0.3475" style="stop-color:#FF9065"/>
			<stop  offset="0.5688" style="stop-color:#FFA59C"/>
			<stop  offset="0.7582" style="stop-color:#FFB4C4"/>
			<stop  offset="0.9081" style="stop-color:#FFBEDC"/>
			<stop  offset="1" style="stop-color:#FFC1E5"/>
		</linearGradient>
		<path style="fill:url(#SVGID_00000033337460495183914910000002070858179609945476_);" d="M154.983,148.564l0-131.128
			C135.176,36.111,123.586,58.683,123.586,83C123.586,107.317,135.176,129.889,154.983,148.564z"/>
		
			<linearGradient id="SVGID_00000078025927371996332170000002128223340766351767_" gradientUnits="userSpaceOnUse" x1="96.7862" y1="83" x2="123.5382" y2="83">
			<stop  offset="0" style="stop-color:#FF6A00"/>
			<stop  offset="0.102" style="stop-color:#FF761F"/>
			<stop  offset="0.3475" style="stop-color:#FF9065"/>
			<stop  offset="0.5688" style="stop-color:#FFA59C"/>
			<stop  offset="0.7582" style="stop-color:#FFB4C4"/>
			<stop  offset="0.9081" style="stop-color:#FFBEDC"/>
			<stop  offset="1" style="stop-color:#FFC1E5"/>
		</linearGradient>
		<path style="fill:url(#SVGID_00000078025927371996332170000002128223340766351767_);" d="M123.538,135.966l0-105.933
			C106.661,45.12,96.786,63.356,96.786,83C96.786,102.644,106.661,120.88,123.538,135.966z"/>
	</g>
</g>
<g id="Layer_1">
</g>
</svg>
