<?xml version="1.0" encoding="utf-8"?>
<!-- Generator: Adobe Illustrator 26.0.3, SVG Export Plug-In . SVG Version: 6.00 Build 0)  -->
<svg version="1.1" id="Layer_1" xmlns="http://www.w3.org/2000/svg" xmlns:xlink="http://www.w3.org/1999/xlink" x="0px" y="0px"
	 viewBox="0 0 276 228" style="enable-background:new 0 0 276 228;" xml:space="preserve">
<style type="text/css">
	.st0{fill:#F4F2F0;}
</style>
<g>
	<path class="st0" d="M272.2,51.3h-38.9c-0.9,1.9-1.9,3.9-2.7,6h41.6V51.3z"/>
	<path class="st0" d="M272.2,63.3h-44c-0.8,2-1.5,4-2.1,6h46.2V63.3z"/>
	<path class="st0" d="M272.2,75.2h-48c-0.6,2-1.1,4-1.6,6h49.6V75.2z"/>
	<path class="st0" d="M272.2,27.3h-25c-1.4,2-2.7,4-4,6h29V27.3z"/>
	<path class="st0" d="M272.2,39.3h-32.6c-1.2,2-2.3,4-3.4,6h36V39.3z"/>
	<path class="st0" d="M272.3,3.3h-5.5l-5.5,6h11V3.3z"/>
	<path class="st0" d="M272.2,15.3H256c-1.6,1.9-3.1,3.9-4.7,6H272L272.2,15.3z"/>
	<path class="st0" d="M272.2,87.3h-50.9c-0.4,2-0.7,4-1.1,6h52V87.3z"/>
	<path class="st0" d="M272.2,99.3h-52.8c0,2-0.3,4-0.5,6h53.5L272.2,99.3z"/>
	<path class="st0" d="M272.2,117.3v-6h-53.5c0,1.1,0,2.3,0,3.4c0,1.1,0,1.7,0,2.6H272.2z"/>
	<path class="st0" d="M218.9,123.2c0,2.1,0,4,0.5,6h52.8v-6H218.9z"/>
	<path class="st0" d="M220.2,135.3l1,6h51v-6H220.2z"/>
	<path class="st0" d="M222.6,147.3c0.5,2,1,4,1.6,6h48.2v-6H222.6z"/>
	<path class="st0" d="M226,159.2c0.7,2.1,1.4,4,2.2,6h44.1v-6H226z"/>
	<path class="st0" d="M230.6,171.3c0.9,2,1.7,4,2.7,6h38.9v-6H230.6z"/>
	<path class="st0" d="M239.9,189.3h32.4v-6h-35.9C237.5,185.2,238.7,187,239.9,189.3z"/>
	<path class="st0" d="M247.7,201.2h24.6v-6h-28.6C244.9,197.3,246.3,199.2,247.7,201.2z"/>
	<path class="st0" d="M256.9,213.3h15.3V207h-20.1C253.7,209.2,255.3,211.3,256.9,213.3z"/>
	<path class="st0" d="M267.7,225.2h4.5v-6h-10.2C263.9,221.2,265.7,223.2,267.7,225.2z"/>
	<path class="st0" d="M218.6,51.7v-6h-23.8c-1.3,1.9-2.5,3.9-3.6,6H218.6z"/>
	<path class="st0" d="M218.6,63.7v-6h-30.7c-1,2-2,4-2.9,6H218.6z"/>
	<path class="st0" d="M218.6,75.7v-6h-36.1c-0.8,2-1.5,4-2.2,6H218.6z"/>
	<path class="st0" d="M218.6,27.7v-6h-5c-1.9,2-3.7,4-5.4,6H218.6z"/>
	<path class="st0" d="M218.6,39.8v-6h-15.3c-1.5,2-3.1,4-4.5,6H218.6z"/>
	<path class="st0" d="M218.6,87.6v-6h-40.1c-0.6,1.9-1.1,3.9-1.5,6H218.6z"/>
	<path class="st0" d="M218.6,100v-6h-42.8c-0.3,2-0.6,4-0.9,6H218.6z"/>
	<path class="st0" d="M218.6,111.7v-6H174c0,2,0,4,0,6H218.6z"/>
	<path class="st0" d="M174,123.6h44.6v-6h-44.8C173.8,119.7,173.9,121.7,174,123.6z"/>
	<path class="st0" d="M175.8,135.7h43.1v-6h-44C174.9,131.6,175.2,133.5,175.8,135.7z"/>
	<path class="st0" d="M178.3,147.6h40.1v-6h-41.8C177.2,143.6,177.7,145.6,178.3,147.6z"/>
	<path class="st0" d="M182.5,159.6h36.2v-6.1h-38.4C180.9,155.7,181.6,157.7,182.5,159.6z"/>
	<path class="st0" d="M187.9,171.7h30.7v-6h-33.4C185.9,167.7,186.9,169.7,187.9,171.7z"/>
	<path class="st0" d="M194.8,183.6h23.8v-6h-27.4C192.3,179.4,193.5,181.4,194.8,183.6z"/>
	<path class="st0" d="M203.3,195.6h15.3v-6h-20.1C200.3,191.7,201.8,193.7,203.3,195.6z"/>
	<path class="st0" d="M213.6,207.6h5v-6h-10.4C210,203.6,211.8,205.6,213.6,207.6z"/>
	<path class="st0" d="M173.6,51.3h-12.5c-1.5,1.9-3,3.9-4.4,6h16.9V51.3z"/>
	<path class="st0" d="M173.6,63.3h-20.8c-1.2,1.9-2.2,4-3.3,6h24.1V63.3z"/>
	<path class="st0" d="M173.6,75.2h-26.8c-0.9,2-1.7,4-2.5,6h29.4L173.6,75.2z"/>
	<path class="st0" d="M173.6,39.3h-2.1c-1.9,2-3.8,3.9-5.6,6h7.8V39.3z"/>
	<path class="st0" d="M173.6,87.3h-31.3c-0.6,2-1.3,4-1.7,6H174L173.6,87.3z"/>
	<path class="st0" d="M173.6,105.3v-6h-34.2c0,2-0.7,3.9-0.9,6H173.6z"/>
	<path class="st0" d="M139.4,117.3h34.3v-6h-35.4c0,1.1,0,2.3,0,3.4c0,1.1,0,1.7,0,2.6H139.4z"/>
	<path class="st0" d="M139.4,123.2h-0.8c0,2.1,0.5,4,0.7,6h34.3v-6H139.4z"/>
	<path class="st0" d="M140.4,135.3c0.4,2,1.1,4,1.7,6h31.6v-6H140.4z"/>
	<path class="st0" d="M143.9,147.3c0.7,2,1.6,4,2.5,6h27.3v-6H143.9z"/>
	<path class="st0" d="M149,159.2c1,2,2,4.1,3.2,6h21.3v-6H149z"/>
	<path class="st0" d="M156.2,171.3c1.3,2,2.7,4,4.3,6h13.4v-6H156.2z"/>
	<path class="st0" d="M165.2,183.2c1.8,2.1,3.7,4,5.6,6h2.8v-6H165.2z"/>
	<path class="st0" d="M3.9,51.3v6h41.6c-0.9-2-1.7-4-2.7-6H3.9z"/>
	<path class="st0" d="M3.9,63.3v6h46.2c-0.7-2-1.4-4-2.1-6H3.9z"/>
	<path class="st0" d="M3.9,75.2v6h49.6c-0.5-2-1-4-1.5-6H3.9z"/>
	<path class="st0" d="M3.9,33.1h28.9c-1.3-2-2.6-4-3.9-6h-25V33.1z"/>
	<path class="st0" d="M3.9,45.3h35.9c-1.1-2-2.2-4-3.3-6H3.9V45.3z"/>
	<path class="st0" d="M3.9,9.3h10.9c-1.7-2-3.6-4-5.5-6H3.9V9.3z"/>
	<path class="st0" d="M3.9,21.3h20.7c-1.5-2-3.1-4-4.7-6H3.9V21.3z"/>
	<path class="st0" d="M3.9,87.3v6h51.9c0-2-0.7-4-1.1-6H3.9z"/>
	<path class="st0" d="M3.9,99.3v6h53.5c0-2-0.3-4-0.5-6H3.9z"/>
	<path class="st0" d="M3.9,111.3v6h53.5c0-0.9,0-1.7,0-2.6c0-0.9,0-2.3,0-3.4H3.9z"/>
	<path class="st0" d="M3.9,123.2v6h52.8c0-2,0.4-3.9,0.5-6H3.9z"/>
	<path class="st0" d="M3.9,135.3v6h51c0.4-2,0.7-4,1-6H3.9z"/>
	<path class="st0" d="M3.9,147.3v6H52c0.6-2,1.1-4,1.6-6H3.9z"/>
	<path class="st0" d="M3.9,159.2v6H48c0.7-2,1.5-3.9,2.1-6H3.9z"/>
	<path class="st0" d="M3.9,171.3v6h38.9c0.9-2,1.9-4,2.7-6H3.9z"/>
	<path class="st0" d="M3.9,189.3h32.4c1.2-2,2.3-4,3.4-6H3.9V189.3z"/>
	<path class="st0" d="M3.9,201.2h24.7c1.5-2,2.8-3.9,4.1-6H4.1L3.9,201.2z"/>
	<path class="st0" d="M3.9,213.3h15.3c1.7-2,3.3-4,4.8-6H3.9V213.3z"/>
	<path class="st0" d="M3.9,225.2h4.6l5.6-6H4L3.9,225.2z"/>
	<path class="st0" d="M85,51.7c-1.2-2-2.4-4-3.7-6H57.5v6H85z"/>
	<path class="st0" d="M91.2,63.7c-0.9-2-1.9-4-2.9-6H57.5v6H91.2z"/>
	<path class="st0" d="M96,75.7c-0.7-2-1.5-4-2.3-6H57.5v6H96z"/>
	<path class="st0" d="M67.9,27.7c-1.8-2-3.5-4-5.4-6h-5v6H67.9z"/>
	<path class="st0" d="M77.3,39.8l-4.5-6H57.5v6H77.3z"/>
	<path class="st0" d="M99.4,87.6c-0.5-2-1-4-1.5-6H57.7v6H99.4z"/>
	<path class="st0" d="M101.5,100c0-2-0.6-4-0.9-6H57.5v6H101.5z"/>
	<path class="st0" d="M102.2,111.7c0-2,0-4-0.3-6H57.3v6H102.2z"/>
	<path class="st0" d="M57.5,123.6h44.7c0-1.9,0-3.9,0.3-6H57.6L57.5,123.6z"/>
	<path class="st0" d="M57.5,135.7h43.1c0.3-2,0.7-4,0.9-6h-44V135.7z"/>
	<path class="st0" d="M57.5,147.6h40.1c0.5-2,1.1-4,1.5-6H57.3L57.5,147.6z"/>
	<path class="st0" d="M57.5,159.6h36.2c0.8-1.9,1.5-3.9,2.3-6H57.5V159.6z"/>
	<path class="st0" d="M57.5,171.7h30.8c1-2,1.9-4,2.9-6H57.7L57.5,171.7z"/>
	<path class="st0" d="M57.5,183.6h23.8c1.3-2,2.5-4,3.7-6H57.5V183.6z"/>
	<path class="st0" d="M57.5,195.6h15.3c1.5-1.9,3-3.9,4.5-6H57.2L57.5,195.6z"/>
	<path class="st0" d="M57.5,207.6h5c1.9-2,3.6-4,5.4-6H57.5V207.6z"/>
	<path class="st0" d="M115,51.3h-12.8v6h16.9C118,55.3,116.6,53.2,115,51.3z"/>
	<path class="st0" d="M123.3,63.3h-21.1v6h24.1C125.5,67.3,124.5,65.2,123.3,63.3z"/>
	<path class="st0" d="M129.5,75.2h-26.8v6h29.4C131.3,79.3,130.4,77.3,129.5,75.2z"/>
	<path class="st0" d="M104.6,39.3h-2.4v6h7.8C108.5,43.2,106.5,41.3,104.6,39.3z"/>
	<path class="st0" d="M133.9,87.3h-31.7v6h33.4C135.1,91.3,134.5,89.3,133.9,87.3z"/>
	<path class="st0" d="M137.5,105.3c0-2.1-0.5-4-0.9-6h-34.5v6h35.1H137.5z"/>
	<path class="st0" d="M136.7,117.3h1.2c0-0.9,0-1.7,0-2.6c0-0.9,0-2.3,0-3.4h-35.7v6H136.7z"/>
	<path class="st0" d="M102.2,123.2v6h34.3c0.3-2,0.6-3.9,0.8-6H102.2z"/>
	<path class="st0" d="M102.2,135.3v6h31.6c0.6-2,1.2-4,1.7-6H102.2z"/>
	<path class="st0" d="M102.2,147.3v6h27.4c0.8-2,1.7-4,2.4-6H102.2z"/>
	<path class="st0" d="M102.2,159.2v6h21.3c1.1-1.9,2.1-4,3.1-6H102.2z"/>
	<path class="st0" d="M102.2,171.3v6h13.4l4.3-6H102.2z"/>
	<path class="st0" d="M102.2,183.2v6h2.9c1.9-2,3.8-3.9,5.6-6H102.2z"/>
</g>
</svg>
