<?xml version="1.0" encoding="iso-8859-1"?>
<!-- Generator: Adobe Illustrator 26.1.0, SVG Export Plug-In . SVG Version: 6.00 Build 0)  -->
<svg version="1.1" xmlns="http://www.w3.org/2000/svg" xmlns:xlink="http://www.w3.org/1999/xlink" x="0px" y="0px"
	 viewBox="0 0 194 166" style="enable-background:new 0 0 194 166;" xml:space="preserve">
<g id="rl-icon-on-blue">
	<g>
		<linearGradient id="SVGID_1_" gradientUnits="userSpaceOnUse" x1="2.2133" y1="83" x2="38.9689" y2="83">
			<stop  offset="0" style="stop-color:#90D8FC"/>
			<stop  offset="0.1319" style="stop-color:#87D0FA"/>
			<stop  offset="0.3471" style="stop-color:#6FB9F3"/>
			<stop  offset="0.6188" style="stop-color:#4793E8"/>
			<stop  offset="0.9335" style="stop-color:#1060D9"/>
			<stop  offset="1" style="stop-color:#0454D6"/>
		</linearGradient>
		<path style="fill:url(#SVGID_1_);" d="M2.213,2.815l0,160.371C25.402,140.346,38.969,112.74,38.969,83
			C38.969,53.26,25.402,25.654,2.213,2.815z"/>
		
			<linearGradient id="SVGID_00000120549505869621067640000002222398623129163918_" gradientUnits="userSpaceOnUse" x1="38.9689" y1="83" x2="70.3658" y2="83">
			<stop  offset="0" style="stop-color:#90D8FC"/>
			<stop  offset="0.1319" style="stop-color:#87D0FA"/>
			<stop  offset="0.3471" style="stop-color:#6FB9F3"/>
			<stop  offset="0.6188" style="stop-color:#4793E8"/>
			<stop  offset="0.9335" style="stop-color:#1060D9"/>
			<stop  offset="1" style="stop-color:#0454D6"/>
		</linearGradient>
		<path style="fill:url(#SVGID_00000120549505869621067640000002222398623129163918_);" d="M38.969,17.436l0,131.128
			C58.776,129.889,70.366,107.317,70.366,83C70.366,58.683,58.776,36.111,38.969,17.436z"/>
		
			<linearGradient id="SVGID_00000132806896744740056340000009014332993931362963_" gradientUnits="userSpaceOnUse" x1="70.3658" y1="83" x2="97.1178" y2="83">
			<stop  offset="0" style="stop-color:#90D8FC"/>
			<stop  offset="0.164" style="stop-color:#8CD4FB"/>
			<stop  offset="0.334" style="stop-color:#7FC8F7"/>
			<stop  offset="0.5067" style="stop-color:#6BB5F2"/>
			<stop  offset="0.6814" style="stop-color:#4E99EA"/>
			<stop  offset="0.8558" style="stop-color:#2976E0"/>
			<stop  offset="1" style="stop-color:#0454D6"/>
		</linearGradient>
		<path style="fill:url(#SVGID_00000132806896744740056340000009014332993931362963_);" d="M70.366,30.034l0,105.933
			C87.243,120.88,97.118,102.644,97.118,83C97.118,63.356,87.243,45.12,70.366,30.034z"/>
		
			<linearGradient id="SVGID_00000075156831327509961810000003127697476546517897_" gradientUnits="userSpaceOnUse" x1="155.0311" y1="83" x2="191.7867" y2="83">
			<stop  offset="0" style="stop-color:#0454D6"/>
			<stop  offset="0.0665" style="stop-color:#1060D9"/>
			<stop  offset="0.3812" style="stop-color:#4793E8"/>
			<stop  offset="0.6529" style="stop-color:#6FB9F3"/>
			<stop  offset="0.8681" style="stop-color:#87D0FA"/>
			<stop  offset="1" style="stop-color:#90D8FC"/>
		</linearGradient>
		<path style="fill:url(#SVGID_00000075156831327509961810000003127697476546517897_);" d="M191.787,163.186V2.815
			C168.598,25.654,155.031,53.26,155.031,83C155.031,112.74,168.598,140.346,191.787,163.186z"/>
		
			<linearGradient id="SVGID_00000096781999626455357910000005784977936500555692_" gradientUnits="userSpaceOnUse" x1="123.5862" y1="83" x2="154.983" y2="83">
			<stop  offset="0" style="stop-color:#0454D6"/>
			<stop  offset="0.0665" style="stop-color:#1060D9"/>
			<stop  offset="0.3812" style="stop-color:#4793E8"/>
			<stop  offset="0.6529" style="stop-color:#6FB9F3"/>
			<stop  offset="0.8681" style="stop-color:#87D0FA"/>
			<stop  offset="1" style="stop-color:#90D8FC"/>
		</linearGradient>
		<path style="fill:url(#SVGID_00000096781999626455357910000005784977936500555692_);" d="M154.983,148.564l0-131.128
			C135.176,36.111,123.586,58.683,123.586,83C123.586,107.317,135.176,129.889,154.983,148.564z"/>
		
			<linearGradient id="SVGID_00000087385063409518931340000005954549038446885762_" gradientUnits="userSpaceOnUse" x1="96.7862" y1="83" x2="123.5382" y2="83">
			<stop  offset="0" style="stop-color:#0454D6"/>
			<stop  offset="0.1442" style="stop-color:#2976E0"/>
			<stop  offset="0.3186" style="stop-color:#4E99EA"/>
			<stop  offset="0.4933" style="stop-color:#6BB5F2"/>
			<stop  offset="0.666" style="stop-color:#7FC8F7"/>
			<stop  offset="0.836" style="stop-color:#8CD4FB"/>
			<stop  offset="1" style="stop-color:#90D8FC"/>
		</linearGradient>
		<path style="fill:url(#SVGID_00000087385063409518931340000005954549038446885762_);" d="M123.538,135.966l0-105.933
			C106.661,45.12,96.786,63.356,96.786,83C96.786,102.644,106.661,120.88,123.538,135.966z"/>
	</g>
</g>
<g id="Layer_1">
</g>
</svg>
