<?xml version="1.0" encoding="utf-8"?>
<!-- Generator: Adobe Illustrator 26.1.0, SVG Export Plug-In . SVG Version: 6.00 Build 0)  -->
<svg version="1.1" id="rl-icon-solid-white" xmlns="http://www.w3.org/2000/svg" xmlns:xlink="http://www.w3.org/1999/xlink"
	 x="0px" y="0px" viewBox="0 0 194 166" style="enable-background:new 0 0 194 166;" xml:space="preserve">
<style type="text/css">
	.st0{fill:#F4F2F0;}
</style>
<g>
	<path class="st0" d="M2.2,2.8l0,160.4C25.4,140.3,39,112.7,39,83C39,53.3,25.4,25.7,2.2,2.8z"/>
	<path class="st0" d="M39,17.4l0,131.1c19.8-18.7,31.4-41.2,31.4-65.6C70.4,58.7,58.8,36.1,39,17.4z"/>
	<path class="st0" d="M70.4,30l0,105.9c16.9-15.1,26.8-33.3,26.8-53C97.1,63.4,87.2,45.1,70.4,30z"/>
	<path class="st0" d="M191.8,163.2V2.8C168.6,25.7,155,53.3,155,83C155,112.7,168.6,140.3,191.8,163.2z"/>
	<path class="st0" d="M155,148.6l0-131.1c-19.8,18.7-31.4,41.2-31.4,65.6C123.6,107.3,135.2,129.9,155,148.6z"/>
	<path class="st0" d="M123.5,136l0-105.9c-16.9,15.1-26.8,33.3-26.8,53C96.8,102.6,106.7,120.9,123.5,136z"/>
</g>
</svg>
