<?xml version="1.0" encoding="iso-8859-1"?>
<!-- Generator: Adobe Illustrator 26.1.0, SVG Export Plug-In . SVG Version: 6.00 Build 0)  -->
<svg version="1.1" xmlns="http://www.w3.org/2000/svg" xmlns:xlink="http://www.w3.org/1999/xlink" x="0px" y="0px"
	 viewBox="0 0 194 166" style="enable-background:new 0 0 194 166;" xml:space="preserve">
<g id="rl-icon-on-blue2">
	<g>
		<linearGradient id="SVGID_1_" gradientUnits="userSpaceOnUse" x1="2.2133" y1="83" x2="38.9689" y2="83">
			<stop  offset="0" style="stop-color:#90D8FC"/>
			<stop  offset="1" style="stop-color:#FFC1E5"/>
		</linearGradient>
		<path style="fill:url(#SVGID_1_);" d="M2.213,2.815l0,160.371C25.402,140.346,38.969,112.74,38.969,83
			C38.969,53.26,25.402,25.654,2.213,2.815z"/>
		
			<linearGradient id="SVGID_00000018917490556301974570000013146239861075221632_" gradientUnits="userSpaceOnUse" x1="38.9689" y1="83" x2="70.3658" y2="83">
			<stop  offset="0" style="stop-color:#90D8FC"/>
			<stop  offset="1" style="stop-color:#FFC1E5"/>
		</linearGradient>
		<path style="fill:url(#SVGID_00000018917490556301974570000013146239861075221632_);" d="M38.969,17.436l0,131.128
			C58.776,129.889,70.366,107.317,70.366,83C70.366,58.683,58.776,36.111,38.969,17.436z"/>
		
			<linearGradient id="SVGID_00000101812050658171525990000005136695524214485919_" gradientUnits="userSpaceOnUse" x1="70.3658" y1="83" x2="97.1178" y2="83">
			<stop  offset="0" style="stop-color:#90D8FC"/>
			<stop  offset="1" style="stop-color:#FFC1E5"/>
		</linearGradient>
		<path style="fill:url(#SVGID_00000101812050658171525990000005136695524214485919_);" d="M70.366,30.034l0,105.933
			C87.243,120.88,97.118,102.644,97.118,83C97.118,63.356,87.243,45.12,70.366,30.034z"/>
		
			<linearGradient id="SVGID_00000116945293157714512930000003907735958354797717_" gradientUnits="userSpaceOnUse" x1="155.0311" y1="83" x2="191.7867" y2="83">
			<stop  offset="0" style="stop-color:#FFC1E5"/>
			<stop  offset="1" style="stop-color:#90D8FC"/>
		</linearGradient>
		<path style="fill:url(#SVGID_00000116945293157714512930000003907735958354797717_);" d="M191.787,163.186V2.815
			C168.598,25.654,155.031,53.26,155.031,83C155.031,112.74,168.598,140.346,191.787,163.186z"/>
		
			<linearGradient id="SVGID_00000021821842580093286550000002285551031601989526_" gradientUnits="userSpaceOnUse" x1="123.5862" y1="83" x2="154.983" y2="83">
			<stop  offset="0" style="stop-color:#FFC1E5"/>
			<stop  offset="1" style="stop-color:#90D8FC"/>
		</linearGradient>
		<path style="fill:url(#SVGID_00000021821842580093286550000002285551031601989526_);" d="M154.983,148.564l0-131.128
			C135.176,36.111,123.586,58.683,123.586,83C123.586,107.317,135.176,129.889,154.983,148.564z"/>
		
			<linearGradient id="SVGID_00000035514068329230019500000000327271643044241566_" gradientUnits="userSpaceOnUse" x1="96.7862" y1="83" x2="123.5382" y2="83">
			<stop  offset="0" style="stop-color:#FFC1E5"/>
			<stop  offset="1" style="stop-color:#90D8FC"/>
		</linearGradient>
		<path style="fill:url(#SVGID_00000035514068329230019500000000327271643044241566_);" d="M123.538,135.966l0-105.933
			C106.661,45.12,96.786,63.356,96.786,83C96.786,102.644,106.661,120.88,123.538,135.966z"/>
	</g>
</g>
<g id="Layer_1">
</g>
</svg>
