<?xml version="1.0" encoding="utf-8"?>
<!-- Generator: Adobe Illustrator 26.0.3, SVG Export Plug-In . SVG Version: 6.00 Build 0)  -->
<svg version="1.1" class="radio-lab-logo" xmlns="http://www.w3.org/2000/svg" xmlns:xlink="http://www.w3.org/1999/xlink" x="0px" y="0px"
	 viewBox="0 0 1742 304" style="enable-background:new 0 0 1742 304;" xml:space="preserve">
<style type="text/css">
	.st0{fill:#0A0B0C;}
</style>
<g>
	<path id="p1_00000121995820828902851010000013122932958939284612_" class="st0" d="M8,7.4v290.9c42.1-41.4,66.5-91.5,66.5-145.4
		S50.1,48.9,8,7.4z"/>
	<path id="p2_00000034066485751357445450000008806985358893728935_" class="st0" d="M74.1,34v237.6c35.9-33.8,57-74.8,57-118.9
		C131.1,108.6,110,67.8,74.1,34z"/>
	<path id="p5" class="st0" d="M283.6,271.6V33.9c-35.9,33.8-57,74.8-57,118.9C226.6,197,247.7,237.7,283.6,271.6z"/>
	<path id="p3" class="st0" d="M130.4,56.8v192.1c30.6-27.3,48.5-60.4,48.5-96C178.9,117.2,161,84.1,130.4,56.8z"/>
	<path id="p6" class="st0" d="M350.2,298.3V7.4c-42,41.4-66.5,91.4-66.5,145.4C283.6,206.8,308.2,256.8,350.2,298.3z"/>
	<path id="p4_00000141433297582784821650000003520182796581285765_" class="st0" d="M226.8,248.9V56.8
		c-30.6,27.4-48.5,60.5-48.5,96.1C178.3,188.5,196.2,221.5,226.8,248.9z"/>
</g>
<g>
	<path id="r" class="st0" d="M606.1,159.4c26.9-9.3,43.2-31.2,43.2-59.8c0-38.9-28.9-64.5-73.1-64.5h-83.8v232.7h30.2V164h51.5
		l64.5,103.7h34.6L606.1,159.4z M572.8,136.8h-50.2V62h50.2c28.6,0,45.5,14,45.5,37.6S601.4,136.8,572.8,136.8z"/>
	<path id="a" class="st0" d="M756.7,97.5c-35.2,0-62.8,21.6-67.8,54.8l26.3,5c2.3-22.6,18.6-36.2,41.6-36.2
		c24.6,0,40.9,14.6,40.9,37.6v3.3l-32.6,3.7c-53.5,5.3-79.8,22.9-79.8,55.2c0,28.9,22.9,49.5,56.5,49.5c24.3,0,46.2-12,55.8-31.2
		v28.6h27.9V160.4C825.5,121.5,797.2,97.5,756.7,97.5z M797.6,191.9c0,33.6-18.9,55.2-51.5,55.2c-19.3,0-32.6-11-32.6-26.6
		c0-17.6,17.6-29.3,51.5-32.9l32.6-3.7V191.9z"/>
	<path id="d" class="st0" d="M993.8,32.4v91.7c-10.6-15.6-32.6-26.6-54.8-26.6c-51.9,0-80.4,37.2-80.4,86.4
		c0,49.2,28.6,86.4,80.8,86.4c24.6,0,46.9-11.6,54.5-26.9v24.3h28.3V32.4H993.8z M941.9,245.1c-32.9,0-54.5-24.3-54.5-61.2
		c0-36.9,21.6-61.2,54.5-61.2c32.9,0,54.5,24.3,54.5,61.2C996.4,220.9,974.8,245.1,941.9,245.1z"/>
	<g id="i">
		<path class="st0" d="M1078.4,68.6c11.6,0,20.3-8.6,20.3-19.6c0-11.3-8.6-19.9-20.3-19.9c-11.3,0-19.6,8.6-19.6,19.9
			C1058.8,60,1067.1,68.6,1078.4,68.6z"/>
		<rect x="1064.4" y="100.2" class="st0" width="28.3" height="167.5"/>
	</g>
	<path id="o" class="st0" d="M1210.6,97.5c-49.9,0-85.1,36.2-85.1,86.4s35.2,86.4,85.1,86.4c49.5,0,85.4-36.2,85.4-86.4
		S1260.1,97.5,1210.6,97.5z M1210.6,245.1c-33.6,0-56.2-25.3-56.2-61.2c0-35.9,22.6-61.2,56.2-61.2c33.6,0,56.2,25.3,56.2,61.2
		C1266.8,219.9,1244.1,245.1,1210.6,245.1z"/>
	<rect id="l" x="1328.8" y="32.4" class="st0" width="28.3" height="235.4"/>
	<path id="a2" class="st0" d="M1462,97.5c-35.2,0-62.8,21.6-67.8,54.8l26.3,5c2.3-22.6,18.6-36.2,41.6-36.2
		c24.6,0,40.9,14.6,40.9,37.6v3.3l-32.6,3.7c-53.5,5.3-79.8,22.9-79.8,55.2c0,28.9,22.9,49.5,56.5,49.5c24.3,0,46.2-12,55.8-31.2
		v28.6h27.9V160.4C1530.8,121.5,1502.6,97.5,1462,97.5z M1502.9,191.9c0,33.6-18.9,55.2-51.5,55.2c-19.3,0-32.6-11-32.6-26.6
		c0-17.6,17.6-29.3,51.5-32.9l32.6-3.7V191.9z"/>
	<path id="b" class="st0" d="M1656.6,97.5c-22.3,0-44.2,11-54.8,26.6V32.4h-28.3v235.4h28.3v-24.3c7.6,15.3,29.9,26.9,54.5,26.9
		c52.2,0,80.8-37.2,80.8-86.4C1737,134.8,1708.4,97.5,1656.6,97.5z M1653.6,245.1c-32.9,0-54.2-24.3-54.2-61.2
		c0-36.9,21.3-61.2,54.2-61.2s54.5,24.3,54.5,61.2C1708.1,220.9,1686.5,245.1,1653.6,245.1z"/>
</g>
</svg>
