<?xml version="1.0" standalone="no"?>
<!DOCTYPE svg PUBLIC "-//W3C//DTD SVG 20010904//EN"
 "http://www.w3.org/TR/2001/REC-SVG-20010904/DTD/svg10.dtd">
<svg version="1.0" xmlns="http://www.w3.org/2000/svg"
 width="800.000000pt" height="800.000000pt" viewBox="0 0 800.000000 800.000000"
 preserveAspectRatio="xMidYMid meet">
<metadata>
Created by potrace 1.14, written by Peter Selinger 2001-2017
</metadata>
<g transform="translate(0.000000,800.000000) scale(0.100000,-0.100000)"
fill="#000000" stroke="none">
<path d="M3672 7985 c-1190 -113 -2217 -692 -2909 -1640 -554 -761 -831 -1751
-748 -2672 58 -639 242 -1208 563 -1743 251 -419 617 -826 1008 -1121 596
-451 1279 -718 2027 -794 188 -19 592 -19 783 0 1792 180 3238 1522 3549 3295
71 407 75 911 10 1315 -104 645 -359 1247 -747 1766 -136 182 -232 291 -414
469 -595 583 -1341 957 -2169 1089 -309 49 -668 63 -953 36z m-2117 -1935
c105 -124 231 -295 301 -407 71 -116 122 -206 100 -179 -15 18 -16 -114 -16
-1430 l0 -1449 21 25 c28 34 -32 -74 -104 -190 -117 -185 -286 -399 -475 -600
l-71 -75 0 2285 0 2285 86 -90 c47 -49 118 -128 158 -175z m5145 -2020 l0
-2279 -106 112 c-145 153 -290 334 -399 502 -95 145 -173 280 -136 235 l21
-25 -1 1460 c0 1300 -1 1457 -15 1433 -21 -39 -28 -35 -8 5 65 124 227 363
350 514 50 61 285 322 292 323 1 0 2 -1026 2 -2280z m-4042 1541 c45 -56 113
-148 150 -204 76 -114 136 -218 103 -177 l-21 25 0 -1185 0 -1185 21 25 c19
23 19 22 -1 -15 -97 -173 -274 -405 -443 -580 l-106 -110 0 1865 0 1865 108
-111 c59 -62 144 -157 189 -213z m2997 -1541 c0 -1023 -3 -1860 -6 -1860 -10
0 -222 230 -296 322 -41 51 -105 138 -142 193 -76 113 -136 216 -102 175 l21
-25 -1 1195 c0 1053 -1 1193 -14 1176 -31 -41 -13 -1 34 78 65 107 182 265
277 373 85 97 216 233 224 233 3 0 5 -837 5 -1860z m-2273 1381 c53 -55 130
-142 171 -193 101 -127 197 -271 168 -254 -8 5 -11 -252 -11 -934 0 -709 3
-939 12 -934 14 9 10 2 -55 -96 -99 -148 -276 -356 -370 -433 l-47 -38 0 1501
c0 1447 1 1500 18 1491 10 -5 62 -55 114 -110z m1376 -2133 l-3 -752 -96 95
c-115 113 -228 249 -307 367 -77 115 -80 121 -59 103 16 -13 17 46 17 939 0
893 -1 952 -17 939 -21 -17 -19 -13 53 96 78 119 175 235 299 359 l110 111 3
-752 c1 -414 1 -1091 0 -1505z"/>
</g>
</svg>
