<?xml version="1.0" encoding="utf-8"?>
<!-- Generator: Adobe Illustrator 26.0.3, SVG Export Plug-In . SVG Version: 6.00 Build 0)  -->
<svg version="1.1" id="Layer_1" xmlns="http://www.w3.org/2000/svg" xmlns:xlink="http://www.w3.org/1999/xlink" x="0px" y="0px"
	 viewBox="0 0 125.6 28.3" style="enable-background:new 0 0 125.6 28.3;" xml:space="preserve">
<style type="text/css">
	.st0{clip-path:url(#SVGID_00000180355855978836396010000003387898334860302009_);fill:#0454D6;}
	.st1{clip-path:url(#SVGID_00000180355855978836396010000003387898334860302009_);}
	.st2{clip-path:url(#SVGID_00000146493355606991891940000008955939903734220436_);}
	.st3{fill:#F4F2F0;}
	.st4{fill:none;stroke:#F4F2F0;stroke-width:0.5329;stroke-linejoin:bevel;}
</style>
<g>
	<defs>
		<rect id="SVGID_1_" x="-891.1" y="-174.7" width="1907.4" height="377.7"/>
	</defs>
	<clipPath id="SVGID_00000072280880522284417170000013419086201411429802_">
		<use xlink:href="#SVGID_1_"  style="overflow:visible;"/>
	</clipPath>
	
		<rect x="0.9" y="1.2" style="clip-path:url(#SVGID_00000072280880522284417170000013419086201411429802_);fill:#0454D6;" width="123.5" height="26"/>
	<g style="clip-path:url(#SVGID_00000072280880522284417170000013419086201411429802_);">
		<defs>
			<rect id="SVGID_00000034071101036128321300000018243626165502030209_" x="2" y="2.2" width="121.3" height="24"/>
		</defs>
		<clipPath id="SVGID_00000075130490312895608860000001907156060685762983_">
			<use xlink:href="#SVGID_00000034071101036128321300000018243626165502030209_"  style="overflow:visible;"/>
		</clipPath>
		<g style="clip-path:url(#SVGID_00000075130490312895608860000001907156060685762983_);">
			<path class="st3" d="M24,10.1h-2.5c-0.1,0.1-0.1,0.3-0.2,0.4H24V10.1z"/>
			<path class="st3" d="M24,10.9h-2.8c-0.1,0.1-0.1,0.3-0.1,0.4H24V10.9z"/>
			<path class="st3" d="M24,11.7h-3.1c0,0.1-0.1,0.3-0.1,0.4H24V11.7z"/>
			<path class="st3" d="M24,8.6h-1.6c-0.1,0.1-0.2,0.3-0.3,0.4H24V8.6z"/>
			<path class="st3" d="M24,9.4h-2.1c-0.1,0.1-0.1,0.3-0.2,0.4H24V9.4z"/>
			<path class="st3" d="M24,7.1h-0.3l-0.3,0.4H24V7.1z"/>
			<path class="st3" d="M24,7.8h-1c-0.1,0.1-0.2,0.3-0.3,0.4H24L24,7.8z"/>
			<path class="st3" d="M24,12.4h-3.2c0,0.1,0,0.3-0.1,0.4H24V12.4z"/>
			<path class="st3" d="M24,13.2h-3.4c0,0.1,0,0.3,0,0.4H24L24,13.2z"/>
			<path class="st3" d="M24,14.3v-0.4h-3.4c0,0.1,0,0.1,0,0.2c0,0.1,0,0.1,0,0.2H24z"/>
			<path class="st3" d="M20.6,14.7c0,0.1,0,0.3,0,0.4H24v-0.4H20.6z"/>
			<path class="st3" d="M20.7,15.5l0.1,0.4H24v-0.4H20.7z"/>
			<path class="st3" d="M20.8,16.2c0,0.1,0.1,0.3,0.1,0.4H24v-0.4H20.8z"/>
			<path class="st3" d="M21,17c0,0.1,0.1,0.3,0.1,0.4H24V17H21z"/>
			<path class="st3" d="M21.3,17.8c0.1,0.1,0.1,0.3,0.2,0.4H24v-0.4H21.3z"/>
			<path class="st3" d="M21.9,18.9H24v-0.4h-2.3C21.8,18.7,21.8,18.8,21.9,18.9z"/>
			<path class="st3" d="M22.4,19.7H24v-0.4h-1.8C22.2,19.4,22.3,19.6,22.4,19.7z"/>
			<path class="st3" d="M23,20.4h1v-0.4h-1.3C22.8,20.2,22.9,20.3,23,20.4z"/>
			<path class="st3" d="M23.7,21.2H24v-0.4h-0.6C23.5,21,23.6,21.1,23.7,21.2z"/>
			<path class="st3" d="M20.6,10.1V9.8h-1.5c-0.1,0.1-0.2,0.3-0.2,0.4H20.6z"/>
			<path class="st3" d="M20.6,10.9v-0.4h-2c-0.1,0.1-0.1,0.3-0.2,0.4H20.6z"/>
			<path class="st3" d="M20.6,11.7v-0.4h-2.3c-0.1,0.1-0.1,0.3-0.1,0.4H20.6z"/>
			<path class="st3" d="M20.6,8.6V8.2h-0.3c-0.1,0.1-0.2,0.3-0.3,0.4H20.6z"/>
			<path class="st3" d="M20.6,9.4V9h-1c-0.1,0.1-0.2,0.3-0.3,0.4H20.6z"/>
			<path class="st3" d="M20.6,12.4v-0.4H18c0,0.1-0.1,0.3-0.1,0.4H20.6z"/>
			<path class="st3" d="M20.6,13.2v-0.4h-2.7c0,0.1,0,0.3-0.1,0.4H20.6z"/>
			<path class="st3" d="M20.6,14v-0.4h-2.8c0,0.1,0,0.3,0,0.4H20.6z"/>
			<path class="st3" d="M17.7,14.7h2.8v-0.4h-2.9C17.7,14.5,17.7,14.6,17.7,14.7z"/>
			<path class="st3" d="M17.8,15.5h2.7v-0.4h-2.8C17.8,15.2,17.8,15.4,17.8,15.5z"/>
			<path class="st3" d="M18,16.3h2.6v-0.4h-2.7C17.9,16,18,16.1,18,16.3z"/>
			<path class="st3" d="M18.3,17h2.3v-0.4h-2.4C18.2,16.8,18.2,16.9,18.3,17z"/>
			<path class="st3" d="M18.6,17.8h2v-0.4h-2.1C18.5,17.5,18.5,17.7,18.6,17.8z"/>
			<path class="st3" d="M19.1,18.6h1.5v-0.4h-1.7C18.9,18.3,19,18.4,19.1,18.6z"/>
			<path class="st3" d="M19.6,19.3h1v-0.4h-1.3C19.4,19.1,19.5,19.2,19.6,19.3z"/>
			<path class="st3" d="M20.3,20.1h0.3v-0.4h-0.7C20,19.8,20.1,20,20.3,20.1z"/>
			<path class="st3" d="M17.7,10.1h-0.8c-0.1,0.1-0.2,0.3-0.3,0.4h1.1V10.1z"/>
			<path class="st3" d="M17.7,10.9h-1.3c-0.1,0.1-0.1,0.3-0.2,0.4h1.5V10.9z"/>
			<path class="st3" d="M17.7,11.7H16c-0.1,0.1-0.1,0.3-0.2,0.4h1.9L17.7,11.7z"/>
			<path class="st3" d="M17.7,9.4h-0.1c-0.1,0.1-0.2,0.3-0.4,0.4h0.5V9.4z"/>
			<path class="st3" d="M17.7,12.4h-2c0,0.1-0.1,0.3-0.1,0.4h2.1L17.7,12.4z"/>
			<path class="st3" d="M17.7,13.6v-0.4h-2.2c0,0.1,0,0.3-0.1,0.4H17.7z"/>
			<path class="st3" d="M15.5,14.3h2.2v-0.4h-2.3c0,0.1,0,0.1,0,0.2C15.4,14.2,15.4,14.3,15.5,14.3L15.5,14.3z"/>
			<path class="st3" d="M15.5,14.7L15.5,14.7c-0.1,0.1,0,0.3,0,0.4h2.2v-0.4H15.5z"/>
			<path class="st3" d="M15.6,15.5c0,0.1,0.1,0.3,0.1,0.4h2v-0.4H15.6z"/>
			<path class="st3" d="M15.8,16.2c0,0.1,0.1,0.3,0.2,0.4h1.7v-0.4H15.8z"/>
			<path class="st3" d="M16.1,17c0.1,0.1,0.1,0.3,0.2,0.4h1.4V17H16.1z"/>
			<path class="st3" d="M16.6,17.8c0.1,0.1,0.2,0.3,0.3,0.4h0.9v-0.4H16.6z"/>
			<path class="st3" d="M17.2,18.5c0.1,0.1,0.2,0.3,0.4,0.4h0.2v-0.4H17.2z"/>
			<path class="st3" d="M6.9,10.1v0.4h2.7c-0.1-0.1-0.1-0.3-0.2-0.4H6.9z"/>
			<path class="st3" d="M6.9,10.9v0.4h2.9c0-0.1-0.1-0.3-0.1-0.4H6.9z"/>
			<path class="st3" d="M6.9,11.7V12H10c0-0.1-0.1-0.3-0.1-0.4H6.9z"/>
			<path class="st3" d="M6.9,9h1.8C8.6,8.8,8.6,8.7,8.5,8.6H6.9V9z"/>
			<path class="st3" d="M6.9,9.7h2.3C9.1,9.6,9,9.5,9,9.4H6.9V9.7z"/>
			<path class="st3" d="M6.9,7.5h0.7C7.5,7.3,7.4,7.2,7.2,7.1H6.9V7.5z"/>
			<path class="st3" d="M6.9,8.2h1.3C8.1,8.1,8,8,7.9,7.8h-1V8.2z"/>
			<path class="st3" d="M6.9,12.4v0.4h3.3c0-0.1,0-0.3-0.1-0.4H6.9z"/>
			<path class="st3" d="M6.9,13.2v0.4h3.4c0-0.1,0-0.3,0-0.4H6.9z"/>
			<path class="st3" d="M6.9,13.9v0.4h3.4c0-0.1,0-0.1,0-0.2c0-0.1,0-0.1,0-0.2H6.9z"/>
			<path class="st3" d="M6.9,14.7v0.4h3.4c0-0.1,0-0.3,0-0.4H6.9z"/>
			<path class="st3" d="M6.9,15.5v0.4h3.2c0-0.1,0-0.3,0.1-0.4H6.9z"/>
			<path class="st3" d="M6.9,16.2v0.4H10c0-0.1,0.1-0.3,0.1-0.4H6.9z"/>
			<path class="st3" d="M6.9,17v0.4h2.8c0-0.1,0.1-0.3,0.1-0.4H6.9z"/>
			<path class="st3" d="M6.9,17.8v0.4h2.5c0.1-0.1,0.1-0.3,0.2-0.4H6.9z"/>
			<path class="st3" d="M6.9,18.9H9c0.1-0.1,0.1-0.3,0.2-0.4H6.9V18.9z"/>
			<path class="st3" d="M6.9,19.7h1.6c0.1-0.1,0.2-0.3,0.3-0.4H6.9L6.9,19.7z"/>
			<path class="st3" d="M6.9,20.5h1c0.1-0.1,0.2-0.3,0.3-0.4H6.9V20.5z"/>
			<path class="st3" d="M6.9,21.2h0.3l0.4-0.4H6.9L6.9,21.2z"/>
			<path class="st3" d="M12.1,10.1C12,10,11.9,9.9,11.8,9.8h-1.5v0.4H12.1z"/>
			<path class="st3" d="M12.4,10.9c-0.1-0.1-0.1-0.3-0.2-0.4h-2v0.4H12.4z"/>
			<path class="st3" d="M12.8,11.7c0-0.1-0.1-0.3-0.1-0.4h-2.3v0.4H12.8z"/>
			<path class="st3" d="M11,8.6c-0.1-0.1-0.2-0.3-0.3-0.4h-0.3v0.4H11z"/>
			<path class="st3" d="M11.6,9.4L11.3,9h-1v0.4H11.6z"/>
			<path class="st3" d="M13,12.4c0-0.1-0.1-0.3-0.1-0.4h-2.6v0.4H13z"/>
			<path class="st3" d="M13.1,13.2c0-0.1,0-0.3-0.1-0.4h-2.7v0.4H13.1z"/>
			<path class="st3" d="M13.2,14c0-0.1,0-0.3,0-0.4h-2.8V14H13.2z"/>
			<path class="st3" d="M10.3,14.7h2.8c0-0.1,0-0.3,0-0.4h-2.9L10.3,14.7z"/>
			<path class="st3" d="M10.3,15.5H13c0-0.1,0-0.3,0.1-0.4h-2.8V15.5z"/>
			<path class="st3" d="M10.3,16.3h2.6c0-0.1,0.1-0.3,0.1-0.4h-2.7L10.3,16.3z"/>
			<path class="st3" d="M10.3,17h2.3c0.1-0.1,0.1-0.3,0.1-0.4h-2.5V17z"/>
			<path class="st3" d="M10.3,17.8h2c0.1-0.1,0.1-0.3,0.2-0.4h-2.1L10.3,17.8z"/>
			<path class="st3" d="M10.3,18.6h1.5c0.1-0.1,0.2-0.3,0.2-0.4h-1.8V18.6z"/>
			<path class="st3" d="M10.3,19.3h1c0.1-0.1,0.2-0.3,0.3-0.4h-1.3L10.3,19.3z"/>
			<path class="st3" d="M10.3,20.1h0.3c0.1-0.1,0.2-0.3,0.3-0.4h-0.7V20.1z"/>
			<path class="st3" d="M14,10.1h-0.8v0.4h1.1C14.2,10.4,14.1,10.2,14,10.1z"/>
			<path class="st3" d="M14.5,10.9h-1.3v0.4h1.5C14.6,11.1,14.6,11,14.5,10.9z"/>
			<path class="st3" d="M14.9,11.7h-1.7V12h1.9C15,11.9,14.9,11.8,14.9,11.7z"/>
			<path class="st3" d="M13.3,9.4h-0.2v0.4h0.5C13.6,9.6,13.4,9.5,13.3,9.4z"/>
			<path class="st3" d="M15.2,12.4h-2v0.4h2.1C15.2,12.7,15.2,12.5,15.2,12.4z"/>
			<path class="st3" d="M15.4,13.6c0-0.1,0-0.3-0.1-0.4h-2.2v0.4H15.4L15.4,13.6z"/>
			<path class="st3" d="M15.4,14.3L15.4,14.3c0.1-0.1,0.1-0.1,0.1-0.2c0-0.1,0-0.1,0-0.2h-2.3v0.4H15.4z"/>
			<path class="st3" d="M13.2,14.7v0.4h2.2c0-0.1,0-0.3,0.1-0.4H13.2z"/>
			<path class="st3" d="M13.2,15.5v0.4h2c0-0.1,0.1-0.3,0.1-0.4H13.2z"/>
			<path class="st3" d="M13.2,16.2v0.4h1.7c0.1-0.1,0.1-0.3,0.2-0.4H13.2z"/>
			<path class="st3" d="M13.2,17v0.4h1.4c0.1-0.1,0.1-0.3,0.2-0.4H13.2z"/>
			<path class="st3" d="M13.2,17.8v0.4H14l0.3-0.4H13.2z"/>
			<path class="st3" d="M13.2,18.5v0.4h0.2c0.1-0.1,0.2-0.3,0.4-0.4H13.2z"/>
			<path class="st4" d="M2.2,2.5V26H123V2.5H2.2z"/>
			<path class="st3" d="M38.5,18.8h1.2v-7.9h2.8v-1h-6.9v1h2.9V18.8z M54.4,9.8v3.7h-4.7V9.8h-1.2v9h1.2v-4.2h4.7v4.2h1.2v-9H54.4z
				 M62.3,18.8h5.8v-1.1h-4.6v-3.2h3.6v-1.1h-3.6v-2.6h4.5v-1h-5.7V18.8z M82.4,18.8H88v-1.1h-4.4V9.8h-1.2V18.8z M100.1,18.8h1.2
				l-3.6-9h-1.1l-3.6,9h1.2l0.9-2.3h4L100.1,18.8z M95.7,15.4l1.6-4.1l1.6,4.1H95.7z M107.2,18.8h3.4c1.8,0,2.9-1,2.9-2.6
				c0-1.3-0.7-2-1.6-2.3c0.6-0.3,1.2-0.9,1.2-1.8c0-1.5-1.1-2.3-2.7-2.3h-3.3V18.8z M108.4,13.5v-2.7h2c1.1,0,1.6,0.4,1.6,1.3
				c0,0.9-0.6,1.3-1.6,1.3H108.4z M108.4,17.7v-3.2h2.1c1.3,0,2,0.6,2,1.6c0,1-0.7,1.6-2,1.6H108.4z"/>
			<path class="st4" d="M28.8,26V2.5"/>
		</g>
	</g>
</g>
</svg>
