<svg width="70" height="83" viewBox="0 0 70 83" fill="none" xmlns="http://www.w3.org/2000/svg">
<circle cx="35" cy="35" r="35" fill="#0454D6"/>
<g clip-path="url(#clip0_3_33)">
<path d="M42.2987 46.279C42.0838 47.037 41.7827 47.7678 41.4013 48.4572C39.2067 51.9489 35.5273 52.8627 31.4318 52.3242C28.0757 51.801 24.8237 50.7491 21.7969 49.2078C18.9986 47.5761 17.0651 45.3407 16.9999 41.9143C16.9509 38.7978 18.7865 37.3864 21.8948 37.4925C22.2864 37.4925 22.7107 37.4925 23.037 37.5496C22.8902 37.2885 22.5393 36.7746 22.3599 36.5135C19.2516 32.0509 19.6758 27.6537 22.213 23.0442C23.6136 20.3884 25.6411 18.1145 28.1196 16.4197C29.017 15.7893 30.0349 15.3511 31.1096 15.1326C32.1842 14.914 33.2925 14.9198 34.3648 15.1496C35.4371 15.3794 36.4504 15.8282 37.3411 16.4679C38.2319 17.1076 38.9809 17.9244 39.5412 18.8671C41.3115 21.7062 41.9315 24.9124 42.2823 28.1594C42.9268 34.1884 43.1716 41.1311 42.2987 46.279Z" fill="white"/>
<path d="M42.4294 23.2727C42.3013 22.4526 42.4536 21.6133 42.8617 20.8905C43.4063 20.1205 44.1128 19.4789 44.9316 19.011C45.7505 18.5431 46.6618 18.2601 47.6017 18.182C50.0492 18.182 51.7706 19.7647 52.8393 21.9185C53.6906 23.933 53.9727 26.1425 53.6551 28.3064C53.1656 32.8668 50.0981 40.5438 47.7975 43.3665C46.9646 44.4357 46.0421 45.4319 45.04 46.3443C44.1426 47.1602 43.596 46.793 43.5226 45.5937C43.4491 44.3945 43.7347 40.764 43.7755 39.4832C43.906 34.4495 43.6042 27.9392 42.4294 23.2727Z" fill="white"/>
<path d="M38.236 54.9103C37.9178 54.641 37.9912 54.0944 38.3665 53.7355C39.1823 52.9196 39.8758 51.9977 40.6508 51.1493C41.2859 50.354 41.9963 49.6218 42.772 48.9629C42.9495 48.833 43.1661 48.7679 43.3857 48.7783C43.6054 48.7887 43.8149 48.874 43.9794 49.02C44.0546 49.1051 44.1112 49.2049 44.1456 49.3132C44.1799 49.4214 44.1913 49.5355 44.1791 49.6484C44.1668 49.7613 44.1311 49.8704 44.0742 49.9687C44.0173 50.067 43.9406 50.1523 43.8489 50.2193C42.0133 51.9814 40.6264 53.4826 39.2068 54.7063C38.8805 54.9837 38.497 55.1061 38.236 54.9103Z" fill="white"/>
</g>
<rect y="63" width="70" height="20" rx="2" fill="#EDC314"/>
<path d="M12.9986 77H14.1786V74.18H15.7586C17.1486 74.18 18.0486 73.36 18.0486 72.09C18.0486 70.82 17.1486 70 15.7586 70H12.9986V77ZM14.1786 73.16V71.02H15.6786C16.4186 71.02 16.8586 71.42 16.8586 72.09C16.8586 72.76 16.4186 73.16 15.6786 73.16H14.1786ZM22.3956 77.08C24.4156 77.08 25.8956 75.57 25.8956 73.5C25.8956 71.43 24.4156 69.92 22.3956 69.92C20.3756 69.92 18.8956 71.43 18.8956 73.5C18.8956 75.57 20.3756 77.08 22.3956 77.08ZM22.3956 76.05C21.0456 76.05 20.0756 74.98 20.0756 73.5C20.0756 72.02 21.0456 70.94 22.3956 70.94C23.7456 70.94 24.7156 72.02 24.7156 73.5C24.7156 74.98 23.7456 76.05 22.3956 76.05ZM27.2193 77H28.3993V74.18H29.9793C31.3693 74.18 32.2693 73.36 32.2693 72.09C32.2693 70.82 31.3693 70 29.9793 70H27.2193V77ZM28.3993 73.16V71.02H29.8993C30.6393 71.02 31.0793 71.42 31.0793 72.09C31.0793 72.76 30.6393 73.16 29.8993 73.16H28.3993ZM36.1463 77.08C37.7563 77.08 38.8563 76.16 38.8563 74.51V70H37.7463V74.53C37.7463 75.51 37.0963 76.05 36.1463 76.05C35.1863 76.05 34.5363 75.51 34.5363 74.53V70H33.4263V74.51C33.4263 76.16 34.5263 77.08 36.1463 77.08ZM40.483 77H44.993V75.97H41.653V70H40.483V77ZM50.785 77H51.995L49.265 70H48.175L45.455 77H46.665L47.285 75.35H50.165L50.785 77ZM47.665 74.34L48.725 71.54L49.785 74.34H47.665ZM58.5654 77L56.6454 73.83C57.3854 73.51 57.8254 72.83 57.8254 72.01C57.8254 70.79 56.9454 70 55.5954 70H52.9654L52.9754 77H54.1454V74.03H55.4454L57.2154 77H58.5654ZM54.1454 71.02H55.4254C56.1954 71.02 56.6354 71.39 56.6354 72.01C56.6354 72.64 56.1954 73 55.4254 73H54.1454V71.02Z" fill="black"/>
<defs>
<clipPath id="clip0_3_33">
<rect width="36.753" height="40" fill="white" transform="translate(17 15)"/>
</clipPath>
</defs>
</svg>
