<svg width="60" height="60" viewBox="0 0 60 60" fill="none" xmlns="http://www.w3.org/2000/svg">
<circle cx="30" cy="30" r="30" fill="#FF3904"/>
<path d="M41.2196 42.9384C41.1498 44.0233 41.4359 45.4639 41.1219 46.0778C40.1557 47.9231 38.4814 48.7219 37.1454 47.8952C35.6978 47.0022 35.6978 45.8371 37.0547 43.7093C38.1395 42.0106 39.4371 40.3921 40.1627 38.5259C40.7905 36.9213 40.6475 35.8923 38.6174 35.8853C38.0907 35.8853 37.6233 35.6586 37.5326 35.3551C37.4872 35.112 37.4996 34.8616 37.5687 34.6241C37.6377 34.3866 37.7616 34.1687 37.9302 33.9878C38.2203 33.6463 38.5761 33.3666 38.9764 33.1653C39.3766 32.964 39.8133 32.8451 40.2604 32.8157C40.6637 32.7787 41.0681 32.8755 41.411 33.0911C41.754 33.3067 42.0164 33.6291 42.1579 34.0087C42.3742 34.4447 42.1823 36.5027 41.9521 37.9434C41.7428 39.2654 41.3312 41.2676 41.2196 42.9384Z" fill="white"/>
<path d="M42.4823 33.5972C42.1334 32.6135 41.1672 32.767 40.5707 31.9891C40.3968 31.688 40.3169 31.3419 40.3411 30.9951C40.3653 30.6483 40.4927 30.3166 40.7068 30.0427C41.0556 29.6346 41.973 29.3939 42.5206 29.4951C42.8732 29.6059 43.1908 29.8067 43.4422 30.0777C43.6936 30.3486 43.8701 30.6804 43.9543 31.0403C44.1426 32.5054 43.3752 35.7668 43.2915 37.2563C43.1729 39.3108 43.2322 40.1724 43.1415 42.2269C43.0857 43.4652 43.002 43.6676 41.6416 43.8699C41.664 42.944 41.742 42.0203 41.8753 41.1037C42.0357 40.1584 42.402 38.2085 42.5729 37.2667C42.7439 36.3249 42.8764 34.7134 42.4823 33.5972Z" fill="white"/>
<path d="M18.9373 41.6447C18.9373 41.4563 24.7416 39.618 24.7974 39.8483C25.1114 41.1668 27.8077 44.2155 28.9065 44.5259C28.9902 44.5468 28.9763 45.2235 29.2553 45.7503C29.4119 46.0628 29.6321 46.339 29.9018 46.5613C30.1716 46.7836 30.4849 46.947 30.8215 47.0409C31.868 47.3269 30.8215 49.0466 30.8215 49.0466L30.1029 50.5361C30.1029 50.5361 29.7541 51.1535 29.2797 50.7942C28.8053 50.4349 29.2309 49.6117 29.2309 49.6117C29.2309 49.6117 29.6948 48.7501 29.8937 48.4117C30.1588 47.9687 29.4821 47.7629 29.0879 47.4769C28.8283 47.222 28.5483 46.9887 28.2507 46.7793C27.9019 46.6223 26.7124 47.1037 25.6834 47.0339C24.0963 46.9362 19.1849 45.4538 18.9373 41.6447Z" fill="white"/>
<path d="M13.0002 43.0743C13.0002 42.8267 18.1523 41.5046 18.2325 41.8709C18.3197 42.3453 19.3836 44.4138 20.3254 45.3591C21.1237 46.2837 22.2032 46.9209 23.3985 47.1729C24.0403 47.288 25.0345 47.2218 25.6728 47.5985C26.3111 47.9752 27.7169 48.4112 27.1937 49.2379C26.7958 49.9401 26.4462 50.6684 26.1472 51.418C25.924 51.868 25.6205 52.2064 25.2856 51.9797C25.2096 51.9369 25.1438 51.8782 25.0927 51.8076C25.0415 51.737 25.0063 51.6562 24.9894 51.5707C24.9724 51.4851 24.9743 51.3969 24.9947 51.3122C25.0152 51.2274 25.0537 51.1481 25.1077 51.0797C25.4554 50.5464 25.7465 49.9782 25.9763 49.3844C26.1298 48.9798 25.5786 48.5019 24.7205 48.2159C24.3403 48.0903 23.245 48.1636 22.7323 48.2159C21.7905 48.3171 21.3091 48.6554 21.7556 48.9763C22.4532 49.4786 23.5869 49.6042 23.1055 50.5913C22.8439 51.1285 22.3451 51.9866 22.1288 52.3354C21.8358 52.8063 21.5288 53.1028 21.2219 52.9668C20.9149 52.8308 20.7056 52.6354 21.1905 51.9971C21.5044 51.5855 21.8672 50.8704 22.0556 50.5704C22.2439 50.2704 21.7556 50.0437 21.2289 49.8728C20.7021 49.7019 20.594 49.1124 19.9557 49.1124C19.3173 49.1124 17.3988 49.3496 16.8163 49.3496C16.2338 49.3496 12.9688 44.7661 13.0002 43.0743Z" fill="white"/>
<path d="M25.2369 39.5935C25.1915 39.0459 27.9751 34.7659 29.046 33.6182C30.5087 32.2076 32.0544 30.8855 33.6748 29.6591C34.1004 29.3871 34.5468 29.1359 34.8957 29.4743C35.2445 29.8126 35.5165 29.9103 36.3398 29.8615C37.163 29.8126 38.1571 29.4882 38.1327 28.7383C38.1083 27.9883 38.0839 27.8697 38.5548 27.7197C39.0257 27.5697 39.6012 28.2674 39.7512 28.6894C39.9012 29.1115 40.4977 30.6079 39.7512 31.5288C39.0047 32.4497 37.5606 33.0706 36.6886 34.267C35.8165 35.4635 34.9654 37.3297 34.2817 37.975C33.5981 38.6203 29.5692 43.5561 29.2448 43.87C28.9204 44.184 25.3101 40.5458 25.2369 39.5935Z" fill="white"/>
<path d="M35.1192 28.8878C34.9893 28.2209 35 27.5342 35.1506 26.8717C35.2832 26.4705 35.8482 26.6101 36.0471 26.8717C36.189 27.0153 36.3799 27.1001 36.5817 27.1091C36.7834 27.1182 36.9811 27.0508 37.1354 26.9205C37.3272 26.7391 37.833 26.6205 37.833 26.9972C37.8606 27.5876 37.8373 28.1793 37.7633 28.7657C37.6028 29.3378 35.4889 29.9448 35.1192 28.8878Z" fill="white"/>
<path d="M36.6851 26.5264C37.3709 26.5264 37.9269 25.9704 37.9269 25.2846C37.9269 24.5988 37.3709 24.0428 36.6851 24.0428C35.9993 24.0428 35.4433 24.5988 35.4433 25.2846C35.4433 25.9704 35.9993 26.5264 36.6851 26.5264Z" fill="white"/>
<path d="M38.164 23.3555C38.5128 23.6346 38.7918 24.3671 38.6628 24.5973C38.5337 24.8276 38.0733 24.7229 37.9233 24.2276C37.8849 24.0784 37.8095 23.9413 37.704 23.8291C37.5985 23.7169 37.4663 23.6332 37.3198 23.5858C36.5768 23.3974 36.6222 23.0381 37.2256 22.9753C37.3994 22.9734 37.5719 23.006 37.733 23.0712C37.894 23.1365 38.0406 23.2331 38.164 23.3555V23.3555Z" fill="white"/>
<path d="M39.4792 27.4229C40.0025 27.095 43.7767 23.4359 43.5465 20.9907C43.3163 18.5454 40.7559 16.2153 37.9235 14.1259C37.3863 13.7318 36.7829 13.362 37.034 13.0795C37.2852 12.7969 37.8816 13.3376 38.2584 13.6131C40.1769 15.0084 41.8687 16.327 43.3756 18.6187C43.8869 19.3909 44.1596 20.2965 44.1596 21.2226C44.1596 22.1488 43.8869 23.0544 43.3756 23.8266C42.4407 25.3544 40.8222 27.2241 40.1315 27.6636C39.4409 28.1031 39.2769 27.5485 39.4792 27.4229Z" fill="white"/>
<path d="M40.2078 28.337C40.7276 28.0092 43.4554 25.8186 43.5007 23.7571C43.5286 22.5501 42.6147 21.42 42.1264 20.7921C41.1741 19.5677 39.6567 18.619 38.4358 17.712C37.8987 17.3144 37.2917 16.9481 37.5464 16.6656C37.801 16.383 38.394 16.9237 38.7707 17.2028C40.1289 18.1334 41.3774 19.2146 42.4926 20.4258C43.4728 21.4723 44.5855 23.635 43.6716 25.2186C42.7577 26.8022 41.3206 28.3022 40.6299 28.7591C39.9393 29.2161 40.0055 28.4487 40.2078 28.337Z" fill="white"/>
<path d="M33.1446 39.8793C33.9957 38.8329 35.7224 36.8865 36.5386 36.0423C37.0479 35.5121 37.9653 36.8271 38.928 36.3493C38.9804 36.9213 38.6001 37.9678 38.3455 38.4038C37.47 39.9072 36.9119 40.8455 35.9038 42.2687C34.5887 44.1244 33.4621 46.186 30.8599 45.9976C29.6251 45.9104 29.0948 44.6826 30.3366 43.1722C31.254 42.056 32.2098 40.9746 33.1446 39.8793Z" fill="white"/>
</svg>
