<svg width="60" height="60" viewBox="0 0 60 60" fill="none" xmlns="http://www.w3.org/2000/svg">
<circle cx="30" cy="30" r="30" fill="#F9B0D4"/>
<path d="M31.938 20.4411C31.938 20.7456 31.8477 21.0433 31.6785 21.2965C31.5093 21.5496 31.2688 21.747 30.9875 21.8635C30.7062 21.98 30.3966 22.0105 30.098 21.9511C29.7993 21.8917 29.525 21.7451 29.3097 21.5298C29.0944 21.3144 28.9477 21.0401 28.8883 20.7414C28.8289 20.4428 28.8594 20.1332 28.9759 19.8519C29.0924 19.5706 29.2898 19.3301 29.543 19.1609C29.7962 18.9918 30.0938 18.9015 30.3983 18.9015C30.8067 18.9015 31.1983 19.0637 31.487 19.3524C31.7758 19.6411 31.938 20.0328 31.938 20.4411ZM42.0609 51.3103C43.5582 49.0971 45.3595 41.6877 45.856 37.7887C46.5027 32.7272 46.4064 28.3508 44.0277 24.498C42.4112 21.8806 38.3081 19.0862 34.9479 18.1779C31.2644 17.181 26.761 16.5882 22.4424 17.3388C19.7481 17.8122 17.9275 18.8284 17.2693 20.2102L12.0385 19.144L12.8391 20.1332L12 20.903L17.3463 21.4187C17.3645 22.5805 17.6985 23.7154 18.3124 24.702C19.3516 26.357 22.3885 28.8666 23.9705 29.9982C25.9258 31.407 30.356 33.4623 32.0534 35.2521C33.5101 36.7562 34.5053 38.6463 34.921 40.6985C35.1519 42.0187 35.1096 46.73 34.7824 46.7415C34.3667 46.7415 34.3128 41.4375 34.1588 41.8917C32.8771 45.7407 33.185 46.7915 29.617 53C29.6093 53 41.7568 51.7606 42.0609 51.3103Z" fill="white"/>
</svg>
